<svg width="229px" height="334px" viewBox="0 0 229 334" version="1.1" xmlns="http://www.w3.org/2000/svg" xmlns:xlink="http://www.w3.org/1999/xlink" xmlns:sketch="http://www.bohemiancoding.com/sketch/ns">
    <g id="Page-1" stroke="none" stroke-width="1" fill="none" fill-rule="evenodd" sketch:type="MSPage">
        <path d="M8.516,318.024 C8.516,291.991 8.632,265.958 8.459,239.925 C8.388,229.23 7.666,218.538 7.287,207.843 C6.877,196.27 6.596,184.692 6.12,173.121 C5.681,162.428 5.227,151.731 4.464,141.059 C3.871,132.788 2.474,124.568 2.02,116.294 C1.614,108.886 1.989,101.434 2.051,94.001 C2.129,84.653 2.417,75.304 2.289,65.959 C2.146,55.497 1.674,45.039 1.277,34.582 C1.096,29.794 0.712,25.015 0.505,20.228 C0.358,16.823 0.223,13.408 0.312,10.003 C0.479,3.583 7.132,-0.855 13.157,1.535 C15.342,2.402 17.32,3.868 19.265,5.242 C24.016,8.597 28.681,12.073 33.4,15.473 C41.04,20.978 48.909,26.191 56.283,32.031 C63.914,38.076 70.811,45.054 78.497,51.023 C88.834,59.051 99.627,66.491 110.206,74.209 C116.528,78.822 122.736,83.593 129.134,88.099 C140.031,95.773 150.865,103.561 162.055,110.791 C170.212,116.062 179.049,120.273 187.297,125.415 C192.767,128.825 197.931,132.807 202.876,136.957 C210.208,143.111 217.23,149.634 224.373,156.013 C228.437,159.643 229.756,166.341 226.716,169.858 C225.161,171.655 222.913,173.045 220.721,174.063 C212.719,177.78 206.131,183.509 199.166,188.715 C192.709,193.541 186.143,198.224 179.731,203.109 C171.537,209.354 163.457,215.75 155.312,222.061 C149.125,226.853 142.717,231.38 136.762,236.443 C127.712,244.137 118.247,251.32 109.962,259.967 C104.763,265.394 98.023,269.308 92.286,274.262 C83.773,281.614 75.094,288.859 67.314,296.947 C60.194,304.349 52.495,310.722 43.669,315.863 C37.292,319.578 31.467,324.024 26.336,329.367 C23.951,331.849 20.851,332.976 17.487,333.088 C12.744,333.246 9.107,329.401 9.107,324.496 L9.107,318.023 C8.91,318.023 8.713,318.024 8.516,318.024 L8.516,318.024 Z" id="Arrow" fill="#000000" sketch:type="MSShapeGroup" transform="translate(114.332843, 166.985761) scale(-1, 1) translate(-114.332843, -166.985761) "></path>
    </g>
</svg>
