<svg id="svg94" width="173.95" height="63.349" version="1.1" viewBox="0 0 173.94746 63.349289" xmlns="http://www.w3.org/2000/svg">
 <style id="style2" type="text/css">.st0{fill:#FFFFFF;}</style>
 <g id="Tagline-stay" transform="matrix(.92107 0 0 .92107 -193.8 -337.48)">
  <g id="g14">
   <path id="path4" class="st0" d="m264.2 416.3c0.5 0 0.7 0.3 0.7 0.7 0 0.5-0.4 0.7-0.8 0.7s-0.6-0.2-0.6-0.6c-0.1-0.4 0.2-0.7 0.7-0.8z" style="fill:#ffffff"/>
   <path id="path6" class="st0" d="m360.1 419.7c0-0.4 0.3-0.7 0.7-0.7s0.7 0.3 0.7 0.7-0.3 0.7-0.7 0.7-0.6-0.3-0.7-0.7z" style="fill:#ffffff"/>
   <path id="path8" class="st0" d="m377.8 421.7c-1 1-2.1 1.9-3.3 3 0.1-0.5 0.1-0.7 0.2-0.9 0.6-1.8 0-2.8-2.5-2.1-1.5 0.4-2 1.7-2.7 2.8-0.4 0.5-0.6 1.3-1.5 1-0.8-0.3-0.3-1-0.3-1.4 0-1.9-1-2.7-2.9-2.1-0.2 0.1-0.3 0.3-0.6 0.1-0.9-0.8-1.2 0-1.5 0.6-0.3 0.4-0.4 0.9-0.7 1.3-0.4 0.7-1 1.4-1.9 1.1-0.8-0.3-0.2-1.1-0.1-1.7 0-0.4 0.2-0.9-0.3-1.1s-0.8 0.2-1 0.6c-0.4 0.7-0.7 1.4-1.2 2-0.3 0.3-0.5 0.8-1 0.5-0.4-0.2-0.5-0.6-0.5-1.1 0.1-0.7 0.3-1.4 0.7-1.9 0.2-0.3 0.5-0.6 0.2-1-0.3-0.3-0.6-0.2-0.9-0.1l-0.6 0.3c-1.1 0.3-2.1 0.8-3-0.5-0.4-0.6-0.9-0.2-1.1 0.4-0.4 0.8-0.7 1.7-1.1 2.5-0.2 0.4-0.2 0.9-0.8 0.8-0.5-0.1-0.6-0.6-0.6-1.1v-1.1c0.1-0.9-0.3-1.2-1.1-1.4-2.2-0.4-3.2 0.1-4.8 2.8-0.3 0.5-0.4 1.2-1.1 1.1s-0.6-0.9-0.8-1.4c-0.1-0.2 0-0.4-0.1-0.5-0.4-1.6-1.1-2.1-2.7-1.7-0.1-0.7 0.5-0.9 0.9-1.3 0.9-0.7 1.7-1.6 2.1-2.7 0.3-0.7 0.4-1.4-0.4-1.8-0.7-0.4-1.4-0.3-2 0.4-0.5 0.7-1 1.4-1.1 2.2-0.4 2.1-2 3.1-3.8 4.3-0.2-1-0.5-1.8-0.6-2.6 0-0.3 0-0.6-0.3-0.8-0.4-0.2-0.6 0-0.9 0.3-0.5 0.5-1.1 1-1.9 1-0.5 0-1 0-0.9 0.7 0.1 0.6 0.6 0.6 1.1 0.6s0.9-0.2 1.3-0.4c0.2-0.1 0.5-0.3 0.6 0 0.4 0.9 0.9 1.9 0.4 2.9-0.4 0.8-1.1 1.5-2.2 1.2-0.5-0.1-0.8 0-0.9 0.4-0.1 0.5 0.3 0.7 0.6 0.8 1 0.4 3.2-0.3 3.5-1.3 0.5-1.5 1.8-2.1 3-3.1-0.2 1.2-0.4 2.2-0.6 3.2-0.1 0.4 0 0.9 0.6 0.9 0.5 0 0.6-0.3 0.7-0.7 0.1-0.5 0.1-1 0.3-1.5 0.3-0.7 0.7-1.5 1.5-1.5 0.6 0 0.5 1 0.6 1.6v0.1c0.2 0.9 0.5 1.8 1.6 2s1.8-0.4 2.3-1.4c0.1-0.2 0.1-0.4 0.4-0.2 0 0.9 0.2 1.7 1.2 2s1.7-0.3 2.2-1.1c0.2-0.3 0.3-0.5 0.8-0.2 1.5 1 2.1 0.8 2.9-0.8 0.2-0.5 0.4-0.9 0.6-1.4 0.1-0.3 0.2-0.7 0.7-0.5 0.8 0.4 1.7 0.1 2.6 0.3-0.4 1.3-0.5 2.6 0.8 3.4 1.1 0.7 2-0.1 2.7-0.9 1.4 1.3 2.1 1.2 4.1-0.3 0.3 0.5-0.3 1.4 0.5 1.5 0.9 0.1 0.7-0.8 0.9-1.3 0.3-0.6 0.4-1.2 0.7-1.8 0.2-0.4 0.4-0.9 1-0.8s0.5 0.7 0.5 1.1v0.6c-0.1 0.7-0.2 1.4 0.6 1.8 0.8 0.3 1.9 0.6 2.5-0.2 0.7-1 1.3-0.6 2-0.2 0.2 0.5 0.8 0 1.1 0.4-1.4 0.8-2.7 1.7-3.5 3.1-0.3 0.5-0.5 1.1 0 1.7 0.6 0.5 1.3 1.1 2.1 0.7 1.1-0.6 2.4-1.3 2.4-2.7 0-2.3 1.4-3.6 3-4.9 1-0.8 1.9-1.7 2.9-2.6-0.4-0.6-0.9-0.6-1.6 0zm-37.7-5c0.1 0.8-0.4 1.2-1.1 1.8 0.2-0.9 0.5-1.4 1.1-1.8zm6.3 8.7c-0.1 0.2-0.4 0.3-0.6 0.3-0.3 0-0.4-0.4-0.4-0.6 0-1.3 0.8-2 1.9-2.6 0.2 1.2-0.4 2.1-0.9 2.9zm24.7 5.3c-0.3 0.2-0.7 0.2-0.9 0-0.2-0.3 0.1-0.5 0.2-0.7 0.5-0.8 1.2-1.4 2.2-1.9 0 1.2-0.5 2.1-1.5 2.6zm2.2-6.8c-0.1 0.2-0.2 0.5-0.4 0.7-0.3 0.3-0.8 0.6-1.2 0.2-0.5-0.4-0.1-0.8 0.2-1.2 0.3-0.3 0.7-0.5 1-0.7 0.2-0.2 0.4-0.3 0.5-0.1 0.2 0.5 0.1 0.8-0.1 1.1z" style="fill:#ffffff"/>
   <path id="path10" class="st0" d="m274.1 419c-0.5-0.4-0.8-0.1-1 0.4-0.3 0.9-0.7 1.8-1 2.7-0.4 1.1-1.1 1.9-2.1 2.4-0.4 0.2-0.9 0.2-1.1-0.1-0.3-0.4 0.2-0.6 0.3-0.8 0.7-1 1.4-2.1 1.4-3.4 0-0.9-0.4-1.6-1.3-1.9s-1.4 0.3-1.8 1.1c-0.6 1.3-0.9 2.7-0.6 4 0.3 1.4-0.8 1.2-1.5 1.5-1 0.3-1.1-0.5-1.1-1.1 0-1.2 0-2.3 0.1-3.5 0-0.5 0.3-1.1-0.4-1.2-0.6-0.1-0.7 0.5-0.8 0.9-0.6 1.8-1.7 3.3-2.8 4.8-0.4 0.6-1.1 0.9-1.8 0.4s-0.5-1.1-0.2-1.7l1.2-2.7c0.1-0.3 0.5-0.6 0.1-1-0.3-0.4-0.6-0.2-1 0-0.5 0.3-1.1 0.2-1.5-0.3s-0.7-0.4-1.3-0.1c-1 0.6-1.9 1.4-3.3 0.6-0.5-0.3-1.4-0.3-2.2-0.1-2.4 0.6-3.5 2.3-3.9 4.6-0.2 0.8-0.7 1.4-1.3 1.4-0.8 0-1-0.8-1-1.6s0.1-1.6 0.3-2.3c0.7-2.7 0.7-2.7 3.5-2.9 0.4 0 0.8-0.1 0.8-0.5 0-0.5-0.3-0.7-0.7-0.7h-2.6c0.2-0.9 0.4-1.6 0.6-2.4 0.1-0.5 0-0.9-0.4-1.1-0.5-0.2-0.6 0.3-0.7 0.6-0.5 1-1.1 1.9-1.5 3-0.3 0.7-1 0.6-1.5 0.9-0.9 0.6 0.6 1 0 1.6s-1 1.4-1.6 2.2c-0.4-1.5-1-2.6-1.6-3.9-0.4-0.9-0.8-0.8-1.4-0.3-1 0.8-2 1.5-3.3 1.8-0.5 0.1-1 0.1-0.8 0.8 0.2 0.6 0.7 0.5 1.2 0.4 1-0.3 1.9-0.8 2.7-1.4 0.3-0.2 0.5-0.5 0.9 0 2 2.4 1.2 5-1.8 5.8-0.4 0.1-0.9 0.2-0.7 0.8 0.1 0.5 0.5 0.5 1 0.5 1.1-0.2 1.9-0.7 2.7-1.4 1.6-1.4 2.7-3.1 3.9-4.9l0.3 0.3c-0.3 1.2-0.5 2.5-0.3 3.7 0.2 1.3 1.4 2.5 2.3 2.1 1.1-0.5 1.9-0.5 2.8 0.2 0.1 0.1 0.4 0.1 0.5 0.1 2.6 0.2 4.4-1.7 4.5-4.6 0-0.4-0.5-1 0.4-1.1 0.9 0 1.6-0.4 2.4-0.8 0.7-0.4 1.3 0 1.8 0.3s-0.2 0.8-0.3 1.2-0.4 0.8-0.4 1.2c-0.1 0.9-0.2 1.8 0.6 2.4s1.6 0.6 2.5 0.4c0.7-0.2 1.2-0.8 1.7-1.4 0.4-0.6 0.8-1.2 1.2-1.9 0.4 2.9 1.3 3.6 3.3 2.7 0.9-0.4 1.7-0.6 2.7-0.1 0.7 0.4 1.4 0 2.1-0.5 1.2-0.8 1.9-1.9 2.3-3.2 0.2-0.5 0.2-1.1 0.7-1.5 1.8 1.8 1.5 3.6-0.8 4.5-0.5 0.2-1 0.2-0.7 0.9 0.3 0.6 0.8 0.5 1.3 0.3 1.5-0.7 2.5-1.8 2.6-3.5-0.2-1.5-1.4-2.6-2.6-3.6zm-22.1 4c0 1.5-0.7 2.7-2 3.2-1.4 0.5-2.4-0.2-2.2-1.7 0.2-1.1 0.9-1.9 1.7-2.6 0.5-0.5 1.2-0.7 1.9-0.4 0.6 0.3 0.6 0.9 0.6 1.5zm16.6-2.9c0.1-0.2 0.1-0.6 0.5-0.5 0.3 0.1 0.3 0.4 0.3 0.6 0 1.1-0.5 2-1.4 3-0.1-1.3 0.2-2.2 0.6-3.1z" style="fill:#ffffff"/>
   <path id="path12" class="st0" d="m321.4 425.9c-0.2-0.2-0.4-0.4-0.7-0.3s-0.5 0.6-0.9 0.4c-0.2-2.3-0.6-2.9-2.7-3 0.3-0.6 0.7-1.2 1-1.8 0.7-1.4 0.8-2.7 0.1-4.1-0.3-0.5-0.6-0.8-1.2-0.7-0.7 0.1-0.8 0.6-0.8 1.1-0.1 1-0.2 2-0.1 3 0.2 1.6-0.5 2.9-1.6 3.9-0.5 0.5-1 1.5-1.7 1.2s-0.7-1.4-0.6-2.1c0.1-0.9-0.6-2.1 1.1-2.3 0.4 0 0.4-0.7-0.1-0.8-0.9-0.3-0.6-0.9-0.5-1.5s0.1-1.1 0.2-1.7c0.1-0.4 0-0.9-0.5-1-0.6-0.1-0.6 0.4-0.8 0.8-0.5 1.1-0.1 2.6-1.6 3.3-0.2 0.1-0.1 0.5 0.1 0.7s0.2 0.4 0.2 0.7c-0.4 1.4-0.8 2.8-1.8 3.9-0.2 0.3-0.3 0.8-0.8 0.6-0.4-0.1-0.5-0.6-0.6-1 0-1.1 0.1-2.1 0.6-3.1 0.2-0.4 0.9-0.9 0.3-1.4-0.7-0.6-0.9 0.2-1.3 0.6-0.6 0.6-1.2 0.9-1.8 0-0.4-0.6-0.9-0.9-1.6-0.5-0.6 0.3-1.4 0.2-2 0-0.5-0.2-0.9-0.5-1.6-0.5-1.3 0.1-2.7 0.1-4 0-1-0.1-1.4 0.2-1.2 1.2 0.2 1.1 0 2.1-0.5 3.1-0.3 0.6-0.6 1.2-1.4 1.1-0.9-0.1-0.9-0.9-1-1.5-0.2-1-0.1-1.9 0.1-2.9 0.1-0.5 0-0.9-0.5-1s-0.6 0.3-0.7 0.7-0.1 0.7-0.2 1.1c-0.2 1.1-0.6 2.1-1.4 3-0.4 0.5-0.8 0.8-1.4 0.5-0.6-0.2-0.6-0.8-0.6-1.3 0.1-1.1 0.2-2.2 0.8-3.2 0.5-0.8 0.3-1.2-0.6-1.3-0.4 0-0.7 0-1.1-0.1-0.5-0.1-0.9-0.1-1 0.4-0.1 0.4 0.2 0.7 0.6 0.8 0.7 0.1 0.8 0.4 0.5 1-0.2 0.4-0.2 0.9-0.3 1.3-0.3 1.9 0 2.9 1.1 3.4 1.2 0.5 2.1 0.2 3.3-1.4 0-0.1 0.1-0.1 0.3-0.1 0.2 1.3 1.2 1.7 2.3 1.7 1.2 0 1.8-0.9 2.2-1.8 0.4-0.7 0.6-1.5 0.6-2.3-0.1-1.1 0.4-1.4 1.4-1.2 0.4 0.1 0.9-0.2 1.3 0.3-0.6 0.9-0.7 2-0.7 3 0.1 1.2 1 2.1 2.1 2.2 1.3 0.1 1.8-0.7 2.1-1.8 0.3-1 0.2-2.1 0.1-3 1.6-0.9 2.6 0.6 3.9 0.9 0.4 0.1-0.1 1.4 0 2.2 0.1 0.3 0.1 0.6 0.3 0.9 0.7 1.5 2 1.7 3 0.3 0.6-0.8 1.1-1.6 1.7-2.5 0.1 0.4 0.1 0.8 0.2 1 0.6 2 1.6 2.3 3.2 0.9 0.4-0.4 0.7-0.9 1.3-1.1v1.3c0 0.5-0.1 1 0.6 1.1 0.6 0 0.6-0.4 0.7-0.9 0.1-0.6 0.3-1.2 0.5-1.7 0.1-0.2 0.3-0.4 0.5-0.4 0.3 0 0.5 0.2 0.6 0.5s0.1 0.6 0.1 1c0 0.7-0.3 1.5 0.7 1.7 0.9 0.2 1.6-0.3 2.2-1 0.1-0.1 0.2-0.3 0-0.5zm-4.1-7.8c0.3 0.8 0.3 1.2-0.1 1.8-0.2-0.6-0.2-1 0.1-1.8zm-16.6 7.1c-0.1 0.4-0.4 0.6-0.8 0.6-0.5-0.1-0.8-0.4-0.9-0.9-0.3-1.3 0.1-2.3 1.1-3.2 1.2 1 0.8 2.3 0.6 3.5z" style="fill:#ffffff"/>
  </g>
 </g>
 <g id="logo_1" transform="matrix(.92107 0 0 .92107 -193.8 -337.48)">
  <g id="g39">
   <path id="path17" class="st0" d="m315.3 389.6c-0.3 5 0.2 10 0.2 15 0 1-0.3 1.2-1.2 1.2-3.4-0.1-3.6-0.3-3.2-3.7 0.4-4.1 0-8.1-0.2-12.2 0-0.4-0.2-0.6-0.6-0.6h-0.2c-2.5-0.4-2.6-0.4-2.5 2.1 0.1 4.4 0.3 8.9 0.4 13.3 0 1-0.2 1.3-1.3 1.2-2.7-0.3-2.7-0.2-2.7-3-0.1-6.8-0.3-13.6-0.2-20.4 0.1-4.2 0.5-8.5 0.1-12.7-0.1-0.6 0.1-0.8 0.7-0.8 3.4-0.1 3.4-0.1 3.4 3.3 0 3.7-0.1 7.4-0.2 11.1 0 1.5 0.1 1.6 1.6 1.3 1.7-0.3 1.8-0.3 1.8-2 0-4.1 0-8.2-0.1-12.3 0-1 0.2-1.1 1.1-1 2.9 0.2 2.8 0.2 3 3.1 0.5 5.8-0.3 11.4 0.1 17.1z" style="fill:#ffffff"/>
   <path id="path19" class="st0" d="m220.6 397.3v-3.1c0-0.7 0-1.3 1-1.1 0.7 0.1 1.4 0.1 2 0.1 0.9 0 1.1 0.4 1 1.2-0.2 1.4-0.6 2.8-0.5 4.3 0 0.5 0.1 1 0.3 1.5 0.3 0.6 0.8 1.2 1.6 0.9s1.4-0.6 1.5-1.6c0.2-3.7-1.5-6.6-3.6-9.4-1.3-1.6-2.7-3.1-3.4-5.2-1.2-3.8-1.4-7.6 0.1-11.4 0.6-1.5 1.5-2.6 2.6-3.7 1.2-1.1 2.5-1.1 3.9-0.6 3.1 1.1 4.3 2.2 4.3 5.5 0 1.7-0.1 3.4-0.3 5-0.1 0.6-0.2 0.7-0.8 0.7-3 0.1-3 0.2-3.5-2.9-0.1-1 0-2-0.4-3-0.2-0.4-0.4-0.9-0.8-0.9-0.5-0.1-0.8 0.4-0.9 0.8-0.8 2.4-0.9 4.8 0.3 7.1 1.3 2.4 2.7 4.7 4.1 7 1.2 2 1.8 4.2 1.7 6.6-0.1 2.2 0.1 4.4-0.6 6.5-0.4 1.1-1.1 2-1.9 2.9-2 2.2-6.1 1.8-7.2-1.8-0.3-1.6-0.1-3.5-0.5-5.4z" style="fill:#ffffff"/>
   <path id="path21" class="st0" d="m370.5 396.5v5.3c0 0.8 0.3 1 1 0.9l3-0.3c0.7-0.1 1 0.2 1 0.9 0 0.9 0 1.8 0.1 2.6 0.1 0.7-0.2 0.8-0.8 0.8-2.6 0.1-5.3-0.2-7.9-0.2-0.7 0-0.9-0.4-0.8-1 0.2-5.5-0.3-10.9-0.4-16.4-0.1-3.7 0.1-7.4 0.4-11.1 0.2-2.2 0.1-4.4 0-6.6 0-1.2 0.2-1.6 1.5-1.5 2.5 0.1 5.1 0.3 7.7 0.1 0.8-0.1 1 0.3 0.9 1-0.1 0.9-0.2 1.7-0.2 2.6s-0.4 1.1-1.2 1c-0.7-0.1-1.5 0-2.1-0.1-1.4-0.3-1.6 0.5-1.6 1.6-0.1 2.9-0.3 5.8-0.6 8.7-0.1 0.9 0.2 1.3 1.1 1.1 1.2-0.2 1.8 0.2 1.7 1.5 0 0.3 0.1 0.6 0.1 1 0 1.6 0.3 1.9-1.6 1.7-0.8-0.1-1.1 0.3-1.1 1.1 0 1.7 0 3.5-0.2 5.3z" style="fill:#ffffff"/>
   <path id="path23" class="st0" d="m286.1 382.4c1.5-3.8 2.8-7.7 3.5-11.8 0.2-1 0.5-1.3 1.4-1.1 2.5 0.4 2.6 0.4 1.9 2.8-1.1 3.8-2 7.5-2.9 11.3-0.5 2.1-0.9 4.1-1.4 6.2-0.4 1.8 0.2 3.7 0.2 5.6 0 3 0.2 6.1 0 9.1-0.1 1.1-0.4 1.5-1.6 1.4-2.4-0.1-2.3-0.1-2.3-2.5 0.1-4.5 0.1-9-0.4-13.5-0.4-2.9-1.1-5.8-1.9-8.6-1-3.7-1.9-7.5-2.9-11.2-0.2-0.6 0-0.8 0.6-0.8 0.9 0.1 1.8 0.2 2.7 0.2 0.6 0 0.6 0.4 0.8 0.9 0.8 3 0.8 6.2 1.6 9.2 0.3 1 0.5 1.9 0.7 2.8z" style="fill:#ffffff"/>
   <path id="path25" class="st0" d="m237.5 401.7c0.7-9 0.1-18.1 0.6-27.1 0-0.6-0.1-0.6-0.7-0.6-2.6-0.1-2.6-0.1-2.6-2.7 0-2 0-2 2-1.7 2.4 0.3 4.8 0.2 7.2 0.2 1.1 0 1.6 0.2 1.4 1.4-0.1 0.3 0 0.6 0 0.8 0 2.5-0.2 2.7-2.7 2.6-1.1 0-1.5 0.2-1.4 1.4 0.4 5.4 0.1 10.8 0.4 16.2 0.2 4.2 0.3 8.5 0.4 12.7 0 0.7-0.2 0.9-0.9 0.9-4-0.1-3.6 0.5-3.6-3.4-0.1-0.3-0.1-0.5-0.1-0.7z" style="fill:#ffffff"/>
   <path id="path27" class="st0" d="m392.4 405.5c-0.3-2-0.7-4.1-0.9-6.2-0.3-3.1-0.7-6.3-1.4-9.3-0.1-0.6-0.1-1 0.2-1.4 0.8-1.4 1.7-2.8 1.8-4.6 0.1-3 0.2-6 0-9-0.2-3.3-2.1-5.1-5.3-5h-4.8c-1.8 0-1.8 0-1.9 1.8v0.6c-0.1 5.4-0.5 10.8-0.3 15.6-0.2 5.6-0.1 10.7-0.3 15.8-0.1 2.6-0.1 2.6 2.5 2.6 1 0 1.3-0.3 1.3-1.3-0.2-4.7-0.1-9.4 0.2-14.1 0-0.5-0.2-1.2 0.7-1.2 0.7 0 1.5-0.2 1.7 1 0.2 1.5 0.5 2.9 0.7 4.4 0.3 2.7 0.5 5.5 0.9 8.2 0.5 3.3 0.7 3.4 4 3.2h0.1c0.7 0 0.9-0.3 0.8-1.1zm-4.9-21.2c-0.1 0.8-0.7 1.3-1.4 1.6-1.2 0.4-1.7 0-1.7-1.2v-4.8h0.2v-5.1c0-0.6 0.3-0.7 0.8-0.7 1.4 0.1 2.2 0.8 2.3 2.2 0.2 2.6 0.1 5.3-0.2 8z" style="fill:#ffffff"/>
   <path id="path29" class="st0" d="m259.7 387.5v-4.9c0-1.6-0.1-3.3-0.1-4.9-0.1-2.1-0.2-4.1-1.4-5.9-2.3-3.4-6.5-3.2-8.4 0.4-1 1.9-1.5 3.8-1.5 6 0 4.2 0.1 8.3-0.1 12.5-0.2 3.3-0.2 6.5-0.1 9.8 0 1.6 0.5 3 1.4 4.2 1.4 1.9 3.4 2.5 5.6 1.9 2.6-0.8 4.6-3.4 4.8-6.5 0.1-4.2 0.2-8.4-0.2-12.6zm-5 12.6c-0.2 0.7-0.7 1.2-1.4 1.2-0.8 0-0.7-0.8-0.8-1.3-0.4-1.8-0.3-3.6-0.4-5.4 0-6 0-12 0.3-18 0-0.7 0.1-1.4 0.2-2 0.1-0.7 0.5-1.1 1.2-1 0.8 0 0.8 0.7 0.8 1.2 0.2 4 0.1 8 0.3 12v11c0.1 0.8 0 1.6-0.2 2.3z" style="fill:#ffffff"/>
   <path id="path31" class="st0" d="m331.9 385.7c0-3.7 0.1-7.4 0.1-11 0-1.7-0.5-3.2-2-4.2-2.3-1.5-4.7-1.6-7-0.4-2.2 1.2-2.8 3.3-2.7 5.6 0.1 4 0.1 8 0.2 12 0.1 4.4 0.2 8.7 0.4 13.1 0 1.3 0.4 2.6 1.1 3.7 1.3 2.3 6.4 3.1 8 0 0.8-1.6 1.5-3.1 1.6-4.8 0.1-4.2 0.5-8.3 0.4-12.5-0.1-0.5-0.1-1-0.1-1.5zm-4.5-6.3c-0.2 5-0.4 10-0.3 15 0 1.7 0 3.4-0.1 5.1 0 0.5-0.2 0.9-0.4 1.4-0.3 0.5-0.7 0.6-1.2 0.6-0.6 0-0.7-0.5-0.8-0.9-0.3-1.7-0.6-3.4-0.4-5.1 0.5-6.3-0.1-12.5 0.4-18.8 0.1-0.6 0.1-1.3 0.2-1.9s0.4-0.9 1-0.9 1 0.2 1.2 0.8c0.5 1.4 0.5 3.1 0.4 4.7z" style="fill:#ffffff"/>
   <path id="path33" class="st0" d="m277.1 404.8c-0.9-4.8-1.6-9.7-2.8-14.5-0.3-1-0.2-1.9 0.7-2.7 0.8-0.8 1.4-1.8 1.6-2.9 0.5-3.5 0.7-6.9 0.1-10.4-0.4-2.4-1.9-4.1-4.4-4.7-2.2-0.5-4.5 0-6.7-0.4-0.7-0.1-0.7 0.5-0.7 1 0.2 6.1-0.3 12.2-0.5 18.3-0.2 5.2 0.6 10.4 0.5 15.6 0 1.8 0 1.7 1.7 2 0.9 0.2 1.3 0 1.3-1.1 0-2.8-0.4-5.7-0.1-8.5v-6.2c0-0.3-0.1-0.7 0.4-0.7 0.9 0 1.7-0.2 1.9 1.1 0.8 4.5 2.2 8.8 3 13.3 0.4 2.2 0.4 2.2 2.7 2.2 1.4 0.1 1.5 0 1.3-1.4zm-4.5-21.2c-0.1 1.3-2.3 2.1-3.3 1.4-0.3-0.2-0.2-0.6-0.2-0.9v-5-4.8c0-0.7 0-1.1 0.9-0.8 0.4 0.1 0.9 0 1.3 0.1 0.8 0.2 1.4 0.6 1.5 1.5 0.2 2.9 0.1 5.7-0.2 8.5z" style="fill:#ffffff"/>
   <path id="path35" class="st0" d="m362 373.2c-0.8-2.3-2.5-3.1-4.7-3.3-1.6-0.1-3.2 0-4.8-0.1-1-0.1-1.2 0.3-1.3 1.3-0.3 5.7-0.1 11.3-0.2 18.5 0 3.6-0.1 8.7 0 13.7 0.1 3.4 0 3.4 3.3 3.3 0.8 0 1-0.3 1.1-1.1 0.3-5 0.9-9.9 0.9-14.9 0-1.9 0-1.9 1.9-2.1 2.1-0.2 4.1-2.2 4.3-4.3l0.3-6.3c0.2-1.7-0.3-3.2-0.8-4.7zm-3.3 9.7c-0.1 0.8-0.4 1.5-1.2 1.8-1.3 0.5-1.8 0.2-1.9-1.2v-3.9h-0.1c0-1.3-0.1-2.6 0-4 0-0.5-0.4-1.3 0.6-1.4 1.5-0.1 2.3 0.2 2.4 1.3l0.3 2.7c0.2 1.6 0.2 3.1-0.1 4.7z" style="fill:#ffffff"/>
   <path id="path37" class="st0" d="m347.9 374.5c-0.2-3.2-2.1-4.9-5.4-5.1-0.8-0.1-1.7 0-2.5 0v-0.1h-2.6c-0.7 0-0.9 0.2-0.9 0.9 0 3.4-0.1 6.7-0.1 10.1 0.1 7.7-0.3 15.4-0.9 23.1-0.2 2.9-0.3 2.9 2.6 3.1h0.1c0.6 0.1 0.9-0.2 0.9-0.8 0-1.1 0.2-2.2 0.2-3.2-0.2-4.6 0.6-9.1 0.7-13.6 0-0.8 0.3-0.9 1.1-0.9 2.2 0 4.9-1.9 5.6-4 1-3.2 1.4-6.3 1.2-9.5zm-4 7.7c-0.3 1.2-2.1 2-3.2 1.5-0.3-0.2-0.3-0.5-0.3-0.7v-4.9-4.6c0-0.6 0.2-0.8 0.8-0.8 2.1 0.1 2.9 0.8 3.1 2.8 0.2 2.2 0.2 4.5-0.4 6.7z" style="fill:#ffffff"/>
  </g>
 </g>
 <g id="logo_2" transform="matrix(.92107 0 0 .92107 -193.8 -337.48)">
  <g id="g64">
   <path id="path42" class="st0" d="m311 396.6c-0.1-2.1-0.2-3.9-0.2-5.6 0-1.2-1.1-0.7-1.6-0.9s-0.8 0.3-0.8 0.9c0.1 4.3-0.4 8.5-0.4 12.8 0 0.6 0.2 1.4-0.5 1.6-1 0.3-2 0.8-3 0.3-0.5-0.3-0.5-0.9-0.5-1.4 0-2.5 0.3-5 0.2-7.5-0.3-4.2-0.3-8.5-0.6-12.7-0.3-4.6 0-9.3 0-13.9 0-0.6 0.3-1 0.8-1.1 1.1-0.3 2.1 0 3.2 0.2 0.5 0.1 0.3 0.7 0.4 1 0.2 4.6 0.7 9.2 0.4 13.9-0.1 1.1 0.8 0.9 1.4 1s1.2-0.1 1.2-1c-0.1-4 0.1-7.9 0.3-11.9 0.1-2.4 0.1-2.4 2.5-2.4 2.2 0 2.2 0 2 2.2-0.3 2.8-0.1 5.6-0.1 8.4 0.1 3.6-0.4 7.2-0.7 10.7-0.2 2.4 0.2 4.7 0.3 7.1 0.1 1.7 0.2 3.4 0.4 5.1 0.1 1-0.4 1.4-1.2 1.5-0.6 0.1-1.3 0.2-1.9 0.4-1 0.2-1.3-0.2-1.3-1.1-0.3-2.7-0.4-5.3-0.3-7.6z" style="fill:#ffffff"/>
   <path id="path44" class="st0" d="m226.1 375.4c-0.7 0.3-1 0.8-1.1 1.4-0.6 2.5 0 4.8 1.4 6.9 1.2 1.7 2.4 3.3 3.3 5.2 2.3 5.1 1.9 10.1-0.8 14.9-0.9 1.6-2.6 2.3-4.5 2.5-1.7 0.1-3.5-1.4-3.9-3.6-0.5-2.8-0.5-5.7-0.2-8.6 0.1-0.8 0.6-1.2 1.4-1.2 0.7 0 1.2-0.3 1.9-0.4 1.1-0.2 1.4 0.1 1.2 1.2-0.2 1.6-0.5 3.2-0.5 4.8 0 1 0 2 1.3 2.2 0.9 0.1 2-1.1 2.1-2.2 0-0.7 0-1.3-0.2-2-0.8-2.8-2-5.3-4.2-7.2-1.3-1.2-2.3-2.7-3.1-4.2-1.4-2.5-1.4-5.2-0.6-7.8 0.8-2.3 1.6-4.7 3.2-6.7 1.6-2.1 3.7-2.2 6.1-1.6 1.9 0.5 2.6 2.1 3 3.8 0.5 2.3 0.2 4.6 0 6.9-0.1 0.8-0.4 1.2-1.2 1.2h-3.1c-0.5 0-0.8-0.3-0.8-0.8-0.1-0.6-0.1-1.3-0.2-1.9-0.2-1-0.1-1.8-0.5-2.8z" style="fill:#ffffff"/>
   <path id="path46" class="st0" d="m370.8 395c0 1.9 0.1 3.8 0 5.6 0 1.1 0.4 1.2 1.3 1 0.8-0.2 1.7-0.1 2.5-0.1 0.7 0 1 0.3 1.1 1 0.3 1.6 0.1 3.1-0.1 4.7-0.1 0.8-0.7 0.7-1.2 0.6-2-0.2-4.1-0.3-6-0.8-0.2 0-0.4-0.1-0.6-0.1-2-0.2-2-0.2-2-2.2 0.3-10.1-0.2-20.2 0-30.3 0-1.2 0.1-2.4 0.2-3.6 0-0.7 0.5-1.1 1-0.8 1.1 0.5 2.1 0.1 3.2 0.2h4.4c1 0 1.6 0.4 1.6 1.6-0.1 0.9 0 1.8 0 2.6s-0.4 1.1-1.3 1-1.9-0.4-2.6-0.1c-0.7 0.4-0.3 1.6-0.4 2.4-0.3 2.3-0.7 4.7-0.7 7 0 0.6 0 0.8 0.7 0.9 1 0.1 1.7 0.6 1.6 1.8-0.1 0.8 0.1 1.6 0.1 2.4 0 1.1-0.3 1.4-1.3 1.1-1.2-0.4-1.4 0.1-1.3 1.1s0 2 0 3h-0.2z" style="fill:#ffffff"/>
   <path id="path48" class="st0" d="m286.3 381c1.1-1.7 1.5-3.6 2.1-5.5 0.5-1.6 0.9-3.2 1.3-4.9 0.2-0.8 0.6-1.1 1.4-1.1 2.4-0.2 2.8 0.3 2.5 2.7-0.7 4.9-1.8 9.7-3.4 14.4-0.7 2-0.8 4-0.8 6.1 0.1 3.8 0.2 7.5-0.1 11.3-0.2 2-0.5 2.3-2.5 2h-0.7c-1 0-1.4-0.4-1.4-1.5 0-3.8-0.2-7.6-0.3-11.4-0.1-3.1-1.2-6.1-1.8-9.1-0.7-3.5-1.5-7-2.3-10.5-0.2-0.9-0.3-1.9-1-2.7-0.2-0.3-0.3-0.6-0.1-0.9s0.5-0.3 0.8-0.1c1 0.4 2-0.1 3-0.1 0.9 0 1.4 0.3 1.6 1.3 0.6 3.3 1.2 6.6 1.7 10z" style="fill:#ffffff"/>
   <path id="path50" class="st0" d="m237.3 390.6c0.1-4.9-0.2-9.9-0.3-14.9 0-1-0.3-1.3-1.3-1.3-1.5 0.1-1.5 0-1.4-1.5 0-0.5 0.1-1 0.1-1.6 0-2 0.2-2.3 2.1-2.3 2.4 0 4.8 0.1 7.2 0.4 1.5 0.1 1.8 0.6 1.9 2.1v0.2c0 2.4 0.3 2.7-2.8 3.2-0.9 0.1-1.3 0.4-1.2 1.4 0.1 7.1 0.2 14.1 0.3 21.2 0.1 2.1 0.2 4.1 0.2 6.2 0 1.7-0.3 2-2.1 2h-1c-0.9 0-1.1-0.4-1.2-1.2-0.6-4.6-0.2-9.2-0.5-13.9z" style="fill:#ffffff"/>
   <path id="path52" class="st0" d="m391 393.1c-0.4-2.1-0.1-3.7 0.7-5.7 2-5 1.4-10.2-0.5-15.2-0.4-1-1.1-1.6-2-1.9-1.1-0.4-2.3-0.6-3.5-0.5-1.4 0.1-2.7 0.1-4.1 0-1.7-0.1-1.8-0.2-1.7 1.6 0.1 7.8 0.3 15.6 0.4 23.4 0.1 3.6 0 7.2-0.2 10.8 0 0.4-0.2 0.9 0.3 1.2 1.2 0.7 3.1-0.4 3.1-1.8v-6.4h0.3v-6.8c0-0.5 0.1-0.8 0.7-0.7 0.4 0 0.9-0.1 1 0.6 0 0.4 0.1 0.7 0.2 1.1 0.8 4.3 1.6 8.6 2.4 12.8 0.3 1.7 0.5 1.7 2.2 1.4 0.2-0.1 0.5-0.1 0.7-0.2 2-0.5 2.1-0.7 1.8-2.7-0.6-3.8-1-7.4-1.8-11zm-4-10c-0.1 0.3-0.2 0.7-0.4 1-0.4 0.5-1 1.1-1.6 0.9s-0.3-1.1-0.2-1.6c0.4-2.5 0.3-5.1 0.3-7.6 0-0.6-0.2-1.4 0.4-1.6 0.7-0.1 1.2 0.5 1.5 1.2 0.6 1.3 0.3 2.8 0.5 4-0.1 1.4-0.2 2.6-0.5 3.7z" style="fill:#ffffff"/>
   <path id="path54" class="st0" d="m260.4 391.5c0.1-4.5-0.6-8.9-0.7-13.4 0-2.5-0.4-4.8-2-6.9-1.2-1.5-3.8-2.4-5.3-1.4-2 1.4-3.5 3.4-4.3 5.7-0.5 1.7-0.7 3.4-0.7 5.2-0.1 6.5 0.4 13 1 19.5 0.1 1.6 0.3 3.4 1.7 4.6 2.9 2.6 7.4 1.6 8.8-2.2 1.3-3.6 1.6-7.3 1.5-11.1zm-6.2 9.5c0 0.2-0.1 0.4-0.2 0.6-0.2 0.4-0.4 0.9-0.9 0.8s-0.5-0.6-0.6-0.9c-0.2-1.7-0.4-3.5-0.3-5.3v-7.1c0.3-4.5 0.1-8.9 0.5-13.4 0-0.3 0-0.6 0.2-0.8 0.2-0.5 0.5-0.9 1.2-0.8 0.6 0.1 0.7 0.5 0.7 1.1 0 4 0.1 8 0 12 0 1.9 0 3.7 0.1 5.6 0.1 2.8-0.1 5.5-0.7 8.2z" style="fill:#ffffff"/>
   <path id="path56" class="st0" d="m332.1 375.6c-0.1-1.4-0.3-2.8-1.1-4.1-1.2-1.8-3.1-2-4.9-2.3-1.5-0.3-2.7 0-3.3 1.6-0.3 0.8-0.9 1.4-1.4 2.1-0.8 1.1-1.1 2.2-1.2 3.6-0.2 3.5 0 7 0.3 10.5 0.3 4.4 0.1 8.8 0 13.2-0.2 4.1 3.8 7.2 7.8 6.2 0.3-0.1 0.6-0.3 0.9-0.5 1.7-1.2 2.3-2.9 2.4-4.9 0.2-4.3-0.1-8.6 0.2-12.3 0.1-4.8 0.5-8.9 0.3-13.1zm-5 10.9c-0.3 2.4-0.2 4.8-0.3 7.2-0.1 2.2-0.2 4.5-0.9 6.6-0.1 0.3 0 0.7-0.4 0.7s-0.4-0.4-0.4-0.7c-0.1-4.6-0.6-9.2-0.5-13.8 0-3.2 0.1-6.4 0.5-9.6 0.1-0.5 0.1-1 0.3-1.4 0.1-0.4 0.2-0.9 0.8-0.8 0.6 0 1 0.3 1.2 0.8 0.1 0.2 0.1 0.5 0.1 0.7 0 3.4 0 6.8-0.4 10.3z" style="fill:#ffffff"/>
   <path id="path58" class="st0" d="m277.3 404.5c-0.5-4.4-1.4-8.7-2.3-13.1-0.2-1.2-0.4-2.2 0.4-3.4 1.3-1.7 1.8-3.7 1.6-5.8-0.2-2.2-0.2-4.4-0.6-6.6-0.2-1.7-0.7-3.4-2.3-4.5-2.4-1.5-5-2.1-7.9-1.8-1.1 0.1-1.6 0.6-1.6 1.8 0.1 9.7-0.3 19.5 0 29.2v6c0 0.4 0 0.8 0.5 1 0.9 0.4 2.2-0.4 2.3-1.4 0.1-1.6 0.2-3.1 0.2-4.7 0.1-3.6-0.2-7.2 0.2-10.8 0.1-0.7 0.4-0.8 0.9-0.9 0.6-0.1 0.7 0.3 0.8 0.8 0 0.9 0.2 1.8 0.5 2.7 1.4 3.3 2 6.7 2.6 10.2 0.5 2.6 0.5 2.7 3.1 2.6 1.6 0.3 1.8 0.1 1.6-1.3zm-5.5-21.3c-0.2 0.4-0.3 0.7-0.7 0.9-0.9 0.6-1.5 0.3-1.6-0.8v-4.4-3.9c0-0.4-0.3-1 0.3-1.1s1.2-0.1 1.6 0.5c0.3 0.4 0.6 0.9 0.7 1.5 0.7 2.4 0.7 4.9-0.3 7.3z" style="fill:#ffffff"/>
   <path id="path60" class="st0" d="m362.4 375c-1-3.9-2.5-5.2-6.5-5.3h-1.2c-0.9-0.1-1.8 0-2.7 0.1-0.6 0.1-0.9 0.3-0.9 0.9-0.1 1-0.2 1.9-0.2 2.9-0.1 6.4-0.2 12.9-0.2 19.3 0 1.9 0.2 3.8 0.1 5.7-0.2 2.3 0.1 4.6 0 6.9 0 0.4 0 0.9 0.4 1 1.1 0.3 2.3 0.1 3.4-0.2 0.9-0.3 0.8-1.1 0.8-1.8 0.1-0.6 0.1-1.3 0.2-1.9 0.5-3.8 0.7-7.7 0.9-11.6 0.1-1.4 0.6-2.2 2-2.6 1.6-0.4 2.9-1.4 3.3-3.1 1-3.4 1.4-6.8 0.6-10.3zm-4.3 7.9c-0.1 0.4-0.4 0.7-0.6 1-0.3 0.3-0.7 0.6-1 0.4-0.3-0.1-0.2-0.6-0.2-0.9-0.1-1.2-0.3-2.5-0.1-3.7 0.1-1.3 0-2.6-0.2-3.8-0.1-0.9 0.3-1 1-0.8 0.5 0.2 1 0.4 1.2 0.9 0.5 2.4 0.7 4.7-0.1 6.9z" style="fill:#ffffff"/>
   <path id="path62" class="st0" d="m346.2 371.6c-0.6-1.1-1.5-1.6-2.8-1.8-1.9-0.2-3.9-0.5-5.8-0.9-0.9-0.2-1.6 0.3-1.5 1.2 0.1 3.6-0.1 7.2-0.2 10.8s-0.1 7.1 0.2 10.7c0.4 4.2 0 8.5-0.4 12.7-0.2 1.9 0.4 2.4 2.3 2 0.6-0.1 1-0.5 1.1-1.1s0.2-1.2 0.2-1.8c0.2-4.1 0.4-8.1 0.6-12.2 0.1-1.3-0.1-2.8 1.9-2.8 0.1 0 0.1-0.1 0.2-0.1 2.5-1.8 4.4-3.9 5-7.1 0.3-1.7 0.4-3.3 0.5-4.3-0.1-2.4-0.5-3.9-1.3-5.3zm-3.8 9.8c-0.1 0.3-0.2 0.5-0.4 0.7s-0.5 0.5-0.8 0.4c-0.4-0.1-0.2-0.5-0.2-0.8v-2.7h0.1c-0.1-1.7-0.1-3.3-0.3-5-0.1-0.9 0.3-0.9 1-0.7 0.6 0.2 1 0.7 1 1.2 0.3 2.3 0.5 4.6-0.4 6.9z" style="fill:#ffffff"/>
  </g>
 </g>
 <g id="logo_3" transform="matrix(.92107 0 0 .92107 -193.8 -337.48)">
  <g id="g89">
   <path id="path67" class="st0" d="m308.4 397.2v6.8c0 0.8-0.2 1.4-1 1.7-1 0.3-2.1 0.6-3.1 0-0.4-0.2-0.3-0.7-0.4-1.1-0.2-4.7-0.3-9.4-0.5-14.1-0.2-3.4-0.2-6.9-0.2-10.3 0-3 0.1-6.1 0.3-9.1 0.1-1.9 0.3-2 2.1-2h0.2c2.8-0.1 2.9-0.1 2.6 2.8-0.4 4-0.1 7.9-0.2 11.9 0 1 0.3 1.3 1.3 1 1.8-0.5 1.8-0.4 1.9-2.3 0.2-3.6 0.1-7.2 0.1-10.8 0-0.6 0-1.1 0.1-1.7 0-0.2 0.1-0.5 0.2-0.7 0.2-0.3 2.9 0 3.5 0.3 0.6 0.4 0.4 0.9 0.4 1.5-0.2 1.6-0.3 3.3-0.3 4.9-0.1 7.2 0.1 14.3 0.4 21.5 0.1 2.2 0 4.4 0 6.6 0 1.3-2.7 2.9-3.9 2.4-0.5-0.2-0.6-0.8-0.6-1.2-0.4-2.2-0.3-4.4-0.3-6.6v-8.3c0-1.2-0.6-1.1-1.4-1.1-1-0.1-1 0.5-0.9 1.2-0.3 2.2-0.3 4.5-0.3 6.7z" style="fill:#ffffff"/>
   <path id="path69" class="st0" d="m226.4 373.9c-1.3 3-1.4 5.7-0.5 8.4 0.7 2 1.6 3.9 2.9 5.6 2.2 3 2.5 6.3 2.3 9.8-0.1 2.5-0.8 4.8-2.5 6.7-1.2 1.3-2.5 2.1-4.3 1.8-1.6-0.3-2.5-1.6-2.9-3.1-0.8-3-0.7-6.1-0.7-9.2 0-0.4 0.2-0.7 0.6-0.8 1-0.2 2.1-0.2 3.1 0 0.5 0.1 0.5 0.6 0.4 1.1-0.4 1.6-0.6 3.2-0.6 4.8 0 1.5 0.9 2.3 2.3 2.2 0.5 0 0.6-0.4 0.8-0.8 1.2-3.2 0.2-7.3-2.3-9.7-1.8-1.7-3.4-3.5-4.6-5.6-0.9-1.5-1.4-3.1-1.3-4.9 0.1-3.2 0.8-6.3 2.8-9 1.7-2.4 6.9-2.8 8.8-0.5 0.3 0.3 0.4 0.7 0.5 1.1 0.6 2.4 1 4.8 1 7.2 0 0.8-0.3 1.2-1 1.4h-0.1c-3.3 1-3.4 0.9-3.8-2.5-0.2-1.2-0.2-2.5-0.9-4z" style="fill:#ffffff"/>
   <path id="path71" class="st0" d="m366 388.1v-17.1c0-0.8 0.3-1.2 1.1-1.2 2.7 0.1 5.3 0.2 8-0.1 1.1-0.1 1.4 0.3 1.4 1.3 0 1.2 0 2.3-0.3 3.5-0.2 0.8-0.6 1.2-1.5 1.1-2.6-0.2-2.6-0.2-2.6 2.4 0 2.1-0.1 4.1-0.5 6.2-0.1 0.7-0.1 1.1 0.8 1.2 0.9 0 1.3 0.6 1.3 1.5v2c0 1.2-0.3 1.6-1.5 1.3-0.7-0.2-0.8 0-0.8 0.7 0 3.3 0.1 6.6 0.1 9.8 0 0.7 0.2 0.9 0.9 0.9h0.8c2.8 0.1 3.2 0.6 2.8 3.4-0.1 0.4-0.2 0.7-0.6 0.7-2.6 0.4-5.1 1-7.7 1-1.1 0-1.6-0.4-1.5-1.5 0.2-5.8-0.1-11.4-0.2-17.1z" style="fill:#ffffff"/>
   <path id="path73" class="st0" d="m286.7 380.4c0.7-2.4 1.4-4.7 2-7.1 0.2-0.9 0.5-1.8 0.9-2.6 0.6-1.3 2-1.8 3.2-1 0.5 0.3 0.6 0.6 0.4 1.1-1.9 6-2.1 12.3-4 18.3-0.9 2.7-0.6 5.7-0.5 8.6 0 2 0.1 3.9 0.1 5.9 0 1.7-2.7 3.1-4.2 2.3-0.4-0.2-0.4-0.6-0.4-1 0.1-1.3 0.1-2.6 0.3-3.9 0.5-3.5 0.3-6.9 0.1-10.4-0.1-2.3-1.1-4.4-1.7-6.6-1.1-4.4-2.3-8.9-3.4-13.3-0.2-0.9-0.1-1.4 1.1-1.3 1 0.1 2.1 0 3.1 0.2 1.1 0.2 1.7 0.8 1.8 1.9 0.4 3 0.7 6 1 9 0.1-0.2 0.1-0.2 0.2-0.1z" style="fill:#ffffff"/>
   <path id="path75" class="st0" d="m237.9 400.6c0.3-4.6 0.6-9.3 0.4-13.9-0.2-3.7-0.3-7.4-0.4-11.1 0-0.9-0.3-1.2-1.2-1.1-1.9 0.2-1.9 0.2-2-1.8 0-0.8-0.1-1.5-0.1-2.3 0-0.5 0-1 0.7-0.8 2.8 0.7 5.6 0.5 8.5 0.4 1.7 0 1.7-0.1 1.7 1.7v0.6c0 2.4-0.1 2.6-2.5 2.6-1.1 0-1.5 0.2-1.5 1.4 0.1 7.1 0 14.2 0 21.3 0 2 0.2 3.9 0.4 5.9 0.1 1.1-0.3 1.7-1.4 1.9-0.4 0-0.7 0.2-1.1 0.2-1.4 0.1-1.6 0-1.5-1.5 0.1-1.2 0-2.3 0-3.5z" style="fill:#ffffff"/>
   <path id="path77" class="st0" d="m392.9 404.5c-0.9-4.5-1.3-9-2.1-13.5-0.1-0.5-0.3-1.1 0-1.6 1.6-2.8 2.2-5.9 1.9-8.8v-3.3c0-1-0.2-2-0.3-3-0.2-2-1.4-3.6-3.2-4-2.7-0.6-5.4-0.2-8.1-0.5-0.8-0.1-1 0.6-1 1.3-0.3 7.1-0.7 14.3-0.6 21.4 0 1.2-0.2 2.3-0.2 3.5-0.2 2.9-0.5 5.9-0.2 8.9 0.2 1.6 0.5 1.9 2.1 1.6 0.3 0 0.5-0.2 0.8-0.2 1-0.1 1.3-0.6 1.3-1.5 0-1.2 0.2-2.4 0.1-3.6 0-3.3 0.4-6.6 0.7-9.9 0-0.3 0-0.6 0.4-0.7 0.4 0 0.6 0.1 0.7 0.5 0 0.2 0.1 0.5 0.2 0.7 0.7 4.1 1.8 8.1 2.8 12.1 0.7 2.9 0.5 2.7 3.4 2.3 1.3-0.2 1.6-0.5 1.3-1.7zm-6.1-20.9c-0.3 0.5-0.6 1.3-1.2 1.2-0.7-0.1-0.3-1-0.3-1.4 0-2.9-0.1-5.8 0.2-8.8 1.2 0 1.7 0.6 1.8 1.7 0.4 2.5 0.6 4.9-0.5 7.3z" style="fill:#ffffff"/>
   <path id="path79" class="st0" d="m332.6 394.1c-0.4-5.5-0.9-10.9-0.8-16.4 0-1.2 0.1-2.3 0-3.5-0.2-1.5-0.5-3-2.1-3.7-1.6-0.8-3.3-1.2-5.1-1.3-1.4 0-2.4 0.5-3.2 1.6-0.6 0.9-1.1 1.9-1.3 2.9-0.3 1.9-0.2 3.8 0 5.7 0.2 2.6 0.1 5.2 0.1 7.8s-0.1 5.1 0 7.7c0.1 2.7 0.3 5.4 1.1 8 0.3 1 0.8 1.8 1.7 2.4 3.5 2.2 7.8 0.9 8.8-3.1 0.8-2.6 1-5.3 0.8-8.1zm-5.4-3.6c-0.3 2.5-0.3 5.1-0.8 7.6-0.1 0.7-0.2 1.4-0.8 2.1-0.4-1.7-0.6-3.3-0.6-4.9 0-6.3-0.1-12.6 0.5-18.9 0.1-0.6 0-1.4 0.6-1.5 0.5-0.1 0.7 0.8 1 1.2s0.2 1 0.3 1.5c0.8 4.3 0.3 8.6-0.2 12.9z" style="fill:#ffffff"/>
   <path id="path81" class="st0" d="m259.8 379.2c0-2.2-0.5-4.3-1.3-6.4-0.3-0.8-0.8-1.5-1.5-2.1-2.6-2.2-5.2-1.8-6.9 1.1-0.7 1.2-1.2 2.6-1.4 4-0.8 5.2-1 10.5-1 15.8v3.1c0 2.7 0.1 5.4 0.7 8.1 0.9 3.9 5.7 4.7 8 3 1.3-1 2.1-2.2 2.4-3.8 0.5-3.3 1.2-6.6 1.3-10-0.1-4.2-0.2-8.5-0.3-12.8zm-4 2.5c-0.2 3.3 0 6.6-0.2 9.8-0.1 1.8-0.1 3.6-0.2 5.4-0.1 1.2-0.3 2.3-1.2 3.2-0.2 0.2-0.4 0.5-0.7 0.4-0.2-0.1-0.2-0.4-0.3-0.6-0.4-2.3-0.5-4.6-0.5-6.9v-5.5c0.1-3.6-0.1-7.1 0.2-10.7 0.1-0.6 0-1.1 0.4-1.6 0.2-0.3 0.2-0.9 0.7-0.9 0.5 0.1 0.9 0.4 1.1 1 0.6 2.1 0.8 4.3 0.7 6.4z" style="fill:#ffffff"/>
   <path id="path83" class="st0" d="m277.6 404.5c-1-4.6-2.2-9.2-2.9-13.9-0.1-0.8-0.3-1.6 0.4-2.3 0.6-0.6 0.9-1.5 1.1-2.4 0.7-3.7 1-7.4 0.3-11.1-0.8-4-2.4-5.4-6.5-5.7-1.2-0.1-2.4 0.1-3.6 0.2-1.7 0.2-1.7 0.1-1.7 1.8 0 5 0.1 10.1 0.2 15.1 0 2.7 0.3 5.4 0 8-0.3 2.9-0.5 5.8-0.6 8.7-0.1 2.7-0.1 2.8 2.6 2.5 0.8-0.1 1-0.4 1-1.1v-3.6c-0.1-2.9 0.3-5.8 0.5-8.7 0-0.6-0.5-1.7 0.7-1.9 1.1-0.1 1.1 1 1.3 1.7 1.3 4.6 3.1 9.2 4.1 13.9 0.1 0.5 0.1 1 0.7 1.1 1.7 0.6 2.8-0.4 2.4-2.3zm-5.2-22.1c-0.2 1.1-2.1 2.5-3.1 2.3-0.6-0.1-0.4-0.5-0.4-0.8-0.1-2.4-0.1-4.8 0.1-7.2 0-0.4 0-0.9 0.1-1.3 0.1-0.5-0.4-1.3 0.3-1.5 0.9-0.2 1.8-0.2 2.7 0.2 0.3 0.1 0.3 0.5 0.3 0.9 0.1 1.2 0.1 2.3 0.2 3.3-0.1 1.4 0.1 2.8-0.2 4.1z" style="fill:#ffffff"/>
   <path id="path85" class="st0" d="m362.9 375.7c-0.1-2.5-1.2-4.3-3.7-5.3-2.3-0.9-4.7-0.4-7-0.9-0.8-0.2-0.9 0.5-0.9 1.2v11c0.1 4.2 0.2 8.3-0.2 12.5-0.3 3.4-0.5 6.9-0.3 10.3 0.1 1.9 0.7 2.4 2.6 2.3s2.2-0.4 2.3-2.3c0.3-5 0.9-9.9 1.4-14.9 0.1-0.5 0.3-0.9 0.8-1 3-0.9 4.1-3.4 4.7-6.1 0.6-2.2 0.4-4.5 0.3-6.8zm-5 7.4c-0.1 0.3-0.3 0.6-0.6 0.8-0.4 0.2-0.9 0.5-1.4 0.3s-0.2-0.8-0.3-1.2v-2.4l0.3-6c0-0.3-0.1-0.7 0.4-0.8 0.4-0.1 0.9-0.2 1.2 0.2 0.1 0.1 0.1 0.2 0.2 0.3 1.1 3.1 1.3 5.9 0.2 8.8z" style="fill:#ffffff"/>
   <path id="path87" class="st0" d="m347.6 374.5c-0.1-2.4-1.8-4.3-4.2-4.9-1.7-0.4-3.4-0.5-5.1-0.5-1.6 0-1.9 0.3-2 1.9-0.1 4.2-0.5 8.5-0.1 12.7v22.1c0 0.3-0.1 0.6 0.3 0.8 1 0.6 2.8-0.3 2.9-1.4 0.4-5.2 0.8-10.3 1.2-15.5 0.1-1.1 0.2-1.8 1.5-1.5 0.3 0.1 0.6-0.1 0.9-0.2 3.2-1 4.1-3.6 4.4-6.5 0.4-2.4 0.3-4.7 0.2-7zm-4.2 6.1c-0.1 0.5-0.2 1-0.7 1.3s-1.1 0.8-1.6 0.5c-0.4-0.2-0.1-0.9-0.2-1.3v-2.9h0.1v-3.2c0-0.4-0.3-1.1 0.5-1.1 0.6 0 1.4-0.3 1.7 0.6 0.2 0.5 0.4 1 0.4 1.5 0.2 1.5 0.2 3.1-0.2 4.6z" style="fill:#ffffff"/>
  </g>
 </g>
 <style id="style92">#logo_1, #logo_2, #logo_3 {
	opacity: 0;
}	
#logo_1 {
  animation: logo1 0.3s linear infinite;
}
#logo_2 {
  animation: logo2 0.3s linear infinite;
}
#logo_3 {
  animation: logo3 0.3s linear infinite;
}
@keyframes logo1 {
  0%, 32.9% {
    opacity: 1;
  }
  33%, 66.9%{
    opacity: 0;
  }
  67%, 100% {
    opacity: 0;
  }
}
@keyframes logo2 {
  0%, 32.9% {
    opacity: 0;
  }
  33%, 66.9%{
    opacity: 1;
  }
  67%, 100% {
    opacity: 0;
  }
}
@keyframes logo3 {
  0%, 32% {
    opacity: 0;
  }
  33%, 66%{
    opacity: 0;
  }
  67%, 100% {
    opacity: 1;
  }
}</style>
</svg>
