<?xml version="1.0" encoding="utf-8"?>
<!-- Generator: Adobe Illustrator 16.0.3, SVG Export Plug-In . SVG Version: 6.00 Build 0)  -->
<!DOCTYPE svg PUBLIC "-//W3C//DTD SVG 1.1//EN" "http://www.w3.org/Graphics/SVG/1.1/DTD/svg11.dtd">
<svg version="1.1" id="Layer_1" xmlns:sketch="http://www.bohemiancoding.com/sketch/ns"
	 xmlns="http://www.w3.org/2000/svg" xmlns:xlink="http://www.w3.org/1999/xlink" x="0px" y="0px" width="475px" height="70px"
	 viewBox="0 0 475 70" enable-background="new 0 0 475 70" xml:space="preserve">
<title>watch-stories</title>
<desc>Created with Sketch.</desc>
<g id="_x32_NyePJ_1_">
	<g>
		<path d="M305.149,26.619c-3.039,2.85-6.027,5.375-8.683,8.215c-2.749,2.937-6.053,2.094-8.123,0.328
			c-1.71-1.458-2.807-3.312-3.545-5.401c-0.216-0.607-0.401-1.224-0.675-2.066c-1.086,2.167-2.104,4.122-3.05,6.113
			c-1.57,3.302-3.028,6.659-4.656,9.934c-1.01,2.028-2.646,3.6-4.603,4.706c-1.995,1.132-4.081,2.137-6.211,2.993
			c-1.108,0.446-2.393,0.623-3.599,0.634c-3.016,0.021-4.933-1.854-5.021-4.896c-0.048-1.678,0.143-3.364,0.248-5.046
			c0.03-0.525,0.134-1.048-0.008-1.672c-0.165,0.231-0.379,0.443-0.49,0.698c-1.765,4.054-5.039,6.492-8.895,8.283
			c-1.85,0.855-3.818,1.192-5.882,1.107c-3.062-0.124-5.313-2.283-4.771-5.269c0.589-3.257,1.663-6.436,2.659-9.604
			c0.893-2.852,1.966-5.645,2.752-8.637c-0.448,0.522-0.991,0.989-1.325,1.576c-1.716,3.005-4.244,5.191-6.989,7.196
			c-1.17,0.854-2.176,1.855-3.055,3.088c-3.06,4.29-6.871,7.894-11.277,10.757c-2.979,1.938-6.413,2.521-9.959,2.011
			c-2.679-0.385-4.283-2.095-5.236-4.517c-0.177-0.45-0.341-0.903-0.554-1.469c-1.979,1.213-3.854,2.396-5.763,3.521
			c-1.167,0.687-2.334,1.415-3.588,1.901c-3.048,1.176-5.347-0.411-5.507-3.67c-0.174-3.539,0.808-6.833,2.134-10.048
			c1.428-3.457,2.895-6.896,4.342-10.345c0.096-0.227,0.178-0.461,0.242-0.699c0.665-2.497,0.088-3.168-2.46-2.943
			c-3.757,0.331-6.856,2.123-9.775,4.333c-0.688,0.521-1.339,1.105-2.077,1.545c-3.979,2.368-5.939,6.195-7.692,10.256
			c-1.365,3.161-2.996,6.208-4.529,9.297c-0.378,0.76-0.964,1.334-1.875,0.894c-0.913-0.44-0.785-1.295-0.495-2.047
			c1.018-2.647,2.138-5.257,3.115-7.919c1.441-3.934,2.809-7.895,4.163-11.861c0.193-0.564,0.184-1.215,0.188-1.825
			c0.013-2.258-0.27-2.538-2.425-1.738c-1.404,0.522-2.674,1.414-3.988,2.168c-1.032,0.593-2.006,1.29-3.067,1.82
			c-0.877,0.436-1.709,0.22-2.217-0.693c-0.438-0.786-0.044-1.826,0.782-1.799c1.355,0.048,2.196-0.799,3.162-1.45
			c1.917-1.292,3.823-2.569,6.217-2.825c2.605-0.279,3.679,0.518,3.97,3.124c0.098,0.894,0.117,1.814,0.024,2.708
			c-0.091,0.88-0.369,1.742-0.587,2.709c2.663-1.976,5.184-3.944,7.808-5.767c3.244-2.254,6.838-3.558,10.85-3.502
			c2.062,0.028,3.317,1.275,3.533,3.333c0.294,2.791-1.1,5.089-2.052,7.521c-1.405,3.594-2.921,7.148-4.177,10.793
			c-0.508,1.479-0.566,3.146-0.624,4.735c-0.057,1.596,0.788,2.184,2.212,1.491c1.991-0.968,3.881-2.146,5.793-3.269
			c1.418-0.83,3.186-1.434,4.095-2.658c0.871-1.173,0.737-3.047,1.214-4.562c2.365-7.507,6.631-13.607,13.323-17.932
			c2.355-1.522,4.728-2.804,7.65-2.692c2.326,0.089,3.284,0.938,3.104,3.279c-0.313,4.1-1.936,7.651-5.064,10.372
			c-5.145,4.473-10.073,9.249-16.298,12.289c-1.146,0.562-1.262,1.332-0.893,2.412c0.796,2.331,1.971,3.229,4.449,3.357
			c3.598,0.189,6.789-0.94,9.398-3.335c2.868-2.637,5.88-5.238,8.168-8.344c1.996-2.708,4.904-4.146,7.083-6.491
			c0.696-0.748,1.349-1.533,2.018-2.304c2.121-2.439,4.218-4.902,6.377-7.304c0.567-0.632,1.383-1.001,2.208-0.373
			c0.782,0.596,0.513,1.408,0.251,2.15c-2.01,5.701-4.064,11.384-6.028,17.1c-0.559,1.623-0.977,3.318-1.239,5.014
			c-0.247,1.594,0.719,2.53,2.342,2.625c2.984,0.177,5.505-0.964,7.924-2.591c2.937-1.977,4.442-4.971,6.039-7.938
			c2.394-4.451,4.839-8.872,7.264-13.307c0.079-0.142,0.159-0.288,0.245-0.427c0.45-0.724,1.083-1.061,1.875-0.641
			c0.74,0.392,0.851,1.099,0.528,1.816c-0.776,1.724-1.613,3.422-2.396,5.14c-2.375,5.213-3.996,10.618-4.046,16.401
			c-0.02,2.377,1.002,3.311,3.344,3.152c0.164-0.012,0.339-0.005,0.488-0.061c3.719-1.414,7.667-2.576,10.162-5.917
			c1.431-1.918,2.363-4.224,3.416-6.402c1.896-3.922,3.751-7.866,5.548-11.834c0.657-1.451,1.174-2.976,1.622-4.506
			c0.363-1.246,0.842-1.767,1.784-1.539c0.96,0.232,1.398,1.106,1.161,2.246c-0.223,1.069-0.595,2.149-0.574,3.219
			c0.054,2.688,0.795,5.23,2.552,7.315c0.688,0.816,1.672,1.436,2.623,1.96c0.799,0.44,1.682,0.28,2.395-0.399
			c2.767-2.638,5.561-5.25,8.289-7.93c0.561-0.55,0.825-1.392,1.337-2.007c0.362-0.437,0.87-0.877,1.393-1.006
			c0.318-0.08,0.935,0.333,1.155,0.688c1.146,1.842,2.203,3.739,3.295,5.616c3.375,5.805,3.655,11.816,1.264,18.035
			c-1.191,3.099-3.318,4.998-6.685,5.179c-2.829,0.15-5.669,0.118-8.506,0.132c-0.395,0.001-0.812-0.146-1.182-0.309
			c-0.713-0.312-1.158-0.852-0.875-1.664c0.269-0.766,0.911-0.725,1.628-0.718c3.192,0.032,6.392,0.066,9.581-0.082
			c1.593-0.075,2.701-1.164,3.34-2.61c2.095-4.724,2.516-9.538,0.41-14.354C307.481,30.603,306.248,28.654,305.149,26.619z
			 M207.049,41.014c0.59-0.293,0.876-0.432,1.159-0.577c5.689-2.906,10.058-7.509,14.824-11.593c2.119-1.814,3.039-4.36,3.624-7.008
			c0.352-1.595,0.093-1.926-1.475-1.691c-1.157,0.175-2.362,0.486-3.38,1.041c-6.678,3.646-11.163,9.205-13.82,16.275
			C207.586,38.514,207.402,39.646,207.049,41.014z"/>
	</g>
</g>
</svg>
