<?xml version="1.0" encoding="utf-8"?>
<!-- Generator: Adobe Illustrator 16.0.3, SVG Export Plug-In . SVG Version: 6.00 Build 0)  -->
<!DOCTYPE svg PUBLIC "-//W3C//DTD SVG 1.1//EN" "http://www.w3.org/Graphics/SVG/1.1/DTD/svg11.dtd">
<svg version="1.1" id="Layer_1" xmlns:sketch="http://www.bohemiancoding.com/sketch/ns"
	 xmlns="http://www.w3.org/2000/svg" xmlns:xlink="http://www.w3.org/1999/xlink" x="0px" y="0px" width="475px" height="70px"
	 viewBox="0 0 475 70" enable-background="new 0 0 475 70" xml:space="preserve">
<title>watch-stories</title>
<desc>Created with Sketch.</desc>
<g id="_x32_NyePJ_1_">
	<g>
		<path fill-rule="evenodd" clip-rule="evenodd" d="M334.64,22.963c-4.363,4.091-8.654,7.718-12.467,11.797
			c-3.947,4.217-8.693,3.005-11.666,0.47c-2.455-2.094-4.029-4.755-5.09-7.756c-0.309-0.871-0.576-1.757-0.967-2.966
			c-1.559,3.112-3.023,5.919-4.381,8.777c-2.254,4.742-4.348,9.562-6.686,14.266c-1.451,2.912-3.799,5.168-6.607,6.758
			c-2.867,1.623-5.861,3.066-8.92,4.297c-1.592,0.641-3.436,0.895-5.168,0.91c-4.33,0.031-7.082-2.662-7.209-7.029
			c-0.07-2.41,0.203-4.832,0.354-7.246c0.045-0.754,0.193-1.504-0.01-2.402c-0.238,0.334-0.545,0.637-0.705,1.004
			c-2.533,5.82-7.234,9.322-12.771,11.893c-2.656,1.23-5.482,1.713-8.447,1.592c-4.396-0.18-7.629-3.279-6.85-7.566
			c0.848-4.676,2.389-9.24,3.818-13.792c1.283-4.093,2.824-8.105,3.953-12.4c-0.643,0.749-1.424,1.419-1.904,2.262
			c-2.463,4.315-6.093,7.455-10.035,10.334c-1.681,1.227-3.125,2.664-4.386,4.432c-4.394,6.161-9.866,11.335-16.193,15.448
			c-4.278,2.783-9.209,3.617-14.3,2.887c-3.847-0.553-6.15-3.008-7.519-6.488c-0.254-0.645-0.49-1.297-0.795-2.107
			c-2.843,1.742-5.535,3.441-8.276,5.057c-1.674,0.986-3.351,2.033-5.152,2.729c-4.377,1.688-7.678-0.59-7.908-5.268
			c-0.25-5.082,1.159-9.812,3.064-14.429c2.05-4.964,4.157-9.902,6.235-14.855c0.137-0.326,0.255-0.663,0.346-1.004
			c0.954-3.584,0.127-4.549-3.532-4.226c-5.394,0.476-9.845,3.049-14.036,6.222c-0.988,0.749-1.923,1.587-2.982,2.219
			c-5.713,3.4-8.529,8.896-11.046,14.726c-1.96,4.541-4.302,8.916-6.503,13.35c-0.542,1.092-1.385,1.916-2.692,1.283
			c-1.31-0.631-1.127-1.857-0.71-2.939c1.461-3.801,3.07-7.547,4.472-11.369c2.07-5.649,4.033-11.338,5.979-17.032
			c0.277-0.811,0.264-1.745,0.269-2.621c0.019-3.243-0.387-3.644-3.482-2.496c-2.017,0.75-3.839,2.031-5.727,3.113
			c-1.481,0.851-2.881,1.853-4.404,2.613c-1.259,0.627-2.454,0.317-3.184-0.994c-0.629-1.129-0.063-2.623,1.122-2.583
			c1.946,0.069,3.154-1.148,4.541-2.083c2.752-1.856,5.49-3.689,8.928-4.056c3.741-0.4,5.283,0.743,5.699,4.485
			c0.143,1.284,0.169,2.605,0.035,3.888c-0.13,1.264-0.53,2.501-0.843,3.89c3.823-2.837,7.444-5.662,11.211-8.28
			c4.658-3.236,9.819-5.108,15.58-5.029c2.962,0.041,4.763,1.831,5.074,4.786c0.421,4.008-1.58,7.308-2.947,10.798
			c-2.019,5.161-4.196,10.265-5.998,15.499c-0.73,2.123-0.814,4.518-0.896,6.799c-0.082,2.291,1.131,3.137,3.177,2.143
			c2.858-1.389,5.572-3.082,8.319-4.693c2.036-1.193,4.573-2.059,5.88-3.818c1.25-1.684,1.059-4.375,1.743-6.551
			c3.396-10.781,9.522-19.54,19.13-25.749c3.383-2.186,6.79-4.027,10.985-3.866c3.341,0.128,4.716,1.347,4.458,4.709
			c-0.451,5.886-2.78,10.987-7.272,14.893c-7.388,6.422-14.466,13.282-23.403,17.646c-1.646,0.805-1.813,1.912-1.283,3.465
			c1.143,3.344,2.83,4.635,6.387,4.82c5.166,0.271,9.75-1.35,13.496-4.791c4.118-3.785,8.444-7.521,11.729-11.98
			c2.866-3.889,7.042-5.954,10.172-9.32c0.999-1.073,1.937-2.202,2.897-3.309c3.045-3.502,6.055-7.038,9.156-10.488
			c0.816-0.908,1.986-1.437,3.17-0.535c1.123,0.855,0.738,2.021,0.361,3.088c-2.885,8.186-5.836,16.346-8.656,24.554
			c-0.801,2.33-1.402,4.764-1.779,7.199c-0.355,2.289,1.031,3.635,3.363,3.77c4.285,0.252,7.904-1.385,11.377-3.721
			c4.217-2.838,6.379-7.137,8.672-11.4c3.438-6.391,6.949-12.739,10.43-19.107c0.113-0.205,0.227-0.413,0.352-0.614
			c0.646-1.039,1.555-1.523,2.693-0.92c1.062,0.562,1.221,1.578,0.758,2.608c-1.115,2.475-2.316,4.913-3.441,7.381
			c-3.41,7.485-5.738,15.246-5.809,23.551c-0.027,3.412,1.438,4.754,4.801,4.527c0.236-0.018,0.486-0.008,0.701-0.088
			c5.34-2.031,11.008-3.699,14.592-8.498c2.055-2.752,3.393-6.061,4.906-9.191c2.723-5.632,5.387-11.296,7.967-16.994
			c0.943-2.083,1.684-4.273,2.328-6.47c0.523-1.789,1.209-2.537,2.562-2.21c1.379,0.333,2.008,1.589,1.668,3.225
			c-0.32,1.534-0.855,3.086-0.826,4.622c0.078,3.861,1.143,7.51,3.666,10.504c0.988,1.172,2.4,2.062,3.766,2.815
			c1.146,0.632,2.414,0.401,3.438-0.572c3.973-3.789,7.984-7.54,11.902-11.387c0.805-0.79,1.186-1.999,1.92-2.882
			c0.521-0.626,1.25-1.26,2-1.445c0.457-0.115,1.342,0.479,1.66,0.988c1.645,2.646,3.164,5.369,4.732,8.065
			c4.846,8.335,5.248,16.968,1.814,25.897c-1.711,4.449-4.766,7.176-9.6,7.436c-4.062,0.217-8.141,0.17-12.213,0.189
			c-0.566,0.002-1.166-0.211-1.697-0.443c-1.025-0.447-1.664-1.223-1.256-2.389c0.385-1.1,1.307-1.041,2.338-1.031
			c4.584,0.047,9.178,0.096,13.756-0.117c2.287-0.107,3.879-1.672,4.797-3.748c3.006-6.783,3.613-13.698,0.588-20.612
			C337.99,28.682,336.218,25.884,334.64,22.963z M193.775,43.631c0.846-0.42,1.257-0.619,1.664-0.828
			c8.169-4.172,14.441-10.783,21.286-16.647c3.042-2.605,4.364-6.26,5.203-10.062c0.506-2.291,0.134-2.767-2.117-2.429
			c-1.661,0.25-3.393,0.698-4.854,1.494c-9.59,5.235-16.028,13.217-19.843,23.37C194.545,40.042,194.281,41.668,193.775,43.631z"/>
	</g>
</g>
</svg>
