<?xml version="1.0" encoding="UTF-8" standalone="no"?>
<svg width="581px" height="98px" viewBox="0 0 581 98" version="1.1" xmlns="http://www.w3.org/2000/svg" xmlns:xlink="http://www.w3.org/1999/xlink" xmlns:sketch="http://www.bohemiancoding.com/sketch/ns">
    <!-- Generator: Sketch 3.3.3 (12072) - http://www.bohemiancoding.com/sketch -->
    <title>share-your-story</title>
    <desc>Created with Sketch.</desc>
    <defs></defs>
    <g id="Page-1" stroke="none" stroke-width="1" fill="none" fill-rule="evenodd" sketch:type="MSPage">
        <g id="share-your-story" sketch:type="MSLayerGroup">
            <path d="M362.594,58.272 C369.535,52.86 373.914,45.945 377.092,37.9 C376.53,37.9 376.071,37.911 375.613,37.898 C374.246,37.858 372.876,37.849 371.511,37.748 C370.726,37.689 370.215,37.094 370.314,36.469 C370.42,35.795 370.846,35.401 371.543,35.373 C372.034,35.353 372.528,35.391 373.021,35.38 C374.498,35.349 375.973,35.32 377.449,35.262 C378.263,35.231 378.83,34.879 379.25,34.095 C381.6,29.707 384.007,25.352 386.393,20.983 C386.523,20.744 386.614,20.481 386.752,20.247 C387.231,19.438 387.839,19.167 388.496,19.448 C389.16,19.734 389.404,20.325 389.186,21.255 C389.074,21.733 388.909,22.2 388.732,22.659 C387.517,25.825 386.293,28.987 385.072,32.15 C384.879,32.649 384.691,33.151 384.404,33.909 C385.441,33.811 386.241,33.733 387.042,33.661 C387.914,33.583 388.785,33.49 389.659,33.438 C390.342,33.399 390.829,33.695 390.972,34.404 C391.106,35.071 390.749,35.596 389.935,35.817 C389.413,35.959 388.858,35.985 388.317,36.049 C386.959,36.211 385.601,36.367 384.242,36.52 C383.568,36.595 383.162,36.926 383.004,37.617 C382.115,41.507 380.983,45.357 380.379,49.29 C379.916,52.295 379.9,55.417 380.103,58.458 C380.215,60.128 381.116,61.774 381.809,63.365 C382.173,64.201 383.172,64.359 384.444,63.933 C386.243,63.33 387.825,62.384 388.912,60.76 C390.19,58.85 391.433,56.914 392.763,55.039 C394.183,53.036 395.681,51.088 397.152,49.121 C399.052,46.579 400.936,44.025 402.875,41.514 C403.676,40.477 404.554,39.49 405.48,38.565 C406.738,37.307 408.227,36.373 409.998,36.025 C413.431,35.351 414.779,35.984 417.026,38.855 C417.646,39.647 418.242,40.156 419.209,40.364 C424.5,41.506 429.553,40.69 434.404,38.466 C435.271,38.068 435.992,37.325 436.728,36.684 C437.203,36.273 437.642,35.874 438.316,36.052 C439.015,36.238 439.154,36.81 439.273,37.434 C439.383,38.019 439.515,38.628 439.789,39.148 C440.798,41.076 442.928,41.511 445.072,40.738 C445.679,40.519 446.213,40.096 446.781,39.769 C447.444,39.387 448.103,38.997 448.775,38.63 C449.328,38.329 449.849,38.441 450.267,38.886 C450.695,39.339 450.726,39.862 450.384,40.388 C450.087,40.847 449.738,41.277 449.478,41.755 C447.124,46.078 444.807,50.421 443.057,55.035 C441.883,58.128 442.043,61.347 442.138,64.802 C442.849,64.694 443.461,64.728 443.95,64.497 C444.682,64.153 445.425,63.72 445.994,63.154 C447.854,61.301 449.695,59.424 451.438,57.462 C453.764,54.845 455.993,52.14 458.263,49.472 C458.654,49.014 459.119,48.603 459.43,48.096 C461.67,44.435 464.703,41.401 467.337,38.052 C467.573,37.751 467.803,37.441 468.065,37.163 C468.532,36.671 469.126,36.527 469.708,36.86 C470.291,37.193 470.481,37.771 470.247,38.424 C469.673,40.018 469.165,41.642 468.483,43.19 C466.881,46.823 465.892,50.635 465.299,54.53 C465.049,56.165 465.166,57.935 465.5,59.565 C466.094,62.461 470.174,63.586 472.283,61.56 C474.373,59.553 476.481,57.586 477.937,54.999 C478.705,53.633 479.876,52.496 480.849,51.242 C482.132,49.589 483.126,47.777 483.892,45.824 C484.67,43.838 485.534,41.886 486.371,39.925 C486.498,39.627 486.617,39.232 486.86,39.098 C487.254,38.882 487.82,38.651 488.177,38.786 C488.535,38.922 488.928,39.49 488.945,39.883 C488.966,40.451 488.725,41.059 488.49,41.605 C486.396,46.477 484.508,51.432 482.029,56.143 C480.617,58.827 479.678,61.76 478.527,64.581 C478.648,64.663 478.768,64.744 478.889,64.825 C480.882,62.788 482.956,60.82 484.849,58.692 C486.89,56.397 488.964,54.155 491.361,52.225 C492.453,51.346 492.886,51.403 494.025,52.777 C493.37,53.504 492.713,54.28 492.004,55.006 C490.328,56.727 488.588,58.387 486.943,60.137 C483.685,63.606 480.429,67.069 476.771,70.13 C476.293,70.529 475.912,71.119 475.659,71.697 C473.99,75.504 472.433,79.36 470.707,83.139 C469.825,85.07 468.68,86.881 467.635,88.737 C466.83,90.167 465.94,91.55 465.192,93.009 C464.079,95.186 462.337,96.425 459.945,96.753 C458.808,96.908 457.66,97.005 456.514,97.056 C455.337,97.107 454.46,96.558 453.709,95.636 C452.053,93.607 451.75,91.472 452.787,89.053 C453.822,86.636 455.308,84.544 457.247,82.829 C460.812,79.673 464.457,76.609 468.11,73.556 C469.788,72.152 471.58,70.886 473.281,69.508 C473.773,69.111 474.277,68.605 474.515,68.038 C475.491,65.721 476.369,63.362 477.271,61.015 C477.324,60.878 477.278,60.703 477.278,60.241 C476.213,61.249 475.205,62.002 474.446,62.953 C471.413,66.756 466.152,64.996 463.98,62.318 C462.865,60.943 462.695,59.197 462.621,57.498 C462.505,54.791 463.066,52.166 463.767,49.568 C464.176,48.051 464.579,46.534 464.786,44.914 C464.588,45.15 464.35,45.363 464.196,45.624 C462.012,49.334 459.003,52.395 456.247,55.646 C453.737,58.607 451.104,61.47 448.405,64.259 C447.399,65.298 446.107,66.107 444.835,66.823 C444.169,67.198 443.261,67.284 442.468,67.262 C440.755,67.213 439.654,66.207 439.591,64.5 C439.452,60.662 439.46,56.816 441.095,53.213 C442.337,50.477 443.638,47.766 444.906,45.041 C445.134,44.553 445.329,44.05 445.624,43.353 C441.947,44.08 439.051,43.251 437.262,39.816 C431.377,42.994 425.217,44.121 418.559,42.807 C418.307,45.093 418.007,47.296 417.83,49.511 C417.379,55.129 415.004,59.696 410.407,62.986 C409.275,63.797 407.928,64.419 406.585,64.797 C401.888,66.119 397.559,62.759 396.996,59.328 C396.726,57.685 396.971,55.959 396.998,54.27 C397.002,54.006 397.088,53.744 396.883,53.326 C396.529,53.822 396.162,54.31 395.824,54.818 C394.219,57.234 392.623,59.656 391.022,62.074 C389.529,64.33 387.383,65.67 384.832,66.396 C382.141,67.162 380.371,66.359 379.201,63.834 C378.064,61.383 377.369,58.875 377.422,56.088 C377.522,50.908 378.154,45.838 379.554,40.858 C379.832,39.867 380.074,38.865 380.117,37.776 C379.853,38.274 379.576,38.766 379.329,39.272 C378.249,41.484 377.203,43.713 376.098,45.913 C374.088,49.912 371.426,53.44 368.23,56.562 C366.704,58.053 365.151,59.524 363.536,60.918 C360.472,63.559 356.979,65.406 353.056,66.464 C351.082,66.996 349.284,66.867 347.588,65.66 C346.741,65.056 345.821,64.557 344.989,63.937 C344.617,63.661 344.3,63.241 344.1,62.818 C343.81,62.205 344.012,61.604 344.572,61.232 C345.147,60.85 345.709,60.98 346.19,61.488 C346.488,61.803 346.822,62.084 347.132,62.387 C349.848,65.044 352.786,64.283 355.759,62.945 C355.956,62.855 356.173,62.751 356.309,62.591 C358.468,60.054 360.752,57.641 360.785,53.933 C360.826,49.167 360.204,44.552 358.456,40.106 C358.356,39.853 358.261,39.596 358.144,39.351 C358.1,39.257 358.001,39.19 357.867,39.046 C357.523,39.476 357.191,39.898 356.853,40.314 C355.557,41.914 353.998,43.185 352.115,44.027 C351.261,44.409 350.379,44.699 349.416,44.386 C348.758,44.173 348.387,43.759 348.459,43.056 C348.524,42.431 348.914,42.09 349.533,42.002 C353.381,41.46 355.334,38.858 356.58,35.5 C356.693,35.194 356.642,34.786 356.832,34.562 C357.121,34.218 357.545,33.789 357.926,33.773 C358.305,33.758 358.941,34.131 359.054,34.47 C360.504,38.816 362.5,42.998 362.964,47.641 C363.264,50.642 363.55,53.636 362.965,56.633 C362.87,57.104 362.754,57.567 362.594,58.272 L362.594,58.272 Z M399.246,57.188 C398.649,61.078 403.356,63.83 407.058,62.048 C407.744,61.717 408.441,61.372 409.046,60.919 C412.746,58.152 414.856,54.48 415.266,49.849 C415.387,48.49 415.621,47.14 415.745,45.78 C415.839,44.748 415.876,43.707 415.857,42.671 C415.851,42.335 415.655,41.946 415.428,41.681 C414.799,40.94 414.139,40.219 413.43,39.555 C412.944,39.098 412.504,38.425 411.618,38.858 C409.454,39.915 407.223,40.883 405.75,42.915 C404.435,44.728 403.104,46.539 401.929,48.443 C400.358,50.983 399.409,53.762 399.246,57.188 L399.246,57.188 Z M471.807,73.898 C471.485,74.084 471.33,74.144 471.21,74.245 C467.518,77.32 463.805,80.37 460.154,83.494 C459.04,84.447 457.968,85.509 457.117,86.693 C456.206,87.961 455.41,89.37 454.863,90.83 C454.084,92.908 455.521,94.674 457.695,94.532 C458.238,94.497 458.773,94.358 459.316,94.314 C461.121,94.166 462.316,93.226 463.126,91.626 C463.839,90.216 464.599,88.813 465.489,87.511 C468.228,83.505 469.806,78.95 471.736,74.562 C471.796,74.426 471.772,74.254 471.807,73.898 L471.807,73.898 Z" id="Shape" fill="#000000" sketch:type="MSShapeGroup"></path>
            <path d="M131.867,56.855 C130.287,58.291 128.96,59.582 127.542,60.765 C125.698,62.306 123.813,63.8 121.883,65.233 C121.24,65.711 120.435,66.015 119.659,66.259 C116.765,67.167 114.43,65.588 114.269,62.575 C114.205,61.382 114.309,60.167 114.461,58.977 C114.958,55.094 116.284,51.438 117.624,47.789 C118.356,45.795 119.106,43.809 119.893,41.697 C117.114,41.885 114.129,43.22 112.318,39.696 C111.249,40.791 110.43,41.917 109.73,43.129 C107.091,47.699 103.991,51.916 100.349,55.748 C99.187,56.97 98.29,58.438 97.211,59.744 C96.205,60.962 95.209,62.212 94.046,63.267 C92.372,64.788 90.268,65.227 88.067,64.949 C87.421,64.867 86.734,64.462 86.234,64.015 C85.161,63.06 84.717,61.751 84.672,60.337 C84.628,58.973 84.662,57.607 84.662,55.877 C83.57,57.252 82.618,58.335 81.796,59.509 C80.183,61.816 78.038,63.464 75.588,64.762 C74.269,65.461 72.883,65.888 71.368,65.974 C69.128,66.101 67.586,65.112 66.567,63.203 C66.213,62.539 65.955,61.826 65.569,60.943 C65.201,61.425 64.875,61.818 64.586,62.236 C63.425,63.914 62.139,65.47 60.39,66.574 C58.602,67.699 56.191,67.603 54.692,66.383 C53.737,65.606 53.288,64.61 53.257,63.381 C53.2,61.105 53.628,58.918 54.384,56.785 C55.389,53.949 56.35,51.097 57.427,48.29 C58.101,46.531 57.988,44.805 57.852,42.976 C57.671,40.534 54.233,39.389 52.503,40.325 C50.184,41.579 47.848,42.825 46.25,45.009 C44.542,47.345 42.845,49.697 41.281,52.132 C39.509,54.892 38.975,58.136 38.044,61.218 C37.665,62.474 37.317,63.739 36.935,64.993 C36.727,65.675 36.324,66.177 35.531,66.126 C34.843,66.083 34.392,65.481 34.423,64.562 C34.441,64.026 34.56,63.477 34.727,62.964 C36.69,56.923 38.131,50.743 39.682,44.593 C39.73,44.404 39.741,44.206 39.778,43.951 C39.56,44.03 39.436,44.038 39.369,44.104 C36.206,47.208 33.053,50.321 29.89,53.424 C27.312,55.955 24.768,58.524 22.126,60.985 C20.169,62.809 18.128,64.549 16.037,66.217 C13.619,68.145 10.872,68.801 7.864,67.805 C6.098,67.219 4.342,66.602 2.616,65.91 C2.035,65.676 1.493,65.234 1.063,64.768 C0.619,64.289 0.598,63.644 1.082,63.128 C1.565,62.614 2.086,62.725 2.718,62.995 C4.869,63.913 7.012,64.899 9.246,65.561 C11.606,66.261 14.079,65.054 15.552,63.055 C17.253,60.749 18.051,58.233 17.861,55.375 C17.672,52.538 17.542,49.697 17.361,46.858 C17.33,46.373 17.216,45.881 17.072,45.414 C16.322,42.971 15.55,40.533 14.737,37.939 C14.236,38.288 13.84,38.537 13.472,38.824 C11.725,40.189 9.804,41.228 7.646,41.746 C6.813,41.945 5.914,41.988 5.058,41.926 C4.283,41.871 3.808,41.216 3.912,40.589 C4.025,39.897 4.49,39.526 5.167,39.516 C8.847,39.463 11.509,37.435 13.975,35.017 C14.208,34.788 14.371,34.487 14.612,34.268 C15.404,33.547 16.283,33.776 16.671,34.789 C16.73,34.941 16.741,35.109 16.786,35.268 C17.503,37.791 18.176,40.327 18.953,42.832 C19.721,45.309 20.178,47.828 20.209,50.416 C20.244,53.246 20.216,56.078 20.216,59.261 C20.909,58.698 21.384,58.373 21.788,57.975 C23.696,56.089 25.498,54.088 27.496,52.305 C32.407,47.923 36.918,43.157 41.329,38.287 C41.716,37.859 42.016,37.295 42.189,36.742 C45.327,26.697 49.383,17.012 53.678,7.423 C54.368,5.883 55.207,4.387 56.156,2.992 C57.621,0.834 59.509,0.07 62.668,0.92 C63.985,1.274 64.657,2.074 64.588,3.43 C64.5,5.17 64.271,6.912 63.966,8.629 C63.267,12.567 61.667,16.123 59.397,19.424 C57.254,22.541 55.061,25.601 52.535,28.428 C51.337,29.769 50.372,31.317 49.268,32.744 C47.797,34.646 46.293,36.523 44.804,38.412 C44.568,38.711 44.237,38.977 44.116,39.318 C43.352,41.468 42.636,43.635 41.903,45.797 C41.999,45.856 42.095,45.914 42.191,45.974 C42.546,45.543 42.922,45.125 43.255,44.678 C45.319,41.894 47.948,39.814 51.04,38.267 C54.199,36.688 56.755,37.675 58.934,39.471 C59.33,39.797 59.618,40.341 59.786,40.842 C60.66,43.446 60.884,46.073 59.918,48.723 C58.925,51.445 57.944,54.172 56.987,56.907 C56.318,58.82 55.693,60.745 55.763,62.819 C55.82,64.51 56.908,65.3 58.499,64.715 C58.951,64.55 59.416,64.295 59.749,63.957 C60.63,63.064 61.544,62.176 62.261,61.156 C64.08,58.568 65.861,55.978 66.987,52.946 C68.243,49.564 70.417,46.738 73.265,44.463 C74.077,43.815 74.821,43.082 75.585,42.377 C77.006,41.063 78.598,40.02 80.393,39.285 C81.253,38.933 82.106,38.559 82.946,38.16 C84.354,37.492 85.842,37.181 87.385,37.09 C88.586,37.018 89.788,36.944 90.99,36.871 C93,36.75 93.785,37.705 93.089,39.562 C92.013,42.429 90.808,45.249 89.744,48.121 C88.91,50.373 88.136,52.654 87.468,54.962 C86.93,56.82 86.917,58.753 87.246,60.662 C87.531,62.31 88.069,62.639 89.741,62.476 C91.511,62.306 92.933,61.402 93.855,60.032 C96.375,56.289 99.622,53.156 102.354,49.605 C104.25,47.139 105.831,44.432 107.604,41.869 C109.004,39.844 110.476,37.869 111.924,35.879 C112.374,35.26 112.943,34.845 113.748,35.158 C114.47,35.438 114.634,36.065 114.609,36.771 C114.604,36.935 114.607,37.099 114.609,37.263 C114.647,39.474 115.243,39.995 117.441,39.503 C118.602,39.243 119.711,38.751 120.838,38.35 C121.196,38.222 121.526,37.996 121.891,37.907 C122.914,37.66 123.664,38.297 123.495,39.332 C123.391,39.969 123.095,40.575 122.873,41.191 C121.15,45.972 119.336,50.725 117.743,55.55 C117.151,57.343 117.056,59.303 116.767,61.192 C116.702,61.618 116.728,62.071 116.789,62.501 C116.972,63.786 117.619,64.258 118.834,63.889 C119.557,63.67 120.284,63.346 120.9,62.912 C124.491,60.386 127.646,57.344 130.822,54.336 C131.203,53.975 131.439,53.297 131.467,52.754 C131.664,48.893 132.592,45.184 133.716,41.517 C134.003,40.582 134.516,39.721 134.881,38.807 C135.693,36.778 137.472,35.87 139.312,35.17 C140.647,34.662 142.049,34.949 143.158,35.938 C144.266,36.924 144.715,38.186 144.26,39.649 C144.017,40.426 143.715,41.196 143.342,41.92 C141.155,46.17 138.747,50.275 135.153,53.525 C134.262,54.331 134.057,55.22 134.362,56.314 C134.45,56.629 134.515,56.954 134.567,57.277 C135.03,60.202 137.028,60.951 139.528,59.701 C142.394,58.269 145.191,56.574 147.321,54.049 C147.568,53.756 147.821,53.468 148.077,53.183 C148.501,52.709 148.982,52.354 149.657,52.621 C150.376,52.908 150.53,53.558 150.584,54.231 C150.64,54.939 150.427,55.479 149.713,55.826 C149.097,56.127 148.554,56.58 147.983,56.972 C145.506,58.67 143.073,60.437 140.538,62.042 C139.14,62.928 137.445,62.902 135.9,62.545 C133.977,62.1 132.96,60.566 132.337,58.783 C132.157,58.275 132.075,57.729 131.867,56.855 L131.867,56.855 Z M89.815,39.702 C88.156,39.455 85.985,39.606 84.692,40.137 C81.445,41.466 78.224,42.84 75.807,45.546 C75.409,45.992 74.925,46.366 74.455,46.741 C72.356,48.416 70.932,50.601 69.674,52.929 C68.376,55.335 68.114,57.924 68.28,60.574 C68.402,62.521 69.62,63.545 71.538,63.416 C72.129,63.377 72.747,63.277 73.29,63.053 C75.438,62.167 77.347,60.924 78.9,59.162 C81.448,56.269 83.414,52.969 85.259,49.63 C86.998,46.483 88.352,43.121 89.871,39.852 C89.887,39.818 89.835,39.753 89.815,39.702 L89.815,39.702 Z M46.352,32.031 C46.413,32.059 46.474,32.088 46.536,32.115 C48.005,30.217 49.383,28.239 50.963,26.439 C53.246,23.837 55.215,21.021 57.217,18.21 C59.794,14.592 61.21,10.575 61.91,6.255 C62.065,5.302 62.222,4.327 61.971,3.398 C59.595,2.914 58.913,3.14 57.756,5.022 C57.014,6.23 56.334,7.495 55.783,8.8 C53.21,14.898 50.679,21.013 48.163,27.134 C47.501,28.744 46.952,30.398 46.352,32.031 L46.352,32.031 Z M134.241,50.338 C135.437,49.688 136.345,48.831 136.99,47.776 C138.527,45.262 139.985,42.701 141.461,40.15 C141.623,39.871 141.738,39.55 141.807,39.235 C142.079,37.98 141.191,37.148 140.008,37.604 C138.665,38.122 137.534,38.868 136.889,40.298 C135.778,42.761 135.171,45.354 134.62,47.972 C134.456,48.752 134.365,49.549 134.241,50.338 L134.241,50.338 Z" id="Shape" fill="#000000" sketch:type="MSShapeGroup"></path>
            <path d="M304.535,40.705 C301.767,41.574 300.201,39.965 298.623,37.979 C298.004,38.431 297.387,38.762 296.935,39.246 C296.456,39.757 296.077,40.385 295.752,41.012 C293.766,44.85 291.736,48.668 289.857,52.56 C287.9,56.614 285.115,60.03 282.037,63.244 C281.588,63.714 281.014,64.063 280.505,64.477 C278.181,66.363 274.19,64.407 274.393,61.298 C274.538,59.071 274.749,56.85 274.928,54.654 C274.82,54.761 274.576,54.978 274.358,55.216 C272.993,56.71 271.638,58.215 270.27,59.706 C268.639,61.483 266.544,62.557 264.383,63.512 C263.143,64.06 261.823,64.085 260.509,63.9 C259.38,63.74 258.451,63.177 257.759,62.259 C256.201,60.195 255.248,57.913 255.253,55.283 C255.258,52.692 255.707,50.173 256.357,47.671 C257.013,45.15 257.574,42.605 258.231,39.844 C254.366,40.843 250.713,41.216 246.893,39.575 C246.822,40.565 246.74,41.413 246.703,42.262 C246.582,45.132 245.857,47.854 244.916,50.562 C243.916,53.439 242.597,56.117 240.712,58.491 C239.941,59.463 239.055,60.4 238.053,61.118 C235.695,62.808 233.24,64.329 230.365,65.078 C226.929,65.973 223.599,64.363 222.44,61.04 C222.048,59.916 221.832,58.729 221.483,57.369 C220.54,58.199 219.611,58.929 218.788,59.762 C216.933,61.642 214.955,63.364 212.656,64.673 C211.916,65.096 211.62,65.765 211.315,66.465 C209.283,71.129 207.277,75.804 205.214,80.453 C204.26,82.603 203.292,84.756 202.162,86.814 C200.578,89.701 198.782,92.466 195.943,94.325 C192.291,96.717 187.626,95.322 185.924,91.314 C185.215,89.643 185.332,87.841 185.645,86.132 C186.095,83.678 187.113,81.48 189.043,79.728 C191.11,77.853 193.158,76 195.472,74.396 C199.02,71.934 202.359,69.171 205.785,66.533 C206.478,65.999 207.107,65.353 207.862,64.931 C209.485,64.023 210.427,62.64 211.099,60.964 C211.947,58.849 212.962,56.798 213.262,54.434 C212.04,55.73 210.857,57.064 209.588,58.31 C207.951,59.918 206.282,61.501 204.553,63.01 C203.563,63.873 202.405,64.472 201.043,64.675 C197.169,65.253 193.479,61.703 193.979,58.154 C194.321,55.72 194.672,53.289 195.033,50.857 C195.595,47.07 196.158,43.281 196.745,39.498 C196.878,38.639 196.952,37.688 197.763,37.168 C198.117,36.939 198.699,36.856 199.102,36.97 C199.698,37.141 199.916,37.75 199.712,38.317 C198.673,41.185 198.687,44.23 198.17,47.185 C197.641,50.202 197.098,53.217 196.592,56.237 C196.475,56.935 196.487,57.655 196.432,58.363 C196.306,60.01 197.231,61.065 198.524,61.803 C199.766,62.512 201.056,62.352 202.263,61.606 C202.588,61.406 202.913,61.192 203.195,60.936 C204.571,59.685 205.922,58.406 207.3,57.158 C211.968,52.933 214.881,47.595 217.079,41.8 C217.214,41.443 217.282,40.978 217.544,40.77 C217.931,40.463 218.48,40.154 218.935,40.187 C219.604,40.238 219.935,40.843 219.868,41.517 C219.809,42.111 219.681,42.71 219.503,43.282 C217.832,48.66 216.143,54.031 214.458,59.405 C214.378,59.658 214.291,59.91 214.307,60.255 C215.77,59.361 216.844,58.045 218.073,56.897 C220.521,54.612 221.603,51.561 222.836,48.611 C224.188,45.376 226.544,42.971 228.992,40.614 C229.504,40.122 230.095,39.714 230.618,39.231 C231.855,38.092 233.272,37.333 234.927,36.983 C237.107,36.521 239.173,35.474 241.494,35.738 C241.7,35.761 241.951,35.718 242.128,35.614 C243.405,34.856 244.463,35.265 245.606,36.04 C248.99,38.333 252.705,38.768 256.592,37.632 C257.521,37.361 258.398,36.86 259.242,36.368 C259.866,36.004 260.421,35.47 261.167,35.981 C261.976,36.535 261.694,37.266 261.494,38.043 C260.295,42.7 259.026,47.346 258.019,52.045 C257.479,54.564 257.496,57.16 258.923,59.536 C260.059,61.427 261.415,62.012 263.449,61.182 C265.224,60.457 266.91,59.561 268.297,58.17 C270.506,55.955 272.676,53.719 274.165,50.924 C274.37,50.539 274.6,50.153 274.889,49.83 C277.63,46.76 278.868,42.953 280.153,39.166 C280.381,38.494 280.6,37.816 280.882,37.164 C281.121,36.607 281.591,36.327 282.208,36.432 C282.92,36.553 283.243,37.072 283.218,37.726 C283.196,38.318 283.082,38.928 282.888,39.489 C281.611,43.155 280.295,46.807 279.003,50.469 C277.816,53.832 276.821,57.24 276.899,60.858 C276.908,61.278 276.945,61.78 277.173,62.093 C277.587,62.656 278.233,62.941 278.9,62.499 C279.534,62.08 280.162,61.615 280.683,61.066 C283.636,57.953 286.183,54.568 288.031,50.648 C289.758,46.99 291.698,43.431 293.557,39.836 C294.215,38.563 295.022,37.403 296.189,36.52 C297.996,35.155 299.552,35.295 301.05,36.999 C301.267,37.245 301.477,37.499 301.714,37.725 C302.591,38.56 303.177,38.655 304.187,37.95 C304.853,37.484 305.416,36.87 306.019,36.315 C306.38,35.981 306.677,35.501 307.1,35.333 C307.548,35.157 308.203,35.107 308.595,35.319 C308.913,35.492 309.149,36.145 309.118,36.563 C309.075,37.138 308.797,37.717 308.532,38.251 C306.151,43.046 304.703,48.145 303.716,53.371 C303.343,55.348 303.22,57.399 303.247,59.413 C303.264,60.63 303.659,61.892 304.122,63.038 C304.745,64.581 305.896,65.094 307.451,64.483 C308.544,64.053 309.653,63.424 310.481,62.606 C313.09,60.032 315.566,57.325 318.102,54.676 C318.591,54.164 319.069,53.619 319.637,53.21 C320.289,52.74 320.991,52.867 321.405,53.383 C321.816,53.895 321.742,54.552 321.177,55.143 C318.381,58.073 315.596,61.01 312.77,63.911 C312.087,64.611 311.329,65.279 310.495,65.78 C309.618,66.306 308.643,66.754 307.652,66.991 C305.02,67.625 303.057,66.624 301.862,64.175 C301.055,62.523 300.681,60.773 300.716,58.932 C300.778,55.635 301.13,52.376 302.051,49.201 C302.781,46.68 303.565,44.175 304.32,41.661 C304.395,41.412 304.435,41.156 304.535,40.705 L304.535,40.705 Z M243.752,38.035 C242.627,38.137 241.874,38.264 241.122,38.261 C238.607,38.25 236.324,39.211 233.989,39.935 C233.392,40.12 232.846,40.587 232.375,41.03 C230.785,42.524 229.239,44.067 227.677,45.591 C225.719,47.5 224.888,49.999 224.237,52.529 C223.625,54.906 224.052,57.287 224.583,59.666 C225.093,61.949 227.631,63.43 230.069,62.611 C232.445,61.812 234.535,60.554 236.544,59.138 C237.373,58.553 238.091,57.768 238.735,56.973 C240.508,54.785 241.638,52.261 242.607,49.62 C243.714,46.597 244.293,43.511 244.302,40.319 C244.306,39.553 243.943,38.785 243.752,38.035 L243.752,38.035 Z M207.642,68.779 C207.541,68.71 207.44,68.64 207.34,68.57 C207.039,68.793 206.736,69.013 206.439,69.241 C203.269,71.656 200.188,74.203 196.899,76.445 C194.575,78.032 192.509,79.853 190.527,81.811 C188.375,83.936 187.718,86.56 188.034,89.46 C188.252,91.458 189.951,92.841 191.957,92.956 C193.655,93.054 194.996,92.286 195.981,91.113 C197.448,89.368 198.924,87.553 199.965,85.544 C202.074,81.478 203.908,77.269 205.824,73.105 C206.478,71.685 207.039,70.223 207.642,68.779 L207.642,68.779 Z" id="Shape" fill="#000000" sketch:type="MSShapeGroup"></path>
            <g id="RmzFgO_1_" transform="translate(517.000000, 35.000000)" sketch:type="MSShapeGroup">
                <g id="Group">
                    <path d="M34.496,30.337 C31.154,30.427 27.815,30.546 24.474,30.595 C21.663,30.638 18.852,30.613 16.04,30.591 C14.045,30.573 12.051,30.497 10.057,30.474 C9.592,30.468 9.123,30.542 8.662,30.619 C7.387,30.832 6.115,30.736 4.929,30.285 C3.1,29.592 2.23,28.043 2.039,26.217 C1.642,22.431 1.369,18.632 1.082,14.834 C0.867,11.972 0.701,9.105 0.533,6.239 C0.5,5.672 0.545,5.098 0.58,4.53 C0.644,3.44 1.199,2.738 2.234,2.349 C4.662,1.436 7.177,1.219 9.743,1.264 C11.454,1.294 13.166,1.282 14.877,1.24 C18.34,1.157 21.803,1.044 25.266,0.936 C33.332,0.684 41.397,0.397 49.465,0.193 C51.719,0.135 53.983,0.255 56.233,0.421 C57.274,0.497 58.329,0.784 59.313,1.146 C60.836,1.706 61.566,2.927 61.736,4.519 C61.782,4.957 61.94,5.382 62.024,5.818 C62.319,7.353 62.781,8.882 62.858,10.429 C63.035,14.009 63.108,17.601 63.054,21.185 C63.026,23.068 62.672,24.948 62.399,26.819 C62.274,27.69 61.645,28.221 60.782,28.317 C58.294,28.596 55.774,28.7 53.319,29.159 C50.84,29.624 48.34,29.673 45.853,29.882 C42.445,30.169 39.018,30.234 35.598,30.392 C35.233,30.41 34.866,30.413 34.498,30.423 C34.497,30.392 34.496,30.366 34.496,30.337 L34.496,30.337 Z M13.762,15.001 C15.426,13.597 15.555,11.818 15.164,9.932 C15.076,9.507 14.905,9.016 14.605,8.735 C12.76,7.009 10.696,5.818 8.02,6.299 C6.531,6.568 6.129,6.988 6.166,8.489 C6.287,13.477 6.434,18.464 6.575,23.452 C6.584,23.796 6.614,24.145 6.685,24.483 C6.898,25.5 7.812,25.853 8.683,25.283 C8.859,25.168 9.081,25.088 9.289,25.064 C10.138,24.966 10.994,24.929 11.837,24.802 C12.373,24.721 12.966,24.639 13.401,24.354 C14.721,23.495 15.522,22.303 15.382,20.627 C15.329,19.998 15.319,19.365 15.33,18.734 C15.359,17.301 14.965,16.045 13.762,15.001 L13.762,15.001 Z M46.195,17.893 C46.323,17.891 46.383,17.877 46.437,17.889 C47.587,18.145 48.726,18.481 49.89,18.645 C51.126,18.819 51.95,19.28 52.023,20.651 C52.043,21.024 52.334,21.419 52.265,21.756 C52.14,22.383 52.299,22.865 52.662,23.344 C53.13,23.961 53.732,24.168 54.36,23.895 C54.969,23.629 55.259,23.018 55.055,22.258 C54.667,20.807 54.366,19.313 53.805,17.928 C52.553,14.84 51.182,11.8 49.82,8.759 C49.448,7.927 48.972,7.133 48.469,6.371 C47.858,5.443 46.74,5.49 46.269,6.494 C45.798,7.498 45.35,8.547 45.123,9.624 C44.656,11.853 44.328,14.111 43.972,16.362 C43.621,18.577 43.368,20.801 43.532,23.053 C43.588,23.809 44.085,24.299 44.775,24.287 C45.47,24.273 45.96,23.771 45.97,23.016 C45.981,22.405 45.918,21.791 45.949,21.182 C46.008,20.088 46.11,18.998 46.195,17.893 L46.195,17.893 Z M23.493,16.977 C24.555,16.948 25.45,16.938 26.344,16.897 C27.149,16.858 27.656,16.346 27.629,15.642 C27.602,14.932 27.065,14.484 26.26,14.485 C25.446,14.485 24.631,14.471 23.817,14.469 C23.45,14.469 23.264,14.323 23.23,13.934 C23.141,12.919 23.006,11.909 22.918,10.895 C22.838,9.965 23.162,9.576 24.107,9.563 C24.978,9.549 25.853,9.602 26.72,9.692 C27.54,9.778 28.154,9.428 28.282,8.7 C28.404,8.01 27.972,7.447 27.191,7.265 C25.818,6.946 24.439,7.045 23.058,7.198 C22.865,7.219 22.648,7.233 22.472,7.169 C21.37,6.763 20.684,7.049 20.516,8.208 C20.372,9.202 20.406,10.241 20.497,11.248 C20.84,14.999 21.239,18.746 21.614,22.496 C21.711,23.471 21.967,23.758 22.891,24.035 C24.737,24.592 26.618,24.223 28.481,24.258 C29.036,24.27 29.43,23.742 29.459,23.188 C29.491,22.557 29.136,22.043 28.538,21.928 C28.181,21.86 27.809,21.838 27.444,21.838 C26.506,21.84 25.569,21.891 24.632,21.865 C24.408,21.857 24.018,21.65 23.996,21.496 C23.797,20.008 23.656,18.512 23.493,16.977 L23.493,16.977 Z M36.5,9.23 C36.77,9.19 36.907,9.154 37.045,9.152 C37.697,9.144 38.35,9.167 39,9.138 C39.721,9.105 40.191,8.603 40.189,7.926 C40.187,7.208 39.706,6.728 38.953,6.702 C38.73,6.694 38.506,6.702 38.281,6.7 C36.561,6.688 34.831,6.973 33.133,6.396 C32.534,6.193 31.92,6.643 31.752,7.221 C31.578,7.825 31.837,8.431 32.438,8.688 C32.827,8.855 33.244,8.983 33.661,9.052 C34.024,9.112 34.126,9.274 34.13,9.616 C34.137,10.207 34.182,10.797 34.222,11.386 C34.451,14.738 34.676,18.091 34.913,21.44 C34.966,22.192 35.012,22.948 35.157,23.684 C35.225,24.03 35.46,24.401 35.729,24.637 C36.106,24.964 36.597,24.95 37.041,24.69 C37.508,24.415 37.705,23.989 37.666,23.454 C37.527,21.552 37.389,19.649 37.241,17.747 C37.172,16.852 37.079,15.961 37.002,15.069 C36.835,13.144 36.671,11.219 36.5,9.23 L36.5,9.23 Z" id="Shape" fill="#66A8CE"></path>
                    <path d="M13.762,15.001 C14.965,16.044 15.36,17.3 15.332,18.736 C15.32,19.367 15.331,20 15.384,20.629 C15.524,22.305 14.723,23.496 13.403,24.356 C12.967,24.641 12.375,24.723 11.839,24.804 C10.996,24.931 10.14,24.968 9.291,25.066 C9.083,25.089 8.86,25.17 8.685,25.285 C7.814,25.855 6.9,25.502 6.687,24.485 C6.616,24.147 6.585,23.797 6.577,23.454 C6.435,18.466 6.289,13.479 6.168,8.491 C6.132,6.99 6.533,6.569 8.022,6.301 C10.698,5.82 12.762,7.011 14.607,8.737 C14.907,9.018 15.078,9.509 15.166,9.934 C15.555,11.819 15.426,13.597 13.762,15.001 L13.762,15.001 Z M8.795,16.061 C8.791,16.077 8.76,16.133 8.762,16.188 C8.836,18.157 8.916,20.126 8.991,22.096 C9.009,22.553 9.323,22.621 9.667,22.592 C10.255,22.543 10.839,22.463 11.422,22.381 C12.493,22.229 12.95,21.709 12.949,20.631 C12.949,19.981 12.93,19.33 12.893,18.68 C12.801,17.139 11.786,16.207 10.238,16.19 C9.78,16.184 9.324,16.109 8.795,16.061 L8.795,16.061 Z M8.707,13.837 C9.385,13.749 9.998,13.671 10.611,13.588 C10.892,13.55 11.174,13.519 11.451,13.456 C12.231,13.278 12.699,12.741 12.818,11.995 C12.949,11.17 13.006,10.276 12.109,9.781 C11.365,9.371 10.598,8.979 9.8,8.698 C8.876,8.374 8.587,8.637 8.599,9.61 C8.601,9.731 8.601,9.854 8.605,9.975 C8.64,11.287 8.675,12.597 8.707,13.837 L8.707,13.837 Z" id="Shape" fill="#FFFFFF"></path>
                    <path d="M46.195,17.893 C46.11,18.998 46.007,20.088 45.951,21.182 C45.92,21.791 45.982,22.405 45.972,23.016 C45.961,23.772 45.472,24.274 44.777,24.287 C44.087,24.299 43.589,23.808 43.534,23.053 C43.37,20.801 43.624,18.576 43.974,16.362 C44.33,14.112 44.659,11.854 45.125,9.624 C45.352,8.547 45.799,7.498 46.271,6.494 C46.743,5.49 47.86,5.443 48.471,6.371 C48.974,7.133 49.45,7.927 49.822,8.759 C51.184,11.8 52.555,14.84 53.807,17.928 C54.368,19.313 54.669,20.807 55.057,22.258 C55.261,23.018 54.971,23.629 54.362,23.895 C53.734,24.168 53.132,23.961 52.664,23.344 C52.301,22.865 52.142,22.383 52.267,21.756 C52.335,21.418 52.044,21.024 52.025,20.651 C51.952,19.28 51.129,18.819 49.892,18.645 C48.728,18.481 47.589,18.145 46.439,17.889 C46.384,17.877 46.323,17.891 46.195,17.893 L46.195,17.893 Z M50.64,16.307 C49.619,14.07 48.668,11.991 47.719,9.911 C47.648,9.932 47.577,9.951 47.506,9.971 C47.223,11.791 46.939,13.612 46.654,15.43 C47.945,15.713 49.205,15.99 50.64,16.307 L50.64,16.307 Z" id="Shape" fill="#FFFFFF"></path>
                    <path d="M23.493,16.977 C23.656,18.512 23.797,20.008 23.998,21.495 C24.019,21.649 24.41,21.856 24.634,21.864 C25.571,21.889 26.508,21.839 27.446,21.837 C27.811,21.837 28.182,21.858 28.54,21.927 C29.138,22.042 29.493,22.556 29.461,23.187 C29.433,23.742 29.038,24.269 28.483,24.257 C26.62,24.222 24.739,24.591 22.893,24.034 C21.968,23.757 21.712,23.47 21.616,22.495 C21.241,18.745 20.842,14.998 20.499,11.247 C20.407,10.24 20.374,9.201 20.518,8.207 C20.686,7.048 21.372,6.762 22.474,7.168 C22.65,7.232 22.867,7.219 23.06,7.197 C24.441,7.045 25.82,6.945 27.193,7.264 C27.974,7.446 28.406,8.008 28.284,8.699 C28.156,9.428 27.543,9.777 26.722,9.691 C25.855,9.601 24.98,9.548 24.109,9.562 C23.164,9.575 22.839,9.964 22.92,10.894 C23.008,11.908 23.143,12.918 23.232,13.933 C23.266,14.323 23.452,14.468 23.819,14.468 C24.633,14.47 25.448,14.484 26.262,14.484 C27.067,14.483 27.604,14.931 27.631,15.641 C27.657,16.346 27.151,16.857 26.346,16.896 C25.45,16.938 24.555,16.947 23.493,16.977 L23.493,16.977 Z" id="Shape" fill="#FFFFFF"></path>
                    <path d="M36.5,9.23 C36.671,11.219 36.835,13.144 37.002,15.07 C37.079,15.963 37.172,16.854 37.241,17.748 C37.388,19.65 37.527,21.553 37.666,23.455 C37.705,23.99 37.508,24.416 37.041,24.691 C36.597,24.952 36.105,24.965 35.729,24.638 C35.459,24.402 35.225,24.031 35.157,23.685 C35.011,22.949 34.966,22.193 34.913,21.441 C34.676,18.091 34.45,14.738 34.222,11.387 C34.182,10.798 34.137,10.208 34.13,9.617 C34.126,9.274 34.025,9.112 33.661,9.053 C33.244,8.984 32.827,8.856 32.438,8.689 C31.837,8.432 31.579,7.826 31.752,7.222 C31.92,6.644 32.534,6.194 33.133,6.397 C34.831,6.974 36.562,6.689 38.281,6.701 C38.506,6.703 38.73,6.695 38.953,6.703 C39.706,6.728 40.187,7.209 40.189,7.927 C40.191,8.604 39.72,9.106 39,9.139 C38.35,9.167 37.697,9.145 37.045,9.153 C36.907,9.154 36.77,9.19 36.5,9.23 L36.5,9.23 Z" id="Shape" fill="#FFFFFF"></path>
                    <path d="M8.795,16.061 C9.324,16.11 9.78,16.184 10.237,16.19 C11.785,16.208 12.8,17.139 12.892,18.68 C12.929,19.33 12.948,19.981 12.948,20.631 C12.949,21.709 12.492,22.229 11.421,22.381 C10.838,22.463 10.254,22.543 9.666,22.592 C9.322,22.621 9.008,22.553 8.99,22.096 C8.916,20.125 8.836,18.157 8.761,16.188 C8.76,16.133 8.791,16.076 8.795,16.061 L8.795,16.061 Z" id="Shape" fill="#66A8CE"></path>
                    <path d="M8.707,13.837 C8.675,12.597 8.64,11.286 8.605,9.976 C8.601,9.855 8.601,9.732 8.599,9.611 C8.587,8.638 8.876,8.375 9.8,8.699 C10.598,8.98 11.364,9.372 12.109,9.782 C13.005,10.277 12.949,11.171 12.818,11.996 C12.699,12.742 12.231,13.279 11.451,13.457 C11.175,13.519 10.892,13.551 10.611,13.589 C9.998,13.671 9.385,13.75 8.707,13.837 L8.707,13.837 Z" id="Shape" fill="#66A8CE"></path>
                    <path d="M50.64,16.307 C49.205,15.99 47.946,15.714 46.655,15.43 C46.939,13.612 47.223,11.791 47.507,9.971 C47.578,9.951 47.649,9.932 47.72,9.911 C48.668,11.991 49.619,14.07 50.64,16.307 L50.64,16.307 Z" id="Shape" fill="#66A8CE"></path>
                </g>
            </g>
        </g>
    </g>
</svg>