<?xml version="1.0" encoding="UTF-8" standalone="no"?>
<svg width="475px" height="70px" viewBox="0 0 475 70" version="1.1" xmlns="http://www.w3.org/2000/svg" xmlns:xlink="http://www.w3.org/1999/xlink" xmlns:sketch="http://www.bohemiancoding.com/sketch/ns">
    <!-- Generator: Sketch 3.3.3 (12072) - http://www.bohemiancoding.com/sketch -->
    <title>watch-stories</title>
    <desc>Created with Sketch.</desc>
    <defs></defs>
    <g id="Page-1" stroke="none" stroke-width="1" fill="none" fill-rule="evenodd" sketch:type="MSPage">
        <g id="watch-stories" sketch:type="MSLayerGroup" fill="#000000">
            <path d="M93.553,38.166 C92.43,38.067 91.507,38.025 90.597,37.891 C89.953,37.797 89.313,37.618 88.697,37.403 C88.017,37.167 87.572,36.699 87.742,35.907 C87.897,35.188 88.559,34.792 89.414,35.079 C90.965,35.6 92.546,35.513 94.129,35.52 C94.398,35.521 94.667,35.473 95.023,35.44 C95.39,34.532 95.795,33.639 96.113,32.717 C97.147,29.721 98.153,26.713 99.163,23.708 C99.588,22.443 100.138,21.983 100.937,22.255 C101.717,22.521 101.976,23.243 101.649,24.495 C101.442,25.287 101.109,26.045 100.884,26.834 C100.092,29.611 99.321,32.396 98.482,35.393 C99.38,35.393 100.004,35.424 100.624,35.385 C101.825,35.309 103.022,35.157 104.223,35.1 C105.185,35.055 105.735,35.458 105.82,36.144 C105.911,36.879 105.365,37.459 104.359,37.561 C102.507,37.75 100.65,37.881 98.796,38.039 C98.473,38.067 98.151,38.109 97.662,38.163 C97.285,39.445 96.79,40.725 96.539,42.052 C95.754,46.19 95.008,50.336 94.36,54.496 C94.117,56.055 94.141,57.662 94.138,59.246 C94.137,59.883 94.282,60.57 94.546,61.148 C95.161,62.492 96.493,62.91 97.668,62.003 C99.612,60.501 101.511,58.925 103.286,57.23 C104.745,55.835 106.025,54.25 107.324,52.698 C107.773,52.163 108.095,51.499 108.379,50.852 C109.915,47.348 112.145,44.334 114.793,41.606 C114.907,41.488 115.027,41.376 115.141,41.256 C118.743,37.506 122.99,36.969 127.627,38.901 C128.649,39.327 129.516,40.185 130.365,40.944 C130.865,41.39 130.831,42.059 130.363,42.572 C129.952,43.022 129.42,43.106 128.874,42.767 C128.643,42.623 128.419,42.463 128.204,42.295 C124.674,39.545 120.669,39.688 117.329,42.617 C114.424,45.167 112.393,48.355 110.916,51.841 C110.019,53.958 110.015,56.323 110.534,58.626 C111.051,60.917 113.041,61.999 115.92,62.44 C117.279,62.647 118.627,62.389 119.944,61.901 C123.971,60.405 127.329,58.04 130.317,54.917 C134.467,50.581 137.958,45.781 141.347,40.862 C142.803,38.751 143.764,36.515 144.527,34.092 C146.873,26.635 149.179,19.164 151.896,11.826 C153.097,8.582 155.031,5.814 157.031,3.086 C158.201,1.49 159.931,0.638 162.014,0.671 C165.197,0.722 167.283,3.576 166.168,6.563 C165.675,7.882 164.886,9.095 164.19,10.333 C160.378,17.113 156.002,23.534 151.65,29.971 C149.567,33.052 147.513,36.16 145.607,39.353 C144.846,40.628 144.518,42.162 143.992,43.576 C144.094,43.637 144.195,43.695 144.297,43.754 C144.635,43.373 144.984,43 145.308,42.608 C146.075,41.678 146.795,40.71 147.598,39.813 C149.325,37.884 152.637,37.209 154.993,38.264 C157.371,39.328 158.276,41.337 158.519,43.771 C158.77,46.286 158.158,48.678 157.371,51.014 C156.465,53.7 156.074,56.432 156.206,59.251 C156.224,59.632 156.225,60.022 156.311,60.392 C156.695,62.033 157.911,62.915 159.488,62.359 C162.75,61.207 166.007,59.951 167.598,56.451 C167.8,56.008 168.076,55.582 168.392,55.213 C168.843,54.688 169.439,54.608 170.011,55.002 C170.522,55.354 170.683,55.912 170.398,56.455 C169.28,58.592 168.196,60.793 165.983,62.037 C164.413,62.92 162.804,63.762 161.137,64.435 C157.187,66.033 153.945,63.931 153.688,59.646 C153.53,57.007 153.777,54.398 154.524,51.847 C154.955,50.378 155.477,48.919 155.723,47.417 C155.95,46.032 155.976,44.589 155.879,43.185 C155.791,41.914 155.083,40.785 153.789,40.513 C152.425,40.229 150.831,39.958 149.766,41.183 C147.328,43.986 144.83,46.749 143.342,50.25 C141.297,55.06 140.009,60.072 139.107,65.199 C139.078,65.359 139.061,65.525 139.011,65.679 C138.812,66.302 138.468,66.759 137.737,66.74 C137.06,66.722 136.516,66.254 136.562,65.437 C136.643,63.968 136.749,62.476 137.084,61.05 C138.136,56.581 139.301,52.137 140.42,47.682 C140.497,47.372 140.554,47.057 140.425,46.644 C140.149,47.006 139.849,47.354 139.6,47.734 C136.599,52.304 132.725,56.122 128.77,59.81 C126.07,62.328 122.639,63.816 119.045,64.742 C115.924,65.547 113.074,64.695 110.479,62.943 C108.818,61.822 108.236,60.041 107.904,58.166 C107.802,57.594 107.758,57.01 107.655,56.156 C107.119,56.748 106.762,57.135 106.415,57.527 C104.231,59.998 101.812,62.187 99.111,64.101 C96.074,66.255 92.465,64.109 91.932,61.228 C91.647,59.689 91.526,58.054 91.701,56.507 C92.118,52.813 92.752,49.146 93.305,45.469 C93.401,44.828 93.526,44.191 93.446,43.448 C93.233,43.771 93,44.083 92.809,44.419 C91.54,46.655 90.259,48.884 89.021,51.137 C86.672,55.412 83.481,59.012 79.959,62.322 C78.573,63.625 77.031,64.802 75.423,65.822 C72.945,67.394 70.406,66.859 68.566,64.588 C66.962,62.611 66.296,60.375 66.699,57.844 C66.742,57.574 66.781,57.303 66.814,57.032 C66.82,56.981 66.791,56.927 66.751,56.764 C65.74,57.934 64.79,59.076 63.792,60.178 C62.041,62.108 59.97,63.617 57.597,64.694 C51.993,67.235 48.439,63.135 48.163,58.762 C48.129,58.221 48.159,57.678 48.159,56.948 C47.455,57.327 46.849,57.641 46.254,57.975 C45.156,58.592 43.992,58.764 42.764,58.512 C40.965,58.143 39.659,57.2 39.132,55.362 C38.761,54.065 38.393,52.766 37.937,51.167 C36.976,53.225 36.192,55.051 35.281,56.811 C34.404,58.506 33.458,60.174 32.427,61.782 C31.032,63.96 29.066,65.522 26.695,66.538 C23.376,67.96 20.405,66.96 19.881,63.081 C19.649,61.362 19.775,59.595 19.772,57.849 C19.771,57.228 19.869,56.607 19.923,55.96 C17.874,58.11 15.961,60.19 13.96,62.183 C13.035,63.103 11.985,63.919 10.908,64.66 C9.096,65.904 7.086,65.906 5.081,65.232 C3.363,64.654 2.332,63.324 2.173,61.582 C1.971,59.359 1.863,57.096 2.046,54.879 C2.467,49.767 4.212,44.964 5.846,40.147 C5.987,39.733 6.146,39.325 6.283,38.91 C6.315,38.812 6.288,38.695 6.288,38.578 C5.154,38.394 4.021,38.236 2.9,38.016 C2.423,37.922 1.952,37.739 1.514,37.525 C0.883,37.217 0.673,36.661 0.914,36.011 C1.128,35.434 1.661,35.067 2.216,35.267 C4.174,35.971 6.209,35.802 8.218,35.969 C9.654,36.088 9.926,36.926 9.379,38.287 C8.424,40.666 7.528,43.075 6.739,45.514 C6.05,47.643 5.482,49.816 4.969,51.994 C4.351,54.623 4.329,57.315 4.434,59.998 C4.54,62.713 6.648,63.98 9.117,62.797 C9.846,62.447 10.51,61.93 11.139,61.41 C15.312,57.971 18.413,53.728 20.603,48.788 C22.131,45.341 23.734,41.925 25.306,38.496 C25.442,38.198 25.561,37.885 25.748,37.622 C26.129,37.083 26.641,36.804 27.306,37.09 C27.961,37.371 28.164,37.923 28.023,38.573 C27.932,38.996 27.711,39.388 27.569,39.802 C26.061,44.195 24.483,48.566 23.08,52.991 C22.18,55.829 22.066,58.808 22.189,61.773 C22.307,64.621 23.616,65.291 26.188,64.025 C29.334,62.476 31.146,59.75 32.562,56.763 C34.059,53.605 35.22,50.291 36.654,47.1 C37.953,44.209 39.414,41.391 40.825,38.551 C40.991,38.217 41.255,37.903 41.544,37.666 C42.352,37.006 43.342,37.322 43.556,38.342 C43.735,39.196 43.847,40.069 43.013,40.753 C42.701,41.009 42.43,41.42 42.328,41.809 C41.786,43.871 41.293,45.948 40.803,48.023 C40.25,50.362 40.761,52.594 41.586,54.769 C42.027,55.933 43.341,56.439 44.597,55.966 C45.958,55.452 47.088,54.583 47.978,53.441 C48.853,52.319 49.721,51.187 50.487,49.99 C53.483,45.315 57.58,41.775 62.279,38.999 C65.849,36.891 69.781,35.681 74.056,36.311 C75.417,36.511 75.892,37.401 75.357,38.653 C74.564,40.509 73.733,42.358 73.087,44.267 C71.632,48.564 70.047,52.828 69.293,57.331 C68.965,59.284 69.022,61.136 70.322,62.792 C71.491,64.282 72.71,64.597 74.313,63.614 C75.243,63.044 76.164,62.421 76.964,61.684 C80.438,58.495 83.776,55.176 86.159,51.04 C88.588,46.824 91.004,42.605 93.553,38.166 L93.553,38.166 Z M71.673,39.564 C71.604,39.471 71.535,39.378 71.467,39.287 C69.317,40.029 67.141,40.707 65.026,41.537 C63.457,42.152 61.822,42.764 60.466,43.728 C55.983,46.915 52.822,51.162 51.026,56.383 C50.55,57.768 50.529,59.17 51.108,60.547 C51.955,62.563 53.721,63.494 55.751,62.729 C59.511,61.315 62.556,58.831 64.37,55.288 C67.003,50.148 69.258,44.814 71.673,39.564 L71.673,39.564 Z M148.632,29.303 C148.743,29.363 148.854,29.423 148.965,29.482 C149.057,29.347 149.15,29.212 149.242,29.078 C154.148,21.957 158.884,14.726 163.141,7.194 C163.409,6.72 163.676,6.227 163.819,5.709 C164.23,4.219 163.46,3.24 161.921,3.209 C160.314,3.178 159.289,4.101 158.432,5.313 C156.275,8.365 154.366,11.538 153.382,15.196 C153.142,16.089 152.705,16.928 152.413,17.809 C151.142,21.636 149.891,25.471 148.632,29.303 L148.632,29.303 Z" id="Shape" sketch:type="MSShapeGroup"></path>
            <path d="M469.526,40.53 C466.964,43.402 464.528,46.211 462.005,48.937 C458.398,52.833 454.737,56.678 451.077,60.523 C449.399,62.285 447.378,63.609 445.246,64.744 C440.559,67.24 438.395,64.965 437.507,60.767 C437.386,60.197 437.426,59.593 437.379,58.794 C436.067,59.649 435.026,60.569 433.944,61.448 C432.038,62.997 430.094,64.503 428.098,65.934 C427.51,66.356 426.707,66.622 425.982,66.676 C423.849,66.84 422.46,65.658 422.446,63.516 C422.432,61.391 422.538,59.235 422.9,57.145 C423.299,54.842 424.048,52.598 424.646,50.328 C424.766,49.87 424.891,49.412 424.834,48.863 C424.664,49.048 424.486,49.224 424.325,49.416 C421.135,53.239 418.008,57.116 414.725,60.858 C413.476,62.282 411.888,63.417 410.417,64.637 C410.005,64.981 409.48,65.205 408.979,65.418 C406.276,66.568 404.488,65.418 403.622,62.65 C403.403,61.951 403.468,61.127 403.551,60.375 C404.137,55.09 405.587,50.087 408.496,45.569 C409.111,44.613 409.622,43.591 410.339,42.317 C409.513,42.411 408.954,42.501 408.393,42.532 C407.194,42.599 405.98,42.771 404.795,42.658 C402.039,42.394 399.906,41.149 398.886,38.254 C394.519,40.762 390.021,42.571 384.676,41.173 C384.676,42.939 384.712,44.57 384.669,46.199 C384.54,51.162 382.958,55.744 380.142,59.711 C377.099,63.996 372.761,66.309 367.318,66.012 C365.302,65.903 363.855,64.744 362.681,63.229 C361.691,61.952 361.046,60.477 360.945,58.864 C360.832,57.067 360.884,55.262 360.883,53.462 C360.883,52.975 360.945,52.491 360.764,51.881 C360.508,52.242 360.22,52.587 360.002,52.971 C357.805,56.852 355.112,60.36 352.027,63.575 C351.058,64.587 350.013,65.434 348.533,65.511 C346.542,65.611 345.009,64.851 344.074,63.056 C343.172,61.327 342.827,59.47 342.741,57.523 C342.558,53.38 343.267,49.341 344.039,45.31 C344.449,43.172 345.008,41.062 345.539,38.771 C345.233,39.164 344.972,39.453 344.764,39.777 C343.369,41.937 342.08,44.173 340.578,46.257 C338.307,49.405 335.918,52.471 333.517,55.523 C332.813,56.418 331.956,57.218 331.07,57.941 C328.441,60.086 325.761,62.166 323.102,64.273 C322.802,64.511 322.46,64.718 322.223,65.009 C320.755,66.798 318.804,67.667 316.589,68.101 C315.679,68.279 314.794,68.58 313.896,68.82 C311.02,69.588 308.471,68.974 306.289,66.957 C305.486,66.215 304.719,65.426 304.009,64.598 C303.405,63.891 303.457,63.198 304.014,62.707 C304.598,62.191 305.381,62.314 306.027,63.008 C306.77,63.807 307.465,64.666 308.29,65.371 C309.655,66.545 311.237,66.976 313.034,66.457 C314.505,66.031 315.995,65.676 317.473,65.277 C318.563,64.984 319.277,64.246 320.088,63.463 C321.848,61.766 322.09,59.67 322.266,57.492 C322.774,51.227 322.328,45.043 320.604,38.82 C320.17,39.026 319.79,39.176 319.438,39.379 C317.482,40.511 315.42,41.399 313.193,41.791 C312.183,41.968 311.125,41.947 310.093,41.9 C309.025,41.851 308.473,41.34 308.499,40.625 C308.526,39.886 309.111,39.368 310.165,39.453 C312.138,39.613 313.977,39.175 315.756,38.42 C317.418,37.715 319.027,36.926 320.299,35.557 C321.262,34.522 322.376,34.85 322.686,36.276 C323.325,39.215 323.931,42.165 324.425,45.13 C325.178,49.642 324.901,54.191 324.701,58.73 C324.69,58.98 324.676,59.232 324.65,59.763 C327.149,57.867 329.565,56.281 331.483,54.091 C335.679,49.298 339.28,44.075 342.538,38.611 C342.642,38.436 342.702,38.233 342.881,37.813 C341.766,37.813 340.806,37.859 339.852,37.799 C339.094,37.752 338.331,37.631 337.594,37.442 C337.012,37.294 336.67,36.807 336.75,36.198 C336.838,35.524 337.279,35.106 337.988,35.14 C338.918,35.184 339.842,35.336 340.77,35.36 C344.548,35.458 344.599,35.401 346.402,32.163 C348.104,29.104 349.835,26.059 351.562,23.015 C351.777,22.636 352.033,22.275 352.307,21.935 C352.683,21.47 353.177,21.248 353.76,21.509 C354.405,21.796 354.616,22.357 354.457,23.005 C354.315,23.585 354.088,24.147 353.864,24.702 C352.866,27.188 351.85,29.668 350.856,32.155 C350.696,32.553 350.607,32.978 350.422,33.6 C351.084,33.557 351.606,33.495 352.128,33.495 C353.385,33.493 354.646,33.46 355.896,33.557 C357.019,33.645 357.558,34.239 357.463,35.049 C357.365,35.881 356.692,36.306 355.588,36.055 C353.82,35.651 352.109,35.996 350.377,36.252 C349.511,36.38 349.115,36.865 348.785,37.654 C347.207,41.427 346.403,45.389 345.881,49.409 C345.545,52.006 345.327,54.627 345.251,57.242 C345.215,58.469 345.508,59.75 345.879,60.933 C346.649,63.394 348.369,63.745 350.161,61.908 C353.234,58.756 355.764,55.207 358.047,51.445 C360.323,47.693 363.161,44.377 366.455,41.445 C369.943,38.343 374.162,37.487 378.609,37.257 C379.257,37.224 379.853,37.259 380.498,36.945 C380.951,36.723 381.678,36.867 382.212,37.05 C382.928,37.297 383.586,37.721 384.25,38.103 C386.256,39.256 388.389,39.397 390.606,38.949 C393.105,38.445 395.434,37.549 397.502,36.026 C397.721,35.865 397.947,35.708 398.183,35.568 C399.914,34.543 401.011,35.045 401.315,36.998 C401.609,38.891 402.711,39.934 404.723,40.131 C406.876,40.342 408.985,40.098 411.025,39.354 C411.333,39.242 411.63,39.078 411.948,39.02 C413.075,38.813 413.917,39.604 413.69,40.734 C413.552,41.421 413.281,42.102 412.951,42.722 C412.129,44.268 411.298,45.814 410.366,47.293 C407.766,51.418 406.599,55.995 405.981,60.756 C405.938,61.078 405.934,61.416 405.976,61.738 C406.161,63.166 407.086,63.779 408.237,62.986 C409.936,61.816 411.602,60.525 413.024,59.037 C418.182,53.646 422.629,47.673 426.919,41.582 C427.419,40.873 427.778,40.063 428.188,39.292 C428.693,38.343 429.285,37.993 429.964,38.272 C430.673,38.562 430.915,39.247 430.595,40.211 C429.253,44.259 427.898,48.302 426.548,52.347 C425.392,55.809 424.952,59.38 424.941,63.013 C424.941,63.329 425.04,63.648 425.132,64.202 C425.745,64.063 426.362,64.067 426.811,63.796 C428.023,63.058 429.229,62.28 430.318,61.374 C432.464,59.593 434.509,57.692 436.637,55.888 C437.318,55.31 437.588,54.63 437.73,53.786 C438.135,51.361 438.533,48.93 439.089,46.537 C439.382,45.28 439.802,43.964 440.517,42.915 C441.743,41.118 443.121,39.385 444.667,37.859 C446.042,36.505 447.829,35.733 449.853,35.697 C451.207,35.673 452.143,36.321 452.816,37.421 C453.6,38.703 453.533,41.605 452.533,42.725 C449.109,46.559 445.792,50.514 442.084,54.056 C440.043,56.009 439.617,58.038 440.021,60.503 C440.493,63.388 441.632,63.872 444.227,62.476 C447.411,60.761 449.981,58.316 452.393,55.681 C457.088,50.556 461.774,45.42 466.446,40.272 C466.955,39.711 467.352,39.049 467.801,38.434 C468.058,38.082 468.27,37.686 468.578,37.387 C469.445,36.549 470.262,36.604 470.891,37.623 C472.613,40.408 473.718,43.416 473.945,46.71 C474.205,50.477 473.834,54.135 472.224,57.618 C471.79,58.556 471.505,59.567 471.218,60.563 C470.552,62.881 469.265,64.825 467.682,66.6 C466.661,67.745 465.427,68.487 463.894,68.713 C462.865,68.863 461.84,69.037 460.815,69.209 C459.882,69.363 459.086,69.063 458.385,68.475 C457.866,68.041 457.681,67.487 458.027,66.87 C458.338,66.315 458.897,66.126 459.441,66.362 C461.111,67.085 462.666,66.356 464.238,66.026 C464.73,65.922 465.217,65.526 465.588,65.149 C466.936,63.766 468.041,62.221 468.662,60.356 C469.266,58.542 469.859,56.715 470.589,54.95 C471.929,51.71 471.967,44.307 469.526,40.53 L469.526,40.53 Z M381.719,40.273 C378.765,39.404 376.248,39.905 373.735,40.431 C370.589,41.089 368.011,42.772 366.256,45.372 C363.693,49.171 362.878,53.503 363.316,58.052 C363.443,59.372 363.818,60.64 364.655,61.7 C365.376,62.614 366.197,63.407 367.467,63.483 C372.242,63.774 375.909,61.649 378.418,57.829 C381.502,53.128 382.633,47.797 382.244,42.182 C382.192,41.455 381.854,40.747 381.719,40.273 L381.719,40.273 Z M440.54,51.787 C440.65,51.838 440.761,51.89 440.872,51.941 C441.306,51.538 441.771,51.163 442.17,50.726 C444.052,48.665 445.925,46.595 447.783,44.513 C448.548,43.656 449.231,42.724 450.022,41.892 C450.641,41.24 450.858,40.52 450.799,39.654 C450.709,38.343 450.252,37.968 449.014,38.289 C447.174,38.764 445.994,40.101 444.696,41.391 C441.763,44.304 441.116,48.011 440.54,51.787 L440.54,51.787 Z" id="Shape" sketch:type="MSShapeGroup"></path>
            <path d="M237.231,42.715 C238.479,41.752 239.731,40.796 240.973,39.825 C243.124,38.143 245.496,37.458 248.201,38.151 C250.162,38.655 251.746,40.249 251.888,42.284 C251.992,43.789 251.911,45.362 251.583,46.831 C250.858,50.085 249.858,53.277 249.102,56.523 C248.682,58.326 248.513,60.189 248.257,62.027 C248.205,62.402 248.226,62.8 248.293,63.173 C248.485,64.247 249.077,64.575 250.037,64.085 C251.059,63.564 252.132,63.073 253.017,62.362 C255.018,60.757 256.95,59.061 258.83,57.315 C259.252,56.922 259.465,56.196 259.57,55.588 C260.093,52.573 260.519,49.542 261.038,46.527 C261.625,43.115 263.621,40.388 265.639,37.74 C267.18,35.718 270.38,35.673 272.272,37.385 C273.148,38.178 273.606,39.19 273.422,40.323 C273.225,41.548 273.024,42.868 272.42,43.913 C269.955,48.18 267.355,52.392 263.676,55.746 C262.052,57.228 261.803,58.799 262.444,60.736 C262.833,61.912 263.389,62.914 264.444,63.648 C265.735,64.544 267.043,64.752 268.456,64.037 C269.431,63.543 270.45,63.105 271.345,62.49 C273.644,60.91 275.902,59.267 278.137,57.597 C278.695,57.181 279.108,56.572 279.589,56.052 C280.034,55.572 280.43,55.029 280.941,54.632 C281.681,54.06 282.612,54.261 283.086,54.991 C283.498,55.624 283.327,56.157 282.516,56.77 C282.258,56.965 281.916,57.108 281.754,57.364 C280.723,59.001 279.111,59.944 277.578,61.001 C276.272,61.901 275.073,62.962 273.742,63.819 C272.279,64.764 270.781,65.704 269.187,66.389 C265.97,67.772 262.294,66.313 260.746,63.147 C260.318,62.274 260.042,61.327 259.646,60.284 C258.62,61.134 257.714,61.999 256.696,62.698 C254.808,63.995 252.917,65.313 250.909,66.405 C248.759,67.577 246.521,66.473 245.967,64.079 C245.762,63.192 245.778,62.233 245.811,61.311 C245.935,57.942 246.971,54.749 247.78,51.516 C248.204,49.819 248.763,48.154 249.147,46.449 C249.384,45.392 249.512,44.286 249.501,43.204 C249.482,41.515 248.552,40.618 246.869,40.423 C245.565,40.272 244.314,40.523 243.263,41.259 C240.522,43.18 237.767,45.176 236.218,48.237 C234.989,50.666 233.947,53.223 233.148,55.824 C232.284,58.636 231.776,61.56 231.162,64.445 C231.013,65.144 230.793,65.713 230.072,65.929 C229.314,66.156 228.539,65.591 228.568,64.667 C228.603,63.528 228.734,62.364 229.027,61.267 C230.127,57.146 231.307,53.048 232.462,48.942 C232.666,48.217 232.889,47.497 232.928,46.677 C232.705,46.941 232.436,47.178 232.269,47.473 C230.008,51.465 226.979,54.845 223.808,58.112 C223.084,58.86 222.326,59.581 221.667,60.382 C219.117,63.484 215.721,65.353 212.121,66.876 C208.483,68.415 204.808,66.483 203.879,62.605 C203.175,59.669 203.497,56.714 204.044,53.804 C204.874,49.389 206.001,45.05 207.693,40.873 C207.933,40.28 208.083,39.651 208.294,38.976 C206.125,38.976 204.123,38.976 202.121,38.978 C201.739,38.978 201.344,39.06 200.977,38.988 C200.329,38.861 199.886,38.467 199.89,37.75 C199.893,37.049 200.281,36.613 200.957,36.504 C201.384,36.435 201.831,36.481 202.268,36.469 C204.557,36.405 206.847,36.338 209.156,36.271 C210.406,33.237 211.588,30.359 212.779,27.485 C213.553,25.615 214.323,23.743 215.13,21.887 C215.346,21.391 215.644,20.915 215.986,20.496 C216.372,20.023 216.916,19.922 217.465,20.228 C218.021,20.54 218.169,21.062 218,21.64 C217.895,22.002 217.666,22.326 217.519,22.678 C215.767,26.865 214.018,31.054 212.276,35.245 C212.217,35.386 212.238,35.558 212.199,35.94 C214.756,35.727 217.249,35.524 219.741,35.308 C220.176,35.27 220.606,35.145 221.04,35.129 C221.644,35.108 222.122,35.368 222.267,35.995 C222.423,36.668 222.173,37.203 221.517,37.447 C221.061,37.617 220.571,37.735 220.087,37.779 C217.525,38.009 214.961,38.209 212.398,38.423 C212.019,38.454 211.642,38.504 211.164,38.556 C210.321,40.91 209.374,43.241 208.653,45.638 C207.392,49.828 206.168,54.042 206.07,58.47 C206.048,59.507 206.045,60.56 206.2,61.579 C206.62,64.329 208.846,65.583 211.389,64.475 C214.568,63.09 217.546,61.414 219.855,58.7 C221.52,56.741 223.406,54.973 225.108,53.044 C226.299,51.694 227.396,50.252 228.445,48.786 C230.514,45.893 232.5,42.941 234.562,40.044 C235.395,38.874 236.079,37.666 236.495,36.274 C238.073,30.983 239.656,25.692 241.341,20.434 C242.091,18.094 243.071,15.827 243.974,13.538 C244.941,11.089 246.559,9.112 248.518,7.39 C249.828,6.238 251.267,5.834 252.903,6.621 C254.38,7.332 255.146,8.85 254.984,10.737 C254.941,11.225 254.875,11.731 254.7,12.182 C253.191,16.065 251.555,19.877 248.971,23.213 C247.733,24.811 246.643,26.525 245.512,28.204 C243.34,31.427 241.198,34.669 239.022,37.889 C238.055,39.312 237.481,40.88 237.231,42.715 L237.231,42.715 Z M241.477,29.148 C241.56,29.188 241.644,29.228 241.727,29.269 C241.943,28.97 242.164,28.676 242.373,28.374 C244.217,25.728 246.065,23.085 247.899,20.433 C249.812,17.669 251.091,14.591 252.284,11.473 C252.361,11.27 252.438,11.058 252.46,10.843 C252.534,10.124 252.585,9.364 251.857,8.936 C251.103,8.493 250.506,8.947 249.957,9.442 C248.393,10.848 247.067,12.442 246.3,14.421 C245.196,17.273 244.068,20.12 243.097,23.02 C242.428,25.019 242.008,27.103 241.477,29.148 L241.477,29.148 Z M262.31,53.148 C262.419,53.193 262.529,53.236 262.639,53.281 C262.956,52.997 263.327,52.755 263.581,52.423 C266.03,49.214 268.508,46.023 270.401,42.439 C270.672,41.923 270.822,41.309 270.89,40.724 C271.053,39.321 270.228,38.486 268.856,38.786 C268.23,38.924 267.6,39.394 267.147,39.877 C266.596,40.465 266.26,41.248 265.775,41.906 C263.298,45.265 262.993,49.261 262.31,53.148 L262.31,53.148 Z" id="Shape" sketch:type="MSShapeGroup"></path>
            <path d="M431.936,24.634 C431.914,23.751 432.183,23.018 433.03,22.618 C433.264,22.507 433.554,22.419 433.804,22.448 C435.308,22.629 436.81,24.643 436.572,26.12 C436.356,27.458 435.205,28.143 433.922,27.7 C432.679,27.273 431.925,26.107 431.936,24.634 L431.936,24.634 Z" id="Shape" sketch:type="MSShapeGroup"></path>
        </g>
    </g>
</svg>
