<?xml version="1.0" encoding="UTF-8" standalone="no"?>
<svg width="372px" height="91px" viewBox="0 0 372 91" version="1.1" xmlns="http://www.w3.org/2000/svg" xmlns:xlink="http://www.w3.org/1999/xlink" xmlns:sketch="http://www.bohemiancoding.com/sketch/ns">
    <!-- Generator: Sketch 3.3.3 (12072) - http://www.bohemiancoding.com/sketch -->
    <title>Name</title>
    <desc>Created with Sketch.</desc>
    <defs></defs>
    <g id="Page-1" stroke="none" stroke-width="1" fill="none" fill-rule="evenodd" sketch:type="MSPage">
        <g id="Movies-Desktop-HD" sketch:type="MSArtboardGroup" transform="translate(-531.000000, -269.000000)" fill="#FFFFFF">
            <g id="Header" sketch:type="MSLayerGroup" transform="translate(-160.000000, -13.000000)">
                <path d="M708.363269,296.444922 C708.363269,292.991299 707.086949,291.264513 704.534271,291.264513 C701.981593,291.264513 700.705273,292.991299 700.705273,296.444922 L700.705273,308.72024 C700.705273,312.624336 703.483146,318.25516 709.038975,325.612879 C714.594804,332.970599 717.372677,339.31466 717.372677,344.645253 L717.372677,352.528484 C717.372677,365.742348 713.093251,372.349181 704.534271,372.349181 C695.975291,372.349181 691.695865,365.742348 691.695865,352.528484 L691.695865,341.379343 L700.705273,341.379343 L700.705273,358.159364 C700.705273,361.612988 701.981593,363.339773 704.534271,363.339773 C707.086949,363.339773 708.363269,361.612988 708.363269,358.159364 L708.363269,347.798545 C708.363269,342.242716 705.585396,335.898655 700.029567,328.766172 C694.473738,321.633689 691.695865,314.651468 691.695865,307.819299 L691.695865,302.075802 C691.695865,288.861938 695.975291,282.255105 704.534271,282.255105 C713.093251,282.255105 717.372677,288.861938 717.372677,302.075802 L717.372677,310.296886 L708.363269,310.296886 L708.363269,296.444922 Z M721.314293,282.255105 L748.342515,282.255105 L748.342515,291.264513 L739.333108,291.264513 L739.333108,372.349181 L730.3237,372.349181 L730.3237,291.264513 L721.314293,291.264513 L721.314293,282.255105 Z M770.302946,296.444922 C770.302946,292.991299 768.801393,291.264513 765.798242,291.264513 C762.795091,291.264513 761.293539,292.991299 761.293539,296.444922 L761.293539,358.159364 C761.293539,361.612988 762.795091,363.339773 765.798242,363.339773 C768.801393,363.339773 770.302946,361.612988 770.302946,358.159364 L770.302946,296.444922 Z M779.312354,352.528484 C779.312354,365.742348 774.807695,372.349181 765.798242,372.349181 C756.78879,372.349181 752.284131,365.742348 752.284131,352.528484 L752.284131,302.075802 C752.284131,288.861938 756.78879,282.255105 765.798242,282.255105 C774.807695,282.255105 779.312354,288.861938 779.312354,302.075802 L779.312354,352.528484 Z M800.484461,321.896499 C804.388558,321.896499 806.340576,319.869402 806.340576,315.815149 L806.340576,297.345863 C806.340576,293.291609 804.351019,291.264513 800.371844,291.264513 L795.529287,291.264513 L795.529287,321.896499 L800.484461,321.896499 Z M795.529287,372.349181 L786.51988,372.349181 L786.51988,282.255105 L800.371844,282.255105 C810.35732,282.255105 815.349984,288.561628 815.349984,301.174861 L815.349984,311.08521 C815.349984,319.418953 813.022577,325.350087 808.367693,328.87879 L815.124749,372.349181 L806.002724,372.349181 L800.259226,330.905906 L795.529287,330.905906 L795.529287,372.349181 Z M829.08933,372.349181 L829.08933,333.833964 L817.264483,282.255105 L826.499126,282.255105 L831.90477,310.071651 L833.594034,322.234351 L835.283298,310.071651 L840.576325,282.255105 L849.923585,282.255105 L838.098738,333.833964 L838.098738,372.349181 L829.08933,372.349181 Z M876.38872,321.896499 L885.398128,321.896499 L885.398128,282.255105 L894.407535,282.255105 L894.407535,372.349181 L885.398128,372.349181 L885.398128,330.905906 L876.38872,330.905906 L876.38872,372.349181 L867.379312,372.349181 L867.379312,282.255105 L876.38872,282.255105 L876.38872,321.896499 Z M919.633876,296.444922 C919.633876,292.991299 918.132323,291.264513 915.129173,291.264513 C912.126022,291.264513 910.624469,292.991299 910.624469,296.444922 L910.624469,358.159364 C910.624469,361.612988 912.126022,363.339773 915.129173,363.339773 C918.132323,363.339773 919.633876,361.612988 919.633876,358.159364 L919.633876,296.444922 Z M928.643284,352.528484 C928.643284,365.742348 924.138625,372.349181 915.129173,372.349181 C906.11972,372.349181 901.615061,365.742348 901.615061,352.528484 L901.615061,302.075802 C901.615061,288.861938 906.11972,282.255105 915.129173,282.255105 C924.138625,282.255105 928.643284,288.861938 928.643284,302.075802 L928.643284,352.528484 Z M949.815392,318.292736 C953.719488,318.292736 955.671507,316.265639 955.671507,312.211386 L955.671507,297.345863 C955.671507,293.291609 953.681949,291.264513 949.702774,291.264513 L944.860217,291.264513 L944.860217,318.292736 L949.815392,318.292736 Z M944.860217,372.349181 L935.85081,372.349181 L935.85081,282.255105 L949.702774,282.255105 C959.688251,282.255105 964.680914,289.162249 964.680914,302.976743 L964.680914,306.580506 C964.680914,320.395 959.725789,327.302143 949.815392,327.302143 L944.860217,327.302143 L944.860217,372.349181 Z M984.501611,318.292736 C988.405707,318.292736 990.357726,316.265639 990.357726,312.211386 L990.357726,297.345863 C990.357726,293.291609 988.368168,291.264513 984.388993,291.264513 L979.546437,291.264513 L979.546437,318.292736 L984.501611,318.292736 Z M979.546437,372.349181 L970.537029,372.349181 L970.537029,282.255105 L984.388993,282.255105 C994.37447,282.255105 999.367133,289.162249 999.367133,302.976743 L999.367133,306.580506 C999.367133,320.395 994.412009,327.302143 984.501611,327.302143 L979.546437,327.302143 L979.546437,372.349181 Z M1014.23266,363.339773 L1028.08462,363.339773 L1028.08462,372.349181 L1005.22325,372.349181 L1005.22325,282.255105 L1028.08462,282.255105 L1028.08462,291.264513 L1014.23266,291.264513 L1014.23266,321.896499 L1022.11589,321.896499 L1022.11589,330.905906 L1014.23266,330.905906 L1014.23266,363.339773 Z M1047.90532,321.896499 C1051.80941,321.896499 1053.76143,319.869402 1053.76143,315.815149 L1053.76143,297.345863 C1053.76143,293.291609 1051.77187,291.264513 1047.7927,291.264513 L1042.95014,291.264513 L1042.95014,321.896499 L1047.90532,321.896499 Z M1042.95014,372.349181 L1033.94073,372.349181 L1033.94073,282.255105 L1047.7927,282.255105 C1057.77818,282.255105 1062.77084,288.561628 1062.77084,301.174861 L1062.77084,311.08521 C1062.77084,319.418953 1060.44343,325.350087 1055.78855,328.87879 L1062.5456,372.349181 L1053.42358,372.349181 L1047.68008,330.905906 L1042.95014,330.905906 L1042.95014,372.349181 Z" id="Name" sketch:type="MSShapeGroup"></path>
            </g>
        </g>
    </g>
</svg>
