<?xml version="1.0" encoding="UTF-8" standalone="no"?>
<svg width="489px" height="95px" viewBox="0 0 489 95" version="1.1" xmlns="http://www.w3.org/2000/svg" xmlns:xlink="http://www.w3.org/1999/xlink" xmlns:sketch="http://www.bohemiancoding.com/sketch/ns">
    <!-- Generator: Sketch 3.3.3 (12072) - http://www.bohemiancoding.com/sketch -->
    <title>about-project</title>
    <desc>Created with Sketch.</desc>
    <defs></defs>
    <g id="Page-1" stroke="none" stroke-width="1" fill="none" fill-rule="evenodd" sketch:type="MSPage">
        <g id="about-project" sketch:type="MSLayerGroup" fill="#000000">
            <path d="M381.579,94.946 C380.88,94.661 380.157,94.419 379.484,94.079 C376.524,92.587 375.204,89.418 376.161,86.167 C376.843,83.853 378.084,81.982 379.973,80.385 C383.817,77.137 387.535,73.735 391.212,70.295 C392.725,68.88 394.007,67.217 395.365,65.643 C395.644,65.32 395.866,64.913 395.998,64.507 C398.567,56.631 402.551,49.347 405.516,41.638 C405.782,40.95 406.024,40.253 406.335,39.398 C404.205,40.303 402.324,41.143 400.41,41.903 C398.29,42.744 396.068,43.183 393.816,42.688 C392.345,42.365 390.946,41.717 389.378,41.167 C389.318,41.438 389.188,41.83 389.149,42.231 C388.588,47.895 386.455,52.825 382.18,56.663 C380.811,57.893 379.236,58.929 377.644,59.864 C375.731,60.989 373.599,60.708 371.562,60.239 C370.462,59.985 369.393,59.47 368.401,58.911 C366.483,57.831 365.754,56.065 365.927,53.927 C366.009,52.913 366.223,51.91 366.437,50.509 C365.291,52.101 364.407,53.405 363.444,54.647 C361.903,56.634 360.346,58.614 358.724,60.535 C357.578,61.893 356.032,62.308 354.278,62.111 C352.249,61.882 350.821,60.492 350.78,58.441 C350.731,56.018 351.044,53.627 352.018,51.379 C353.648,47.617 355.314,43.869 356.973,40.119 C357.278,39.428 357.619,38.752 358.115,37.71 C355.96,38.799 354.025,39.332 352.098,38.308 C350.16,37.278 349.637,35.343 349.286,33.077 C348.731,33.611 348.288,33.982 347.909,34.41 C341.948,41.122 335.997,47.845 330.037,54.556 C328.831,55.915 327.608,57.241 325.589,57.367 C325.224,57.388 324.862,57.816 324.537,58.099 C322.299,60.04 319.583,60.861 316.745,61.287 C315.925,61.412 315.013,61.146 314.18,60.923 C312.496,60.471 310.839,59.924 309.093,59.394 C308.932,59.796 308.747,60.186 308.617,60.594 C306.172,68.264 304.221,76.06 302.686,83.961 C302.551,84.657 302.399,85.356 302.174,86.027 C301.963,86.656 301.464,87.031 300.782,86.923 C300.113,86.816 299.726,86.358 299.717,85.662 C299.711,85.173 299.691,84.663 299.804,84.192 C300.739,80.321 301.63,76.438 302.678,72.596 C304.174,67.111 305.758,61.648 307.368,56.194 C308.67,51.79 310.039,47.404 311.43,43.026 C312.075,41.002 312.842,39.015 313.641,36.764 C312.95,36.857 312.54,36.905 312.133,36.967 C309.35,37.406 306.664,37.269 304.278,35.553 C303.75,35.173 303.253,34.72 302.84,34.219 C302.41,33.696 302.444,33.084 302.959,32.594 C303.412,32.163 303.934,32.14 304.457,32.492 C304.593,32.584 304.727,32.682 304.845,32.795 C307.25,35.086 310.043,35.035 312.973,34.139 C313.233,34.059 313.498,33.963 313.728,33.821 C314.864,33.109 315.889,33.087 316.675,34.312 C317.831,33.735 318.874,33.12 319.987,32.678 C323.341,31.346 326.602,31.389 329.691,33.487 C331.353,34.616 332.546,36.098 332.815,38.106 C333.091,40.161 333.249,42.241 333.282,44.313 C333.3,45.317 332.915,46.328 332.664,47.571 C333.084,47.19 333.398,46.952 333.656,46.663 C337.626,42.209 341.572,37.733 345.565,33.3 C346.626,32.124 347.809,31.058 348.971,29.978 C349.453,29.531 350.032,29.143 350.749,29.42 C351.554,29.73 351.603,30.451 351.67,31.185 C351.766,32.219 351.838,33.269 352.082,34.273 C352.568,36.27 354.232,36.972 355.977,35.872 C357.033,35.207 357.937,34.303 358.917,33.516 C359.385,33.139 359.834,32.714 360.359,32.44 C361.283,31.956 362.161,32.494 362.17,33.544 C362.173,34.023 362.062,34.53 361.881,34.977 C361.167,36.75 360.426,38.515 359.656,40.266 C357.895,44.27 356.103,48.26 354.342,52.263 C353.58,53.993 353.334,55.835 353.301,57.708 C353.289,58.354 353.163,59.081 353.93,59.424 C354.721,59.777 355.557,59.818 356.287,59.318 C356.822,58.952 357.342,58.503 357.723,57.983 C360.084,54.765 362.633,51.654 364.686,48.248 C368.022,42.715 372.395,38.19 377.279,34.084 C379.29,32.392 381.744,31.953 384.227,32.147 C386.017,32.287 387.512,33.293 388.36,35.021 C388.721,35.757 389.048,36.521 389.506,37.194 C391.346,39.894 393.994,40.838 397.098,40.238 C400.125,39.652 402.96,38.447 405.506,36.679 C406.252,36.161 406.87,35.429 407.46,34.722 C408.17,33.87 408.689,33.581 409.353,33.876 C409.991,34.16 410.29,34.835 410.001,35.864 C409.455,37.809 408.945,39.784 408.173,41.642 C406.18,46.44 404.045,51.178 401.979,55.946 C401.381,57.327 400.827,58.725 400.504,60.244 C402.025,58.835 403.512,57.384 405.078,56.026 C407.103,54.273 409.172,52.567 411.267,50.897 C412.031,50.29 412.535,49.612 412.804,48.665 C414.544,42.529 418.216,37.616 422.72,33.259 C424.257,31.77 426.12,30.886 428.279,30.692 C429.519,30.58 430.677,30.789 431.695,31.562 C432.856,32.447 433.175,33.347 432.687,34.717 C432.452,35.38 432.138,36.046 431.724,36.612 C430.335,38.512 428.919,40.397 426.922,41.736 C426.514,42.009 426.095,42.292 425.76,42.645 C422.953,45.61 419.677,47.961 416.245,50.137 C414.584,51.19 414.02,53.072 414.575,54.993 C414.824,55.854 415.394,56.398 416.305,56.536 C418.752,56.908 420.951,56.55 422.799,54.679 C426.68,50.745 430.58,46.828 434.559,42.992 C436.919,40.716 439.422,38.585 441.899,36.432 C444.002,34.604 446.544,34.076 449.248,34.172 C449.784,34.191 450.333,34.318 450.843,34.494 C451.433,34.696 451.657,35.198 451.575,35.808 C451.491,36.436 451.095,36.763 450.48,36.839 C450.372,36.853 450.256,36.874 450.153,36.853 C447.889,36.382 446.108,37.63 444.351,38.659 C442.303,39.858 440.614,41.551 439.533,43.707 C437.823,47.115 436.653,50.676 436.753,54.564 C436.812,56.854 437.975,58.428 440.214,58.849 C441.725,59.132 443.192,58.973 444.698,58.367 C449.268,56.529 453.353,53.926 457.179,50.882 C458.631,49.727 459.998,48.465 461.396,47.242 C461.684,46.991 461.905,46.654 462.212,46.435 C465.998,43.754 467.951,39.599 470.613,36.015 C470.734,35.853 470.785,35.638 470.987,35.175 C469.812,35.175 468.804,35.177 467.797,35.175 C466.592,35.171 465.387,35.197 464.184,35.147 C463.381,35.113 462.881,34.605 462.866,33.959 C462.852,33.339 463.371,32.733 464.114,32.655 C464.708,32.593 465.315,32.682 465.917,32.685 C467.724,32.694 469.533,32.648 471.337,32.717 C472.29,32.754 472.851,32.43 473.261,31.565 C474.739,28.452 476.269,25.364 477.784,22.268 C478.169,21.482 478.55,20.693 478.972,19.927 C479.524,18.926 480.075,18.631 480.75,18.906 C481.522,19.22 481.756,19.945 481.34,20.998 C480.317,23.592 479.272,26.177 478.215,28.758 C477.719,29.971 477.176,31.166 476.586,32.527 C477.075,32.592 477.485,32.714 477.886,32.687 C479.521,32.581 481.153,32.43 482.785,32.295 C483.276,32.254 483.767,32.18 484.258,32.184 C485.246,32.194 485.74,32.567 485.803,33.286 C485.866,34.015 485.455,34.497 484.469,34.612 C482.516,34.841 480.555,35.025 478.594,35.161 C477.51,35.236 476.418,35.175 475.428,35.175 C475.225,35.429 475.089,35.543 475.027,35.689 C472.782,40.863 470.718,46.115 469.51,51.632 C469.108,53.466 469.341,55.444 469.336,57.355 C469.335,57.776 469.518,58.212 469.68,58.615 C470.537,60.732 471.669,61.211 473.652,60.1 C474.979,59.357 476.237,58.451 477.409,57.477 C480.536,54.875 483.166,51.785 485.797,48.702 C486.081,48.369 486.356,48.024 486.67,47.721 C487.16,47.25 487.817,47.073 488.271,47.587 C488.566,47.922 488.568,48.563 488.587,49.07 C488.595,49.293 488.335,49.541 488.161,49.748 C485.169,53.316 482.141,56.861 478.511,59.809 C477.245,60.836 475.86,61.764 474.409,62.502 C471.565,63.949 469.08,63.12 467.729,60.231 C467.166,59.028 466.891,57.629 466.764,56.294 C466.385,52.272 467.493,48.487 468.871,44.767 C469.168,43.965 469.424,43.148 469.728,42.249 C469.489,42.295 469.416,42.289 469.402,42.315 C467.581,45.46 464.73,47.67 462.103,50.02 C458.069,53.629 453.791,56.973 448.77,59.191 C447.719,59.655 446.671,60.128 445.646,60.645 C444.497,61.225 443.284,61.364 442.014,61.499 C439.541,61.763 437.667,60.602 435.891,59.215 C434.587,58.196 434.315,56.626 434.244,55.071 C434.127,52.532 434.52,50.052 435.285,47.63 C435.496,46.966 435.675,46.294 435.868,45.625 C435.773,45.563 435.678,45.5 435.582,45.437 C433.346,47.661 431.11,49.885 428.873,52.108 C427.166,53.805 425.55,55.609 423.725,57.169 C421.142,59.374 418.059,59.681 414.911,58.704 C413.225,58.182 412.266,56.825 412.077,55.016 C412.038,54.639 412.023,54.262 411.98,53.635 C411.456,53.956 411.014,54.139 410.686,54.442 C407.587,57.294 404.498,60.157 401.428,63.041 C400.791,63.639 400.309,64.412 399.637,64.958 C398.127,66.185 397.283,67.78 396.682,69.579 C395.918,71.861 395.043,74.104 394.269,76.383 C392.696,81.011 390.702,85.445 388.075,89.566 C387.171,90.984 386.059,92.295 384.895,93.513 C384.284,94.15 383.35,94.48 382.563,94.949 C382.237,94.946 381.908,94.946 381.579,94.946 L381.579,94.946 Z M309.696,56.794 C313.136,58.095 316.171,59.62 319.692,58.02 C321.001,57.425 322.256,56.832 323.31,55.842 C324.226,54.982 325.178,54.161 326.104,53.31 C328.838,50.792 330.006,47.466 330.874,43.992 C330.926,43.785 330.916,43.554 330.894,43.339 C330.718,41.711 330.636,40.063 330.308,38.465 C330.143,37.662 329.671,36.799 329.081,36.23 C327.564,34.766 325.706,34.072 323.544,34.309 C321.644,34.518 320.03,35.401 318.378,36.27 C316.646,37.181 315.323,38.315 315.036,40.37 C314.985,40.739 314.761,41.082 314.643,41.446 C313.019,46.477 311.397,51.511 309.696,56.794 L309.696,56.794 Z M386.858,39.425 C387.257,38.001 386.26,36.766 385.396,35.503 C384.887,34.76 383.989,34.427 383.247,34.883 C381.204,36.14 379.077,37.334 377.282,38.898 C375.356,40.574 373.735,42.612 372.044,44.548 C369.593,47.354 368.808,50.804 368.423,54.383 C368.337,55.187 368.589,55.929 369.218,56.447 C371.063,57.97 374.864,58.614 376.656,57.628 C379.911,55.837 382.45,53.349 384.239,50.112 C386.024,46.885 386.729,43.366 386.858,39.425 L386.858,39.425 Z M392.801,72.794 C392.696,72.742 392.589,72.69 392.484,72.638 C392.068,72.982 391.642,73.313 391.24,73.671 C387.726,76.802 384.219,79.942 380.704,83.071 C379.271,84.345 378.642,86.043 378.386,87.842 C378.098,89.867 379.414,91.613 381.382,92.18 C382.075,92.379 382.69,92.33 383.176,91.76 C383.99,90.803 384.863,89.885 385.58,88.86 C387.885,85.565 389.422,81.866 390.989,78.196 C391.733,76.456 392.206,74.599 392.801,72.794 L392.801,72.794 Z M416.028,46.78 C418.333,45.926 420.14,44.583 421.799,42.987 C423.136,41.702 424.661,40.607 425.977,39.301 C427.328,37.959 428.547,36.483 429.774,35.024 C430.065,34.676 430.156,34.163 430.324,33.762 C429.459,32.958 428.578,33.127 427.722,33.299 C426.218,33.6 425.042,34.477 423.943,35.498 C421.101,38.138 419.025,41.353 417.039,44.635 C416.63,45.308 416.361,46.063 416.028,46.78 L416.028,46.78 Z" id="Shape" sketch:type="MSShapeGroup"></path>
            <path d="M147.31,32.943 C145.787,32.943 144.49,32.938 143.192,32.948 C142.977,32.95 142.758,33.059 142.548,33.04 C141.949,32.986 141.51,32.698 141.397,32.065 C141.287,31.445 141.533,30.909 142.104,30.739 C142.881,30.509 143.705,30.372 144.515,30.335 C145.875,30.271 147.239,30.317 148.781,30.317 C149.742,27.811 150.715,25.383 151.603,22.926 C152.457,20.561 153.219,18.162 154.029,15.781 C154.116,15.524 154.186,15.181 154.379,15.056 C154.761,14.808 155.274,14.478 155.639,14.566 C156.003,14.655 156.446,15.184 156.507,15.575 C156.593,16.135 156.444,16.771 156.255,17.327 C155.114,20.692 153.932,24.044 152.768,27.402 C152.466,28.27 152.18,29.145 151.802,30.269 C153.296,30.269 154.582,30.271 155.868,30.269 C156.525,30.268 157.182,30.255 157.839,30.263 C158.996,30.277 159.792,30.951 159.715,31.835 C159.646,32.632 159.044,32.923 157.831,32.901 C155.701,32.864 153.57,32.89 151.331,32.89 C151.197,33.278 151.011,33.665 150.929,34.075 C149.749,39.974 148.299,45.829 147.782,51.842 C147.618,53.745 147.584,55.669 147.64,57.578 C147.685,59.112 148.375,59.7 149.882,59.37 C150.965,59.134 152.063,58.608 152.956,57.946 C154.312,56.94 155.496,55.701 156.754,54.563 C157.038,54.307 157.294,53.922 157.623,53.841 C158.045,53.737 158.609,53.738 158.966,53.945 C159.479,54.242 159.58,54.832 159.275,55.392 C159.146,55.628 158.978,55.861 158.779,56.04 C157.197,57.472 155.664,58.966 153.996,60.29 C152.353,61.595 150.435,62.173 148.295,61.791 C146.721,61.511 145.587,60.632 145.392,59.075 C145.142,57.081 144.942,55.02 145.174,53.041 C145.689,48.645 146.487,44.282 147.168,39.906 C147.206,39.66 147.228,39.412 147.282,38.96 C146.011,41.126 144.906,43.128 143.684,45.058 C142.017,47.695 140.316,50.312 138.527,52.867 C136.786,55.351 134.6,57.414 132.096,59.145 C130.629,60.16 129.026,60.548 127.277,60.406 C125.935,60.297 124.866,59.694 124.205,58.498 C123.51,57.241 123.026,55.924 123.056,54.443 C123.094,52.609 123.065,50.775 123.065,48.703 C122.461,49.749 121.846,50.635 121.413,51.601 C120.29,54.105 118.517,56.124 116.586,57.982 C114.393,60.092 111.621,61.182 108.649,61.624 C106.117,62.002 104.379,60.895 103.226,58.603 C101.998,56.164 102.043,53.56 102.543,51.052 C103.139,48.062 104.163,45.156 105.04,42.226 C105.367,41.133 105.805,40.075 106.27,38.787 C105.752,38.914 105.413,38.977 105.087,39.082 C103.787,39.501 102.518,40.065 101.189,40.33 C98.766,40.81 96.391,40.561 94.187,39.315 C93.911,39.159 93.617,39.033 93.166,38.811 C93.125,39.304 93.07,39.654 93.072,40.003 C93.093,43.54 92.452,46.958 91.337,50.31 C89.89,54.658 86.717,57.521 83.09,59.992 C82.28,60.545 81.338,60.897 80.507,61.422 C76.939,63.676 70.187,61.539 70.213,55.36 C70.222,53.079 70.579,50.784 70.94,48.521 C71.551,44.692 73.534,41.483 75.805,38.436 C76.384,37.66 77.02,36.926 77.872,35.874 C72.884,36.995 68.292,38.562 63.385,36.595 C63.089,38.059 62.883,39.391 62.545,40.689 C61.692,43.968 60.974,47.3 59.842,50.482 C58.453,54.39 55.9,57.517 52.389,59.815 C50.549,61.019 48.544,61.367 46.42,61.015 C44.586,60.711 43.316,59.654 42.85,57.822 C42.61,56.877 42.415,55.883 42.436,54.916 C42.503,51.914 42.683,48.916 42.82,45.875 C42.62,46.075 42.314,46.322 42.081,46.626 C41.047,47.972 40.126,49.416 38.992,50.67 C37.309,52.529 35.494,54.274 33.706,56.035 C33.045,56.687 32.275,57.226 31.6,57.864 C29.608,59.743 27.218,60.975 24.702,61.909 C21.365,63.146 17.966,60.879 17.577,57.246 C17.455,56.113 17.558,54.957 17.558,53.482 C17.043,53.972 16.716,54.277 16.396,54.589 C14.479,56.46 12.62,58.394 10.627,60.181 C9.336,61.337 7.759,61.952 5.94,61.776 C4.252,61.612 2.928,60.92 1.982,59.478 C1.148,58.208 0.65,56.806 0.549,55.33 C0.302,51.75 0.573,48.258 2.189,44.921 C3.718,41.763 5.859,39.284 8.848,37.436 C12.397,35.241 15.973,33.139 20.05,32.067 C22.095,31.53 24.168,31.432 26.227,31.939 C28.344,32.46 29.011,34.707 27.907,36.568 C26.179,39.481 24.637,42.506 23.065,45.508 C21.842,47.844 21.024,50.336 20.381,52.89 C20.016,54.338 19.817,55.793 20.121,57.276 C20.522,59.231 22.231,60.241 24.071,59.488 C26.302,58.574 28.456,57.497 30.205,55.76 C30.786,55.184 31.477,54.719 32.069,54.153 C33.607,52.679 35.263,51.298 36.609,49.663 C39.181,46.536 41.606,43.286 44.014,40.029 C44.648,39.171 45.103,38.139 45.457,37.124 C47.242,32.014 48.922,26.866 50.723,21.763 C52.426,16.939 55.109,12.589 57.611,8.165 C59.044,5.632 61.311,3.863 63.84,2.47 C64.392,2.166 65.074,1.991 65.706,1.96 C67.381,1.879 68.49,2.968 68.541,4.657 C68.604,6.741 67.862,8.638 67.045,10.491 C65.49,14.02 63.323,17.175 60.98,20.221 C59.681,21.91 58.451,23.655 57.239,25.409 C54.129,29.91 51.041,34.427 47.959,38.948 C47.595,39.482 47.219,40.051 47.035,40.659 C45.68,45.128 44.667,49.658 44.86,54.375 C44.869,54.594 44.857,54.813 44.866,55.032 C45.008,58.331 46.848,59.553 49.927,58.249 C51.973,57.382 53.632,55.917 54.959,54.143 C56.375,52.251 57.443,50.18 58.136,47.885 C59.307,44.001 60.233,40.07 60.901,36.072 C61.278,33.811 62.274,33.233 64.311,34.206 C66.728,35.36 69.196,35.155 71.71,34.727 C75.025,34.161 78.178,33.112 81.195,31.638 C81.894,31.297 82.564,31.032 83.377,31.43 C83.723,31.598 84.229,31.455 84.661,31.433 C87.208,31.299 89.164,32.159 91.044,34.062 C94.484,37.545 98.296,39.133 102.564,37.378 C104.379,36.632 106.173,35.824 107.922,34.937 C108.558,34.614 109.089,34.287 109.702,34.803 C110.302,35.308 110.196,35.928 109.928,36.596 C108.994,38.932 108.058,41.267 107.201,43.631 C106.587,45.325 106.119,47.073 105.548,48.784 C104.822,50.958 104.725,53.202 104.922,55.441 C105.005,56.382 105.447,57.321 105.86,58.199 C106.26,59.051 107.132,59.211 107.978,59.137 C110.74,58.895 113.186,57.837 115.159,55.903 C116.839,54.256 118.257,52.396 119.328,50.25 C121.183,46.533 123.225,42.908 125.127,39.214 C125.775,37.955 126.241,36.604 126.784,35.291 C127.328,33.977 127.846,32.652 128.411,31.348 C128.696,30.688 129.19,30.282 129.971,30.474 C130.675,30.647 130.98,31.247 130.862,32.18 C130.848,32.288 130.829,32.398 130.797,32.502 C129.693,35.992 128.749,39.547 127.439,42.959 C125.932,46.885 125.376,50.909 125.651,55.037 C125.839,57.839 127.344,58.776 130.243,57.31 C132.711,56.06 134.638,54.018 136.235,51.781 C139.572,47.105 142.842,42.377 145.204,37.094 C145.8,35.753 146.53,34.468 147.31,32.943 L147.31,32.943 Z M90.55,40.813 C90.722,38.352 89.806,36.674 88.464,35.205 C87.983,34.679 87.258,34.232 86.569,34.075 C85.752,33.887 84.798,34.246 84.006,34.015 C82.766,33.655 82.132,34.329 81.569,35.116 C79.258,38.346 76.45,41.2 74.747,44.891 C73.141,48.373 72.631,52.004 72.772,55.722 C72.893,58.93 76.231,60.723 79.113,59.315 C80.288,58.741 81.493,58.164 82.531,57.383 C84.894,55.608 87.185,53.693 88.414,50.905 C89.793,47.778 90.445,44.464 90.55,40.813 L90.55,40.813 Z M26.036,34.425 C25.224,34.304 24.754,34.202 24.28,34.165 C22.505,34.026 20.787,34.327 19.123,34.931 C15.128,36.38 11.506,38.514 8.111,41.038 C7.377,41.584 6.734,42.299 6.182,43.036 C3.417,46.737 2.599,50.948 3.089,55.465 C3.153,56.053 3.344,56.647 3.578,57.194 C4.473,59.287 6.318,59.947 8.251,58.757 C9.359,58.075 10.38,57.215 11.324,56.314 C14.222,53.544 16.737,50.439 19.073,47.189 C19.487,46.613 19.859,46.001 20.202,45.38 C21.598,42.847 22.985,40.308 24.355,37.761 C24.895,36.758 25.383,35.726 26.036,34.425 L26.036,34.425 Z M66.021,4.295 C65.32,4.595 64.854,4.724 64.462,4.972 C62.459,6.243 60.618,7.724 59.477,9.848 C57.052,14.363 54.35,18.744 52.652,23.621 C51.917,25.734 51.139,27.831 50.39,29.939 C50.287,30.229 50.244,30.539 50.172,30.839 C51.95,28.627 53.522,26.333 55.122,24.059 C56.346,22.319 57.564,20.572 58.858,18.883 C61.089,15.973 63.213,12.998 64.693,9.622 C65.385,8.042 66.09,6.448 66.021,4.295 L66.021,4.295 Z" id="Shape" sketch:type="MSShapeGroup"></path>
            <path d="M240.748,57.973 C241.8,58.232 242.651,57.763 243.468,57.203 C245.722,55.663 247.949,54.081 250.225,52.574 C251.122,51.979 251.558,51.323 251.533,50.177 C251.435,45.78 252.659,41.754 255.209,38.146 C255.586,37.611 255.822,36.957 256.264,36.49 C257.006,35.708 257.799,34.94 258.686,34.338 C259.537,33.76 260.528,33.385 261.467,32.946 C263.473,32.011 265.117,33.031 265.196,35.258 C265.213,35.694 265.224,36.145 265.134,36.567 C264.477,39.645 263.429,42.542 261.373,45.013 C259.34,47.456 257.305,49.891 254.844,51.922 C254.159,52.486 253.965,53.115 254.224,53.943 C254.436,54.62 254.543,55.336 254.805,55.99 C255.543,57.836 256.598,58.377 258.576,57.923 C260.554,57.469 262.18,56.379 263.603,54.968 C264.03,54.544 264.408,54.065 264.865,53.678 C265.514,53.127 266.154,53.126 266.619,53.628 C267.098,54.147 267.117,54.754 266.681,55.268 C264.277,58.09 261.52,60.332 257.588,60.504 C255.233,60.608 253.609,59.518 252.693,57.373 C252.33,56.523 252.039,55.644 251.666,54.644 C249.663,55.837 247.646,56.89 245.925,58.428 C244.596,59.616 243.125,60.517 241.244,60.529 C239.12,60.543 238.014,59.634 238.029,57.522 C238.047,55.232 238.113,52.918 238.453,50.66 C239.015,46.932 239.82,43.242 240.51,39.534 C240.6,39.053 240.676,38.557 240.662,38.07 C240.615,36.308 239.542,35.544 237.834,35.949 C235.297,36.551 233.159,37.739 231.57,39.865 C230.884,40.784 230.013,41.567 229.349,42.5 C228.529,43.65 227.712,44.833 227.108,46.104 C225.152,50.213 223.729,54.522 222.584,58.924 C222.447,59.452 222.333,59.994 222.132,60.499 C221.781,61.383 221.199,61.728 220.507,61.514 C219.733,61.273 219.521,60.653 219.642,59.952 C219.836,58.822 220.07,57.695 220.37,56.59 C221.498,52.428 222.66,48.277 223.878,43.871 C223.444,44.15 223.133,44.291 222.894,44.512 C220.358,46.847 217.799,49.158 215.317,51.551 C213.329,53.468 211.203,55.139 208.657,56.266 C207.461,56.796 206.361,57.541 205.181,58.114 C200.874,60.206 196.596,57.7 196.507,52.899 C196.434,48.961 196.62,45.02 197.824,41.204 C198.463,39.178 199.002,37.118 199.653,34.841 C198.713,34.841 197.925,34.88 197.143,34.832 C196.059,34.766 194.946,34.753 193.907,34.482 C193.359,34.339 192.813,33.772 192.514,33.253 C192.339,32.95 192.511,32.232 192.785,31.946 C193.051,31.669 193.835,31.467 194.066,31.647 C195.448,32.729 196.991,32.286 198.489,32.28 C198.762,32.278 199.036,32.212 199.308,32.219 C200.143,32.242 200.522,31.793 200.859,31.057 C202.813,26.782 204.825,22.531 206.825,18.276 C206.988,17.931 207.186,17.598 207.406,17.286 C208.009,16.429 208.693,16.204 209.323,16.63 C209.897,17.019 209.98,17.655 209.547,18.531 C208.216,21.227 206.872,23.919 205.544,26.618 C204.964,27.796 204.397,28.979 203.85,30.173 C203.675,30.556 203.584,30.976 203.396,31.562 C204.215,31.505 204.858,31.453 205.502,31.418 C206.704,31.355 207.906,31.267 209.109,31.253 C210.261,31.241 210.834,31.718 210.811,32.554 C210.789,33.329 210.259,33.753 209.2,33.793 C208.38,33.824 207.556,33.782 206.738,33.835 C205.592,33.908 204.451,34.06 203.306,34.14 C202.669,34.185 202.325,34.468 202.163,35.093 C201.229,38.69 200.113,42.249 199.382,45.887 C198.935,48.116 198.945,50.463 198.968,52.755 C198.998,55.763 201.396,57.198 204.076,55.869 C208,53.923 211.822,51.868 214.876,48.557 C217.021,46.233 219.523,44.239 221.866,42.096 C222.189,41.801 222.498,41.489 222.835,41.209 C224.895,39.5 225.899,37.322 226.527,34.688 C228.762,25.305 231.647,16.124 236.388,7.648 C237.424,5.795 238.664,4.041 239.959,2.355 C241.174,0.773 242.893,0.127 244.907,0.393 C246.842,0.647 247.688,1.577 247.76,3.548 C247.95,8.783 246.674,13.643 243.906,18.08 C242.14,20.912 240.392,23.769 238.41,26.449 C236.299,29.304 233.92,31.961 231.664,34.71 C230.622,35.98 229.586,37.254 228.572,38.545 C228.254,38.949 228.014,39.414 227.739,39.853 C227.851,39.941 227.964,40.03 228.076,40.118 C228.578,39.538 229.119,38.987 229.574,38.372 C231.453,35.839 233.988,34.371 237.001,33.569 C240.801,32.559 243.795,35.248 243.115,39.173 C242.817,40.898 242.367,42.593 242.051,44.314 C241.322,48.293 240.43,52.252 240.501,56.334 C240.508,56.717 240.512,57.102 240.549,57.481 C240.563,57.632 240.666,57.776 240.748,57.973 L240.748,57.973 Z M229.355,33.149 C229.709,32.961 229.886,32.922 229.972,32.813 C232.495,29.583 235.493,26.733 237.657,23.211 C238.973,21.066 240.383,18.98 241.732,16.856 C243.488,14.094 244.583,11.075 245.075,7.848 C245.319,6.243 245.286,4.625 245.175,3.1 C243.468,2.564 242.339,3.141 241.529,4.314 C240.383,5.976 239.249,7.658 238.258,9.416 C234.883,15.409 232.709,21.889 230.747,28.445 C230.298,29.95 229.856,31.459 229.355,33.149 L229.355,33.149 Z M254.001,48.745 C254.171,48.8 254.341,48.856 254.512,48.911 C257.787,45.583 261.097,42.281 262.407,37.552 C262.606,36.834 262.783,36.131 262.517,35.32 C261.561,35.748 260.695,36.076 259.89,36.515 C259.376,36.795 258.829,37.158 258.509,37.628 C256.915,39.97 255.299,42.321 254.615,45.129 C254.327,46.313 254.201,47.538 254.001,48.745 L254.001,48.745 Z" id="Shape" sketch:type="MSShapeGroup"></path>
            <path d="M414.005,20.631 C412.605,20.589 411.419,19.092 411.662,17.673 C411.901,16.278 413.106,15.714 414.339,16.421 C415.49,17.079 416.003,18.112 415.746,19.261 C415.542,20.178 414.929,20.659 414.005,20.631 L414.005,20.631 Z" id="Shape" sketch:type="MSShapeGroup"></path>
        </g>
    </g>
</svg>