<?xml version="1.0" encoding="UTF-8" standalone="no"?>
<svg width="71px" height="75px" viewBox="0 0 71 75" version="1.1" xmlns="http://www.w3.org/2000/svg" xmlns:xlink="http://www.w3.org/1999/xlink" xmlns:sketch="http://www.bohemiancoding.com/sketch/ns">
    <!-- Generator: Sketch 3.3.3 (12072) - http://www.bohemiancoding.com/sketch -->
    <title>Slice 1</title>
    <desc>Created with Sketch.</desc>
    <defs></defs>
    <g id="Page-1" stroke="none" stroke-width="1" fill="none" fill-rule="evenodd" sketch:type="MSPage">
        <g id="svg_rating" sketch:type="MSLayerGroup" transform="translate(-155.000000, 0.000000)" fill="#000000">
            <path d="M161.184,27.701 C165.012,27.701 168.843,27.796 172.667,27.668 C175.292,27.58 177.909,27.197 180.525,26.898 C180.798,26.867 181.16,26.565 181.269,26.3 C183.662,20.555 186.064,14.814 188.361,9.031 C188.898,7.677 188.967,6.143 189.422,4.747 C189.797,3.596 190.246,2.39 190.974,1.449 C192.268,-0.223 195.412,0.601 196.105,2.788 C196.633,4.455 197.009,6.185 197.289,7.914 C198.266,13.955 199.511,19.916 201.817,25.621 C202.205,26.582 202.73,26.84 203.676,26.878 C209.384,27.108 215.09,27.383 220.796,27.662 C221.672,27.704 222.549,27.811 223.415,27.951 C224.58,28.139 225.394,28.848 225.781,29.931 C226.166,31.009 225.841,31.97 224.987,32.75 C224.072,33.586 223.139,34.406 222.272,35.289 C220.711,36.879 219.196,38.512 217.658,40.124 C215.319,42.576 212.963,45.013 210.656,47.495 C210.374,47.799 210.174,48.375 210.238,48.776 C211.431,56.182 213.758,63.269 216.384,70.267 C216.986,71.87 216.845,72.854 215.865,73.643 C214.854,74.457 213.534,74.417 212.225,73.401 C207.938,70.07 203.711,66.662 199.392,63.375 C197.33,61.805 195.13,60.41 192.94,59.019 C192.654,58.836 191.998,59.042 191.608,59.248 C186.226,62.079 181.847,66.306 176.946,69.806 C175.817,70.613 174.562,71.27 173.3,71.857 C171.197,72.836 169.348,71.569 169.557,69.218 C169.743,67.116 170.19,65.037 170.536,62.95 C171.247,58.656 171.968,54.363 172.681,50.068 C172.734,49.754 172.739,49.431 172.79,49.116 C172.993,47.887 172.537,47.176 171.442,46.431 C165.727,42.545 160.661,37.919 156.257,32.577 C155.32,31.441 155.069,30.231 155.714,28.91 C156.341,27.626 157.517,27.486 158.784,27.558 C159.581,27.603 160.382,27.567 161.181,27.567 C161.184,27.612 161.184,27.656 161.184,27.701 L161.184,27.701 Z M209.086,64.662 C209.086,64.298 209.103,64.216 209.084,64.143 C207.709,58.857 206.309,53.578 204.969,48.283 C204.625,46.923 204.555,45.36 205.958,44.627 C207.74,43.694 208.909,42.231 210.193,40.813 C212.719,38.024 215.293,35.278 217.926,32.428 C217.614,32.399 217.422,32.373 217.23,32.365 C212.521,32.156 207.813,31.894 203.101,31.762 C200.33,31.684 197.984,31.198 197.482,27.898 C197.435,27.594 197.2,27.324 197.105,27.021 C196.121,23.904 195.078,20.802 194.198,17.656 C193.648,15.69 193.348,13.654 192.91,11.521 C192.72,11.749 192.618,11.825 192.576,11.926 C190.186,17.672 187.795,23.416 185.422,29.168 C184.56,31.259 183.61,31.87 181.305,31.851 C180.151,31.841 178.983,31.881 177.842,32.044 C173.122,32.716 168.401,33.149 163.638,32.543 C163.434,32.517 163.22,32.563 162.626,32.597 C164.99,34.775 167.023,36.806 169.228,38.63 C171.097,40.177 173.059,41.675 175.175,42.841 C176.877,43.779 177.803,45 177.662,46.812 C177.391,50.308 176.984,53.797 176.511,57.273 C176.169,59.784 175.627,62.267 175.13,65.002 C175.555,64.768 175.738,64.698 175.881,64.581 C177.426,63.313 178.896,61.942 180.519,60.785 C183.767,58.471 187.073,56.233 190.409,54.047 C191.45,53.363 192.719,52.895 193.907,53.719 C197.283,56.063 200.621,58.464 203.958,60.864 C205.637,62.07 207.284,63.325 209.086,64.662 L209.086,64.662 Z" id="Shape" sketch:type="MSShapeGroup"></path>
        </g>
    </g>
</svg>
