<?xml version="1.0" encoding="UTF-8" standalone="no"?>
<svg width="74px" height="74px" viewBox="0 0 74 74" version="1.1" xmlns="http://www.w3.org/2000/svg" xmlns:xlink="http://www.w3.org/1999/xlink" xmlns:sketch="http://www.bohemiancoding.com/sketch/ns">
    <!-- Generator: Sketch 3.3.3 (12072) - http://www.bohemiancoding.com/sketch -->
    <title>Slice 1</title>
    <desc>Created with Sketch.</desc>
    <defs></defs>
    <g id="Page-1" stroke="none" stroke-width="1" fill="none" fill-rule="evenodd" sketch:type="MSPage">
        <g id="svg_rating" sketch:type="MSLayerGroup" transform="translate(0.000000, -1.000000)" fill="#000000">
            <path d="M41.01,60.298 C34.243,64.564 27.564,68.792 20.86,72.982 C19.987,73.527 19.018,73.953 18.044,74.294 C15.672,75.122 13.724,73.454 14.171,71.005 C14.986,66.545 16.48,62.297 18.161,58.1 C19.065,55.842 19.785,53.512 20.641,51.235 C20.957,50.393 20.756,49.867 20.092,49.278 C15.666,45.354 11.187,41.482 6.913,37.398 C4.761,35.341 2.931,32.931 1.089,30.575 C-0.115,29.035 0.476,27.27 2.359,26.69 C3.637,26.296 5.016,26.101 6.357,26.065 C12.948,25.891 19.542,25.77 26.135,25.708 C27.208,25.698 27.604,25.396 27.897,24.352 C29.506,18.629 31.201,12.93 32.912,7.236 C33.255,6.093 33.832,5.023 34.229,3.894 C34.645,2.708 35.277,1.82 36.644,1.743 C37.929,1.671 39.196,2.465 39.76,3.773 C41.009,6.669 42.323,9.542 43.419,12.496 C45.082,16.981 46.607,21.518 48.127,26.056 C48.396,26.858 48.769,27.056 49.566,27.079 C54.998,27.229 60.427,27.45 65.859,27.619 C67.456,27.668 69.057,27.64 70.655,27.613 C71.892,27.592 72.997,27.822 73.545,29.082 C74.056,30.256 73.678,31.265 72.815,32.132 C70.591,34.363 68.4,36.628 66.13,38.812 C63.885,40.972 61.576,43.066 59.264,45.153 C58.347,45.981 57.382,46.769 56.367,47.472 C55.612,47.995 55.668,48.534 55.874,49.315 C57.158,54.176 58.44,59.041 59.603,63.932 C60.192,66.411 60.547,68.949 60.975,71.466 C61.216,72.883 60.688,73.985 59.602,74.503 C58.531,75.014 57.593,74.678 56.478,73.705 C52.688,70.397 48.842,67.154 45.03,63.872 C43.7,62.725 42.406,61.54 41.01,60.298 L41.01,60.298 Z" id="Shape" sketch:type="MSShapeGroup"></path>
        </g>
    </g>
</svg>