<?xml version="1.0" encoding="UTF-8" standalone="no"?>
<svg width="71px" height="72px" viewBox="0 0 71 72" version="1.1" xmlns="http://www.w3.org/2000/svg" xmlns:xlink="http://www.w3.org/1999/xlink" xmlns:sketch="http://www.bohemiancoding.com/sketch/ns">
    <!-- Generator: Sketch 3.3.3 (12072) - http://www.bohemiancoding.com/sketch -->
    <title>Slice 1</title>
    <desc>Created with Sketch.</desc>
    <defs></defs>
    <g id="Page-1" stroke="none" stroke-width="1" fill="none" fill-rule="evenodd" sketch:type="MSPage">
        <g id="svg_rating" sketch:type="MSLayerGroup" transform="translate(-79.000000, -1.000000)" fill="#000000">
            <path d="M86.447,27.126 C88.347,26.936 90.244,26.632 92.149,26.582 C95.542,26.493 98.939,26.518 102.332,26.59 C103.017,26.605 103.33,26.474 103.597,25.867 C106.625,19.002 109.907,12.24 111.956,4.981 C112.181,4.185 112.543,3.396 112.992,2.7 C113.659,1.667 114.643,1.07 115.939,1.248 C117.18,1.418 117.693,2.325 118.118,3.382 C119.039,5.669 120.106,7.899 120.966,10.207 C122.298,13.786 123.992,17.244 124.585,21.079 C124.798,22.454 125.193,23.806 125.591,25.143 C125.666,25.398 126.133,25.687 126.431,25.7 C128.746,25.803 131.074,25.729 133.378,25.929 C136.594,26.207 139.796,26.65 142.998,27.073 C144.577,27.282 146.17,27.499 147.707,27.901 C149.809,28.45 150.371,30.457 148.965,32.084 C148.495,32.627 148.019,33.198 147.441,33.607 C144.49,35.691 142.662,38.861 140.02,41.219 C137.94,43.077 135.664,44.723 133.411,46.374 C132.798,46.823 132.83,47.218 133.013,47.776 C134.552,52.477 136.049,57.193 137.646,61.876 C138.418,64.141 139.369,66.345 140.252,68.571 C140.691,69.679 140.616,70.685 139.722,71.541 C138.843,72.383 137.438,72.645 136.384,72.063 C134.741,71.158 133.143,70.171 131.52,69.23 C128.657,67.569 125.788,65.917 122.922,64.258 C120.126,62.641 117.343,61.001 114.524,59.427 C114.169,59.229 113.502,59.179 113.184,59.382 C107.959,62.707 102.684,65.968 97.991,70.053 C97.209,70.734 96.37,71.359 95.514,71.945 C94.363,72.734 93.096,72.721 92.159,71.99 C91.232,71.266 91.059,70.272 91.485,68.84 C92.108,66.743 92.57,64.593 93.278,62.527 C94.22,59.776 95.364,57.094 96.362,54.362 C97.141,52.227 97.871,50.072 98.516,47.895 C98.63,47.509 98.363,46.775 98.031,46.531 C95.905,44.971 93.722,43.49 91.539,42.01 C87.616,39.352 83.904,36.452 80.977,32.677 C80.401,31.933 79.835,31.103 79.56,30.22 C79.039,28.554 80.029,27.112 81.767,26.975 C83.312,26.853 84.874,26.949 86.429,26.949 C86.433,27.009 86.439,27.067 86.447,27.126 L86.447,27.126 Z M133.198,64.152 C133.129,63.912 133.071,63.69 133.001,63.472 C131.241,58.048 129.477,52.626 127.724,47.201 C127.149,45.422 127.657,44.128 129.286,43.146 C129.765,42.857 130.265,42.603 130.738,42.305 C135.071,39.58 138.576,35.992 141.567,31.902 C140.091,31.617 138.617,31.17 137.121,31.077 C133.3,30.841 129.47,30.732 125.641,30.637 C123.503,30.584 121.354,30.672 120.938,27.591 C120.618,35.652 120.331,43.43 119.984,51.205 C119.905,52.959 120.307,54.86 118.565,56.422 C123.519,59.039 128.303,61.566 133.198,64.152 L133.198,64.152 Z" id="Shape" sketch:type="MSShapeGroup"></path>
        </g>
    </g>
</svg>
